<mxfile host="Electron" modified="2023-06-29T07:58:04.681Z" agent="Mozilla/5.0 (X11; Linux x86_64) AppleWebKit/537.36 (KHTML, like Gecko) draw.io/21.5.1 Chrome/112.0.5615.204 Electron/24.6.0 Safari/537.36" etag="gqoo92VG2rDaGHRNf-G8" version="21.5.1" type="device">
  <diagram name="Page-1" id="CQ3GYOpIHXRAVkVks9I_">
    <mxGraphModel dx="1997" dy="674" grid="1" gridSize="10" guides="1" tooltips="1" connect="1" arrows="1" fold="1" page="1" pageScale="1" pageWidth="850" pageHeight="1100" math="0" shadow="0">
      <root>
        <mxCell id="0" />
        <mxCell id="1" parent="0" />
        <mxCell id="fAr4ffDVvJXLrBOaozmI-1" value="" style="shape=image;verticalLabelPosition=bottom;labelBackgroundColor=default;verticalAlign=top;aspect=fixed;imageAspect=0;image=data:image/png,iVBORw0KGgoAAAANSUhEUgAAA48AAAHmCAYAAADTDbu0AAAABHNCSVQICAgIfAhkiAAAABl0RVh0U29mdHdhcmUAZ25vbWUtc2NyZWVuc2hvdO8Dvz4AAAAudEVYdENyZWF0aW9uIFRpbWUAVHVlIDA2IEp1biAyMDIzIDA1OjQwOjM2IFBNIENFU1QpkYPNAAAgAElEQVR4nOy9uY7kzrsldiK4JHPfqrq27uvIHUcQ5EiQoXkCAXqieQg5A1nCvMBIkDwJGsgRcOXIuDI0mBFwu/au3DcmyYiQ8UWQzOxaMis3MjMP0Lfvv/rXXVkkIxjn+853DvvX//afFPYNBjAAFc9Cu2qhXbXRrtqw+H6+vR8oTOYCk7nEdC4x8SUmc/oVYwdXxXMY2lUbFzX6eQsO2/43yRCkAjqjCH+GEd6GESa+/PovvYNigaNc4Kh4HBXPQsXjKBV4Jq/fcCbw2o/wMogwnIpDf5ydo1TguKzZuGo4aFYsMAB+SGtqNJMYzgTGvsQskAij/W8124Zr0xq+atAadu3sPYPrQEhgFuj75QuMZhITX2AWKERCgXOgVbHxo27jsmajVNjTJn1ADKcCr4MIr4MIg4ytYcdmKLq0F1aLtBeWCxzFAgf/5qM4nUv8GdLP2x1HkN/bpnODgn4P/6jbaFVtFHa4huehwjSQGM8kxj7thVN97tgXOAfaFRuXdRsXVRtl7/jXcH8i8Daks0d/svoaLhXobFHxOMoeR7lgoexxeBk8a6Qx9mV81uqOBITM/7v2MxQchouajUbZhmMBs0DRGd4XmM4l5uHx/PyMARZnC1ypkoE1bO/rGzG99poVmy5CxUazYu3r2y/Acxk810a7SoenhEAK/QDS5h5s4bDruRwXVQsXtd2/qLKC/kTgzzDCny0dvmZzidlc4m0IgAElN9ngK0ULVY8OT4e6tkGk8DaK8NKP0B1FW3luso5aycJ1g0jj8kZWdDmKLsdFjf53ECnMgoRMjqYC00DBD/JzSjUHzuuGg1bVgmMdxzq2OHRRhuNKvw4ioTALFPoTgXkoUSpw1MsWPPfwL6xdYh4qdEZU+MnqOg4jhTASujAVAqCDRdFlKKcIZcWzUHQZ7C+e08FU4KVPh85TKHaZ9/Fl3UF7D+u44DAUHAvNsgXAib9uCjZj/Ws0E5gFuzn01ksWmhULzcppEEc/JCJhiPo6MMT+bbj4dS995oiJJb3nsoAwUpiHCkGkjp44AgBnDIwxuBaRKmfp7BdGKm4Ixc0h/Tzk7fooBQipEAniK1n5/DsljwljtmPWXPY4snTssjhQLXJUixyATRuPfsgmc7HYlVzxnhVdjrYmjMfQnVgFY1/GhLE7jqB29XyrxQ2eMbrepQLdw4pnoVqkTX3X190cvF4HEUaz4z942RZDs2LhuuHgomavXI11bQbXtlAv0QFKSMAPkkPTMNXtysrGaOA5DO2aJo0V68vD+DFgHppiSIj+REApwHWo41XVBKVapDWXlcPTpuhPBF4GEf4MQoxm+SlqAHSYGPsKY1/ipR/RF5eKbIZUmiJbJBQ6Y4HXfojOiIjLsYMKWrrjeOC1vFxgA3QhOyaV1KU0Z5FIfG9frJUstCo2WhUbteJxrNXPoAC6fjN6v2yrAOQHEn4g0R0tfr3gMJQKHGXPQqWgSaXHUXJ53DDZNcJIYW7I4xF13D4DYwBnAOMAe0dy4dgMDdtCo/x3g8qcH8dLpDLreyARSAWRkY+5dfJoDvNpwpgn8uQ5DJ5DclohHU0i6XD7WVeyWKCf+VL/3MuVkGOEH1Cl/nUYoTOKDiJLVEtkkjOqEpY9jqpnoVKkA6+3JTLphwqdYYSXAR26vvtSzxNMtf66SdJU+7v6OA2LI37JXjVoC/JDhelck8mpwEhLXQ/1Mtz2z5wH+AGRxud+iN548dkOQoUgFBhMko6X53IUXRaTyWrRQsnNppz8I8wChTe9npd/5lxDvd9FKTh0v+olCwpUKAAD/TqSH/09lApp4ri/EZl1YHFQccajQraBUW6MZyQtNx212Vzis1pbqcDRKFPXsVY6jMpr35jps9pIyxd3jXmoMA8FeuPF4rFjE6k0hLLikfy1tIG8/CMEQmEeSsyj7ZHlrIOzhECuez2NNDlduAGASJjiDTWNxvPNizfbAnUfEwIpJcnRD4nNyaOeX6yVSIpqCOO+qi67xHtdybTEdR4quDZDs3w6hDEUCt2RIMI4jDJXrZGpQ9OfQQTOqZhRLiQS10qRJF2rSpaUAvpTgZd+iD+DCONvzm7mDRWP40fDwU3TRq2428OHKdq0tJQ9FAp+oHRnkmbxpnOq/u6yOWm6E9dNG81yNg+Z20YYKXTHAs/9EJ1RtLJ0jqrxiA9OzBRudLerpknltgo324RU9LlfByH+bDCPnTcUHCIUV41kTRuZ8ljPvI714SmLSoDvoOzRmr6q22hW7K0f3neNZeWGwSyQmM5V3KU0pNIPJDyHoVmm/bResk5iHxMSmMwlRhmQJ4aRwiAyxbYEtqU7lam5ylUl5h8hODHJKgBwzsAZ0/LV7fybtgXUivzdDr05+5u90SgS9zm7LKTSBBKIpIJ74I3s2+SRM6BVpQHsVtVsbMcNz2GQkmHiU8WaDrIcw5mAUIqMXFx+dCRSKaA3SQ5a4xzJuqREvNhfBxEszuC5DOVCIr/7aPM2XYlnLd87dPVpH+CcZmRumg5+1O2DyRIdi8EpMlSLHLdwIBUwD+mANJxJjKZUXfa1scumKGrjn2tt/JO3A+Z3YAjUS5/W9aYvQqWW5pOBheJNvN6KForO9w9Lm8IYxDz3I/Qnx28QAySS86u6g4uatbCubYuhqtfaTZO+JlXaSElinFPjq4rHcVm38aPuoFm2jqKobUDSV6BdTc5eUtEISX8cYR7RYdMPJRjjRzOn/RGm80Suus9D/TqIhMJwKv6aL7Y4Q7HANKm0YmJZKnx+30JBxHEenY5kFaCGlek67uOpXi5uG8iU1HySIpfTHaimTOdRSJWJd9bq5JEBBe002KraaFesk3DeA6ia1RlFeBsKdEbR4mFVV5bMQHW5sDRQXcjWjOc6GE5F7MK3jmNZliGkwsRXC2Ry2WyCM4bumH7urL6Etg3jInrTpNm+rBVAOEvmhC613GQeLhnxzARmcwl/jU27VOD4USfS2Diyw+VnGE4Fnvsk19xlMWi5eAMQWfFcFs8nV4s0L+S5fKcdkkgqTZbJ/TlrqoldwUiwjSPyKiSCM6Cs32c/6snXZ0FSgTddynXX3L5QLVqaONrasOb4wUAEZRrIhUKvq1160++5TV16s4QgUrFj9HQud+e5sCMIqTCeKYxnEi+I4q9zlrjNlz0rNuwxs8vUdZSYhxLhCRS3DeKZxwM/uzxlOLcM47Sc7lRO5gLTuYL8Roc46TwqRFJhP7T5Y3xJHisej+1hj8ll8CtMfIm3ER0yuivMwqQHqi3OUCqw2Oa5khqiztqhfBmTucSbJoy98fFbPhuzCakQy+tch2TKjs3ogDQT8MPtdLiyBkOebpoO6qV8kSfjZNjQToaRrsKOfElzk7pbMg//lvOUCjRved3I38+9CSZzInHPvRCDqTjIISsSyUHpuUdfc22GgkMjAkbuWvY4Cs52DrcTX+JlQCZAh/q5D4FqkeNH3cFVw96KOqjoMhRda6HbNY9IhTOayXjNGQOKQ13nWsnCD00cT0EVZTDyBbpjOrOki0JBpBBEQrufh/HXPZej5DJUNKGsFi1dpMvXhjgLknnQPLl4fwWpkuIbBgmpNIZYjbIVF3lMcsAx/fzvgTHzi2W68LHotJxAqcVupbm/0+Dze5c2zMls57FZSfJEltu0xwyTlbMqYfwIQiqMZip27TMbdDklRzA2z1k4tBqLepPzdUwZOZ8hlnI1HFxUF6VcVR1dEEmavTPOoCYHL89kkjGqyt806VBZPhIFgW2RFLLscVw3bCiVzCqYzqQfKNTLFDNSK1m5VQWsCz/UEuxeiF4GJdjmcDuaCTzqw23BOLwuGfJ4axxszYz2uvOceYfFaW/bRz5nwWYoLM3kRUJhFqpY7jqakZxrH/tmvUQznZd15yQcRg0mvkR3JNAdiZXdv83ccjdl+GKk5qVCYjpX8fbjYP4d0Gw8yVVnJ6IUgqK9TUg6X96lzi9pb450tughiznbBGN65pHT73kDS6k6lhFE1K2cponlPDHtMbLVaE9NHfYJQbEBOnS1UoSxekIb7tinTpshjLvotKU36A+17XvuSkZSoaeNb962MO+UJ5S9RKr4VdfJ5gwVj6GiCUkkFPxQxc53wym58Po5MJcwZPmmSVEbx545Ss7P1CnxHKaruCHehhGCUKJaJBfCkpYAZaGQs20YM5wnTZ7yNBdjnAxjyTwDPIcKcUQoLdRKHJ7zvsPraCbx3A/x0j+NKB0Dk0l61XDQPpAE3bYYqhbTzqEEqehdOJkvdin9YDsukYwZ4kjz2lkI0t4X/EChN6Gu43AmNupMpKXmf1LdLsdi8FwT/ZI4iBZ3LDf/DKaLQyRJnIzbKED3g7pbDK6d3IDF+bzEYGkeKvihjOXmaVKZhU7WqmCMgSMbstVtw5hjNd5RS0wDicGE7tlgIiClQln7dWyKz0jih3/n//y//6NqV1fPbDsGjGbUYfwzPLw009jdV/bQlVSgPLPXARHGUwiFNnBsKpBcNRxs83k3A+smr9BU2N+TSh4KnktmMDdNmus7Bec9g4kv8dQP8dR7f7bPthhcm6Gi5ZK1IlXaCw7LdTyHkLTWn7UZzrFW5DnXhLKQSF6LBY6pL+P4jVM6UFa8RZlqHg5XfkCzy8OZiItyxpBuVXAGNMoWfjQc/KhRnvSpINAFolddINr3/GlaIVDxOCpFOsN4zu6VVcb86lTGbNJolBNlwSZRLGGkUvmiJv9Q5y5nTKEC0FmuWbHwo+agXSM1yqlgGih0tTqyM4oQCAXHYrEpnRmTM3Eky2OG3yGJH4H9/v07e0/HDjCapWcYs+mw915X0shFNqkej3QF8XWQhH6fCipFjqu6E8sUd40FMjmlA9F0LuGH+6/uVTyO66aD26ZzUocpgBQFT70Qz71wrWgVxijOoOgyIpMlkkxmVbL1HkYz/bP3w5OJoAAWO0/NioUwSoo6xzy3DCQuyabrlncpehAlXZJROqrnnX3U4iyOH9m1RDdroCJRhJd+tBXH5G3B5C2XCjyepTRnmW3lwBoDLFMMz8rPvg+YYviPOhXDdzGjaiJ8JnPaP0e6G+0HhzXncR2GVsXGj5qNdu20Gl/zkApFb8MInfHXpm9FXVg1TalyiljyDYnkUZPH4UyiM9Qdxhxasi93JU1FYZWu5HQu0RlRvEZvLE7Kicu1GVpVG9cNcgY+pDwzjBT8SGE0TfIKJz4F+u7iebQ4Q71s4bbp4LJmrzUfdgzYBXFybIaCzVArWTsxc9kWJnOJ136Ep36I4QmZwgBJd/26QVl+y931tNzczL/mRW7+Fcxh6rpBYyd5KXKsi/gepubPZzrT8FJ3YA4VLXQIKCSuyX8G+ZBmx07LhWSWslKksYJ1zRjTRfHBROw0/zdroJB77SRcsWHv8bEX0mSMJjE+Ex3jsw+VR8HhaFctXNZov9tWMSIPiATQHSedx/E3CyY2Z/Fc83I6hOes9jAdHXkczgTehhQxcUwZXulIiZhM6rw005UMIjKHeB2E6IzF0btuLaNatHDdpFmfakY7bWFEB6DhjOYlh7qiHoRyo5ef6zBc6KiNVe34jwVKkcvgU5cyOXddgeacXmDlAteEkuSS7jcOQNuAMcN56p1OHqmBKZZcN+y1c0lNuLYhk8MprcVdFXZ2AeOWfKWjZrJUzNg1IkFV+D9DmuU10uWqISNHSqINxjr+5hgchF2HwdNuy8akp6zje957po1U96UfonsAqe6hUS8bN+HsmEKZmeaEVOoon0Bu1ais6FICxGWdDD2PtVj2HqSicZQ/2qtkuIOCkWcTiTSEMt20Smcz26+DKNXG3Prn2AsGU4G3kcDbgJwE87yJfgQTKTH2KQfIc2h4vapnfCKh0BtHGEw3G5bPG4w5xHUjm/mEy3BsOtRUixx3LUfLs3RwsCaUs4Cym1Z5jk3kxE3TQa2YjxmnbUEpKhY9dsO9ZnJKCczm5Oz3NiRDiYI+/BgyWS3RLIbrsJ05usZmOL0QnXG+zHC2gXRGZ/0bxInMCZg2iCNjiXezQ9dYj/sCYxRHcd1wcFU/rRk/QLvoavLQGS0VSrWxUjE2VkoiKI5F4jYLJLpj3X3ws/VsfgdBqBCEQvswkNsyM/exsEgqiy5HEKYMl05s33NsY5TD4WQoDIEzxFziopZ8XcGQShUb9YxnX0dTfARyW6Xvl1fOsgrem0+0GGBxKppanM4W2376/UjCjyR6k8Wvc8ZQchMZrP0fX+Yoe1ashzVmLVk31RhMSfdLHcbjJIyfoeByHYDsoFzg8AOJZtmKJT3bdLHLGo7p4GQOsDV9gA10ZtpwJjGYGjJJ99E845xTl/VWR22cklQLoOrbcJqQxiyEvRtn0IE2oTJGPNWihXopmfkpOJvvrULS/vfYJTOcU1MY2BZDs2zhWrsGb5MQLGeHKkU5htO51N1JUgv4oTwYWTeGETfa/OuUZFtA0nV61l2nv7oaKnE476UiKFxbF1z1DF61ROedrMnPv8I8pFm/zoiex2NVGihFJHmm87MNyjp7vFokB/SKx4/6vLMMx2Io2ByefRily7pggM4OxUI+LECqmdmcTHpGvlgglR+d6U3OI2fbNYA5NFb9WSzOYHMikZyzvY1dSKUwnguM5wIYAnZvLNAbCxQcRoyywFHyLFR0BaFYyI7r4GBK7do/gwj9qdg+5c44Kp7Ruf/tmlnWuuUf9aR6PtY5P5+ZDeQJnstxUaVDY6N8nNJMY9VcK1n42XbiAG5jviOkQrtqn0TUxjIMaXrqEWnMMmmKBJmzTOcSL30i/K5NMRO1khXPT5LN+mr3UamUEdCJmeEYlD2Oq4aDm6aNanH3OZ3U/Uhb39NzGEQ0u2wcloczgXmoEO748FosmNnO03NOBnQm8TjCS4+M79YhCyZLNN3dsi0Gz6EMZuPWS0UetiDRygpCQSqVzlhgMDktJ2GADs5mZKBdXTSGMiMh5sxj5prnR2SUxVjyzBaWZIR5hNlbm8uxIvrcY/I7xzOhSaXSxJGB892penaNTUivxVmcaW0x4FCTzrb5f0zlvDcWcJ0obk/SMKWlO5L731DT+t447+uEQPpuctVaVZaZrp4L6cAPKXR0lMOupHERvNYugqfkpAdQALdSHAoiDkGe+BL9iUBdkxBvDQKSRxjS+NAN8TYIcylTkvLvQG7XZnAdcnU197JUIFfX5XrdLJB47kV47IUYz07LHALQJlgVG9fNw5vCWNxU0hN5ViQVglDRHqsl6GN/ewdXxkhtcNWwcdM4PfdkgM4ob6MIzz0aT9kGUY+EwljocZA+fS0902wkr2aO8pDPnVTAWLvG91ZwWjxGFByWmmtdXAPpkZCbZvL1eUhRFGPj3Kvfo37GpOirwLayKVndNgo2Q8Gm92IaQUTFk/6UuEokFMoembxkuZC2zQ4pj2Wr9DsOVBix3/ui0Z/3JwKuzWh40mSIFCyUPCKSu+j8KAX0U5LUwQkSRtfk2NQdtKvWRrJEi4PuXYHjsr4YFGuIZBa7ksUCx2WVDov1spWZ7ve+oKAzCnuUUZjuMs0CKqpwhnh9pgnIOt2sLCOSCv2JwJOWZ25z6D4LoE4IOYA+dkNdVSdTLBMTUnIZBlN6DgZHLFH7CIxRt/Gm6WSaNNmcwS6QeueqTq/VvzJgp0knZB2p0S5lunmBHywSx12ug8WZZvoaY3Sg9VweOy4bv4HCDuea05j4Ep1xhM6InqNTg2PR3lgtWigV2MpkwRTTm+WkuyUkMA8Tcxfj3jsPt2vusm1Q15HDO0AjJwuggisHIPAyCPHvn2hkzbHpupicUWMq6Tkc9gFI9i7ltBZLiCM/4OvwXfKYhpF6DDSR9JbCKMseR9HZLIdQpRyE/pxYeL2BxRnqJb7zkGOzkdZL1JWchxKT+WKe1jw8TFfS5HVdN0/Pdt3A5HY9rkCYpKKZAV8rBjgHXIvIZL20SCbzJPGNhEJvQjN9b8P1pGl5hpAK0zlJXQcTEcfNGPJULnAMZiJWDeStar4ujBlWXh2EHYvWXcVLOiFph9cFt+UPHF49l0YVbho2GmXrJA+Ms0DhzyDEcz86WAFFpfbatALK1eYlpjtZ0zE+rr3dTghFb6XyDI987b+HgsneLa4eJ/ARLP6+uYsp+CRxMBRDMQ9VJuLOnIXO4+ntBUoBSilISUUe8w4MI4UwovuFXvLfp2XplSLNO1c8C96Wm1/7nL3knH4um7ONsxo3wZfkMY30zIBjf5ATsmKY9l+WsydIGAEyfiHLZXvvbpnpDfSytqwzJ+v6WbD7rmTaNbFWOr05HoCuvYlbMHKMdSEl4Mu/yWTJI9MWQybdjA7ah4KMIB67ITqj0yGNadgWQ71k4aalczp1l6mlZ0IiQd3K4UwS+ZiSeiCI8p9XaGAMoW6aZIh1TFL1tMPrXYsMeYKIZtSHOi6EHF4lHIvhuunguumg4vHczvdsgulc4o/eF4dTmbln3KgHRjOJ9BxlWkFQLVqoevzbUT6+CQbXzqpZuwb7QMGhvOuqJo67OielCz7XjeR4/JFiax5KiD01gY3LqneixBGgmomUxB9WWQXvydIBwNKkslRIXHyrmlSuwl8OadTDWTL3aHHsxHF1FaxFHtMwTH84FbAtyiAsFZIw+7L3N5E0s0t/BtRhzEOo7S5g3MKuTDU5I5LMtM78/a4kmUJs41BvW6bLuHhIPjXMAomnHnUaJ/52Z9kSMhmhO0pMW8oFQyTpd9c+rAQmFJRP+tAN0R1HOzcdySI4A8qehdsWmcF81HU3g/KlAh1upCYf03nizjucCsyj3Zu37AKeS4YwN83TMIRhbNnhNSmidMcRhFQY6cKqZx9/dmEaZDZF2a3DWX4iqIxZ1sSXeO1TlA/nQMHmcRZlrbTaHGUQKQwmAp0RFdjzuKY3Ba0RThFI2mRs30grtoz0VSo9TznXxfYZGbvMAol5tCK7WQO2NgsiM6ft/tt5gdKXVSoFtYH0RgiFiV6jf3TcFkBGPAWHIimMNL2iuUzBYZlwd2WxbJVIsMUZogMUlL5NHtOIhMJoRtW3jsXguUxLW8lox+LAcCpPmjB6LkerQl3GVjX7TpnvdSXnC/lnZKk8X7MrWfY4ruoOrrVbYkZ4815hoiaeeiFe+vszPkhMW0gCZXE6jFY8OsyQ1JWqmvsgk0FkSGOwNQOMPKJU4LhuOrg1HaY1Lj1/xw10WRo5mArM5hKBUJk9gBvZ/k3LwY+6c7LFpHmk0DEKhNSaMNEvFT3zReSDZ1ZFsCkmvsRzn6Sqx2AQJWUSO9HRsRPMzKy7xpSHOpXFAkfBZpAKGM2o49ibiEzP4u0ShyaOH4EzoOgyFF1rIYIiEgrzKC19JXK5iRtz2mXVOwKX1e+CJKtKy1c3+Ic+uHxSKcwCUoJ0xsnXOeg5LLo87lKazFHP3b981OQ8knR1d9/ns396K+QxjUgo+AHgOdTJKrocUim4Nh0OLK4PsCewEToWQ6Ni4aru4KK2mfHNoWG6krWShWvpIIh0Nk/Kqj74oCvp2kmX8eIEc8kMTIftUXfYDi3LFFJBBCRVfhsuksn0zKRjY6vd8UBLdB83kOgeAwoOw4+6g9uWg/oW5drL0kgTLWEKP2bWLoyyYWFfdDm5iDZJtn6KBSWAOm3PfSKOY3+x05aOfnkdUKXcEEoyV9IxE8Xtz9vtE8Yo7Lkf4qkbYjLPnyPmqlAqcblPz1GS+QdDo2zDcxmCSIGBDoynJlm1OEPJZXEHKA+FEqMOKafMs4CkqGcIZTpK5Kv7anNNHLVkNftXYTegriOdXdbaFza8YBLALJSYhRLdyeKfeQ6H5yTPKBk6UafS2tHLjOtigsl63NRx9Tufcmvk0dEyxMs6WalXlgxfWhVQZIQOBJ3oDMJZQFryYxkA5xyoFS1c6WiJ5etwDEhb1V/WaFP0javgNOlK2hz4UaeZneqaHZVjgh8qvPRDPHZDjGbZnVlZJpPmJVgrJp3JWpHiYr5zOA0ihT9Dkuj2d+yYmGW4NkOrauO26aBV3b0RTHq9/qjbC3N2sdR1Rh3pUOzPiMdI129bp11UEpI6TOsqEdKE8lnP86TjXyhLlKNc+P6a3SfOOaaEMKJiu2Mz/KjZ+E+uLC2R1NmiOg5mNMuvPH1VGDMiMn7L+AP8BdJFPQOlSG0wmyddypE+F89TUSKWdZasAnS9jFHOl8eoPb1O/FDCDyklIo2CzePnl0glKfnIAXazD8c5PQe2tZ7j6jYvyUbk0dEdpcsahZaXPzE2SEdGtKvUfTRB9qatv7xg8oRKkeNHzcFVwz656rnZFGtFjnbFRndMmZyWRRslZxS7kIeq4bZgDkKPvRDPvZAc8nIGczj1A+p2pMlkvUxkslok8vPZwTSIFF4HER66IQYTkVnyvGvYFkOtZOGu5eCyfjjp+kdzdiZDazglUjmZU3dyF/drE6nuMSGMFDojIo7bUCMsx78YaaTncFRLFupF+r2k/Qiyct2NRPO5RzOOedwvtwXKdibH8bJHJnoWS42R1Om/S887pwu3fngcbsyOrU2HdP5t1osf3wFLjR00KwkrFBKYR1QsGM3Ie8LMx2bFI+MQINKoNHF85wHP0KWZRxLzCBgujeq5uhBgupTGI8ZbI7XCRHVYnMH6YBPf/qVY/BfZv/63/7TWFuPYlDl1WbPR/oIwrgJTUZvOFcY+uVjR0DERySyfM0sFbXxTt9HIoZX8tqAUMJ5LPKcqxkoBSB9cionzXLlAznPHuAeamImnHsVMHPOciq2d6YzxTr1koZIik/PQkMYgk06J+wLnQLlApPG66aDoZv/BF5II5cQXGExlPDsZRptZ1lOGbdJ1PYY80u9iFpAhzFNvv4oEY5xVdJnuTpLs1XNWc0rfNhY6r4MIsxMmjiae5rrpoPXNM4XxJxjGIyWfx8FkFRWPostuGjYqJ+qPAACRju966UfojQUAhUo6GqbAUXCOk0ppjqkAACAASURBVFwvw+S9vvRJvRREKlOEcRM4hlQWUlmVxff3ZanIY+Z1EOF1QE7U25NvrnZBV+o8ujbN7v2oUWj9Nq3TaeiYo+iSHb0fKt2RFBjPKMB19g1jll2h4NDh50rLc09VagUQOeiOk3iJv6rmCjQHGVJV9JlHcFPVxJomlN+1MM8S5pHCm+munUiYu+lMmkOwIZPNioWyxzHxZfxcnCpxLLpkAnPXopzGrHR6voKpbHqOjXaVCkShIHm6IZLDKTkLhpH6ssjHGClPblrUbTym+I11YbpsJM/cP1lKjLOgD6NYNM9KzVDuem82DuxPvRCvgwj+nszDsgjHJjJ/UbPRKH2/GJ32JzDOoEZZMJoaw7sk4ieL7yrXyFWLHJ7LT5Y4AuQMOg9JAWQyuEcziScdDcMYSSQ9l71rvJSXd84qMDOP0hjmHNHPFgqFUAiMfQEMkq+Tyy5DuZDKqixaUAqw4w4kvhEZs9nF+7Dz6Dq6w1h30K5slzCuAjNMPgslxlrWOpoZIrnfw6jJXrtqkJTk1A8+45nAU5+qP9+eS2FJ+94cVIw8xbXz05WczmlG5/HIzR1WgedSfMRd20XF45CSulSDCckgB1PaGCOBoyeTxgznrnW82aWRpHkrkzk50LI5U1QwcB2Gi6qN2xbFb+S9ULQJQkGZfU85yDK1LSKUVVPs0wW/bbkxR1KhPxF46lHW8ykTR4uTguOmSV4J+zDXM0ZaZnRoOBMYTUUsfT4UOAcqnoXrBnVgN1W35R0TbaT10gsx8lePrLEshoKtsww1Ea+sEA+TZUznEq9D6sIOp+IgERX7xGd3qexZuKjaqBY5IqliibOvo2KSKJPd3OuFzmPBYWiWbW16c1h3UMYAz2XwXJrLCUI7NSOZDmndDZHkDKgUiTBe1U97LgcgIm9C7PvbyJtSZj6HqqALXck9Vr6/AyEpauOxF+K1H56Ec/Bn8FyO26aD27aDSqq7xvUhs+hyXDftOODeEMnBVGLiC4QZjpBYF45NsrN9meEcEjZnsF26v1d1ypwM05mTOhf2okpOql4O5Lq7hB8qvPZDPGY08H4ZsbIg5fDq6GiQeopMVrz1DXlieX83xNvouOX9X4ExoFhguNDeEd6ezl3LxncAkjUcyNhIazQVe52jdFMmbXklOdsCeQ6QDHndqCUhFKbaUOstlWXoxMY9SZey4vGD5z2vAgVAScRxHceEda+8OU/ZFsOPuh0bSklFnepZIGP1Zpw/Gn6tEloVtpFh/qjZaB2YMH4EhkWDh3loww/NhSF562S+HQlG2aOQ6qvGdu3z8wghadj3WUuKdmliIGQqX2cUxfrvLHUlg0ihMyK30FPOJQQAMLKovms5uGs7KLlfF1fSAfc3TSeWUg2mAoMJEcrpXOaSTBp1wm2LOgeneOjhKSOeksdhDRheekSWRjMRO/aWCmQMkBd1waaQiuInYvOsIL/u4qF29zSKC8bw7l5d/uQem8iip16IzjhCcMLEEYAmbzYuqjY8hx9UiZdew81yYuCynB1rTFy2bahl3g+1Un6iOXYJIckTZBZKiC3Ji80anvgSzz36Wmys5ZIssppRfwrjsipVbrfQGJteUhNZEgm1IFnljOn8UY5WJfm60v4yJhlh7MtUE06uLXtl//4//LPKc0V4nsrOMWRysqaW33M52lXKY2xWztUuP6BIhadeNub33p3H0VXJfbxc/FDhqUe5Y+vIRo4RzJDGtoOfbQeeu73DTqhnO+LO5ITIZCSzSybTZji3LeekZ6CBpOD02A3x0g//6iiZAkK1yOPol3rJgr3lLNGsIBIkzXzshfgzPA2ixBl1N4puQiZrJepwKdCc5VNGsm4PDc+hjuNNkyTdWe/8pGE6H+n82E3nKIs6G/G66aBWPO3iPZBkvz73Qoz9/asVLE5dSpK+8oU51H2dk5muSkupMNYZsM89PSa0l0+wHWw4YfjXVywO1EsWfjQc/KjZKG8QC0h5s0mXcuxLnUEqEYn3/w77/ft3nq7/p4hDWI3ZTiqEdXkzMyZAV3UH7aqdCwfEXSKSCsMpVZP/DFbPGts3kkp3Ksvsi0r3d2BmOx97IZ56pz2PA9CB0HM5frYd3LXcnUsQFbRkJ1QYTgT62qAlM2Qy1Xm9zZkZzq4wDxWe18wz5Vx3G9xUlmjJQtEhkpnnazoPFV6HEZ5OyETrI3AOlHQEhefy2MV3Hu43WzRLMM7DN00y3zuGojXNUZJLc5pUrjJHaaLfbhoOLmqnbUYIJGZSz70Qr8NsuRA7FuXJVjwrJpXVIt9aQZ+9s/ELSWZtL/0ILwMij1nG96/Can+TMaBa5LiqO/jRsFHxtu9ITJxqMVJx4hOnOirymIbZrEx7djgTmM0lXJvjsm7jR33zmJFjwExn+D3lZA5nGaYrWS7oTsaGXclIG1o85sDQYh/gOl/sru3i7oCdNaWowOEH1Jnsa5mrH5BByz4f29gMp32ujgN0XwYTgYcuFZ42XTO2pXNjNZmsl2iuzv4iTzQrUAqYBpSz+NgNMQtO20gLoDVzWbNxo02TbM7iOJixjpMwDr6bxsHkAUbmbgxyjpkomTnKWWDIJP3up5yamXbdv2k6uGk6KHun7bAKkKquM6Tc03fd7DMGphUHBZujpvNkq0WOcoHOY6vs3e+RRoNIEHl87usxqowV9HdNFt9D2eP4USdfllqJw9rTogkjtVpURx5hguvLHsdwKkjLr+2MS3quMxSnFVxvYKRUz/0If3LuciekggjIxro7prgI05Wsr9GVNJmEj90AQ+0YecogOSbHXcvFbds5WKC9gek4O0WSPN61HESSzDwG08TNdabJ5C4O68YM565FGWx5kpjtCn6o8NgN8dANMJ1vJ07JGLVMdXasxRlsixwY05miWTR4EBIkU+0G+HPkOa+rwtPFlpvWoo9AOg7mQhu2REIhFIg7Vma+LhTZjJT4DszeSgY51lETR2BxjrKRmqMMIwU/UhhpYx4hFSrF05qH/gxCK2/8UH0jhmH/UKlottFMAF2KEuFa+koydt2lLHEUdX4hX/Fmx/OOEpkoxh2CLC5DKnpOjBprX8VVx2bH23mcBRJ/tKVvf5JIhozT1K7a7VnGLJB47kV46ocY7zGU+lCwOINjkaWx6UrWS1bsGHjuEPwNY5P+s00V4LxIqUxn0jh9DrTU1UjWN7mvFmeoly381GY4Tk6uyS4RCYVOqkO/T/OotElL3ZDJMpm92dZhDbX+DMlQK/3OOWV42on3tuWg+s0uvTHWIjJJ63sXZi37wLnD9jekAsa+1FmfIaQkOV5Nz0RXtxgPkxcYR/enfojXfnbHiD7FVwZ6S14WZp7SOOwvdyGDSFLToxfhbRTBD/d7TbJAFpdRcKigfdWw0SzvV8FwVOTRhNa/DCJ0V7D/TnTbRCLNQ+za7GgOiKFQZFDQo0PeqVbCGSOpUMEmIlDxLMxDqTuv+TuEbBsW1x29toPrRn5I40cwFbnJXC4Y8MxDqtKtQiZjM5w2Bdsfe4dgFaQLLg/dEH5GCi7GiKdW5KiXLdT1PPS+pK6zQOKxR8qFbXVg8w7P5bhpkhlMtbi9eRylUvPQU4HBLJmHzrpTs+eSzOy2ebz5r+tiHlLR5blHRZdlybJlEZkw5zTj6ls4onPaMoJI4W0U4bkXoZc3Y6kNb4lrMbg2R7WUyqf0qGNtZKudkcA82u1CzyJZXIZjMzTLFClI3i3721ByTx4phFzgZUASzO8OFZs5m4qXdCOrOd2gzAHvWZu9TOan7RBq4NrkbGeC2xXIQj9NLsJIITwGH+gVYcKp71ourpv20XbfDZkcz2UcCzLQnUmxRCYZAwo2oznPFWNITgGhoKzXhw5F1WS5s8Y5VbbLHk/NTpJE0LbY1l7vX7nLniIYAwraTOpGm0ntursmNaGcBWZ2Uh5sJvojmPfPTZNc3Y91r10HcYetF+JlsPoIDedU/C+6SYeyViIXUOeA6oNtYRZIPPUO57K6NnZ8vTmjcbNWlaKe/EBiOJWY6rlZsaUK5vd+jMM9bLYF1IoWrhqkiirt0ccllzOPUgGjmXZd6mvL3g2fnfScTXcsaF6ykCKSJSKSWe7IBBGZvTz3zmYvBuYgc5tyxUy/WAoVC62KtSCNMkRyMieb4sxv3N+AxRnqJY6fbRc/GsdLGg04A7jN0LQpv8wcNie+RD+VMykVcFmz8bP9fZndscHkFD50Azx280GQpAQCqRCMBXpjQcoDTkoTMwtd11ly35W6GjL92CVDi2M3eVkFRpZp9tt9FV44Mz4HdF8BIiZRSn1gZijn0eZS9nXhWKR4uazZaJTPxNEgjCg7cjBbLzdZSmAuFeYhmacBiZzdTTuxFznKHl3vvOzlQlJcmh9S7Emmzx97eoyl0nN9Cqh4HL/aLhyb6RlpWuNmdnY0E/BDyrJUK3QB1v8RsrN2pdT7nKS5WKXNp/aBXJHHyVziVdv0jnZoapImkr2JgGNRBTvJuaEKtmNvr4L9XShF1+WpF+KpF2K6BSJ9DDAyzNsWyTC/khw6WhpTLnBcNRxEgjKF0l1Js5Hn+fpanOzQf7apUnVKcyRpxIfNioVmxUIQKXRGETojWu9+qFBw1MoucceKMFJ4HkR47AQY5NCN2UApInuhLhg8dhMjnmox6Uyumjk510ZBj70Q4xPPfjUwcRyGOG4zA/Y7MIY8BYcKhEBCKI0hz2AqyeF1h4Y8FmeoFDkua8cTybENhIJi1QZTcsLfdG9RKnHZH89ojQOkKnN0tqyJ9qoVLTgWMvn+E5KIY2bHaQ54yTijLqQhSGZcoehyXFQTOhMKIo8j7eRMxlvfXefZe0YMpPZ6EIKeFakUrD2xx8yTRz8g7fdLn/Tw++6mGSI5CyR6YwbHjnRHcjEw1dlzJtlcH3afe/mwcd4XHJuhXSGDhlb1exVeQyxauisZCYX5UldyPNdyqJwcGm0rIY2XtdMljcswWVr3nQCvg8T4xeJEGtOSRxPifQpkMpZjdkI898Oj3F+ErtbOwwhvwwhcz0V7buLoWi9TuL3NaX83qpfHLhXr8tCF3QeM0dZtk6SqXkbngw2hvHRsXNbo+GO6F0bqOpwKjHwZv/s3AedA0aWYksvamTgaKB3fYbrBu+zap89wr4MIwKKZniGVda0usw/cFBAS2mVVZstl9cCPLtPEka/w/jXNgFKB46pBX6PiAmUUDmc6h1TPSgdCQS4Q9fysUymBSBfFpAKsr//KVpBJ8hhEZPLy0if5pZ+RF3Q6FqI/ISJZchmqKVcwz+Vwd0QkyZVM4KlLjqlZMavIAgoOw3WDsvcq3nblhqa69W5XUssds9qVtC0iwT/bLto168uOyqlA6o79QyfAQydEIBbnXA2xeBsSsUiTyUbZih0+bX58ZDKIFJ56IR46IUYn1FWTceeCDrS/kax9c78dC+iOBLrj0zUfW4bprN1qB9G8GUuluxdXDRsKdBALQhWb8QymEhNfrDfGwBDnSl/WbOrE5uvS7AzU/aWYJT/cfxHW7O9+GKEzoq9xjvg5qKWMeUqF/bk4UzFLwg8kgjADnceMPK9M/+K6+POddWRGmAoOvccNhKTi0XROc5TUrRTwA/p61s50y5CKiiNGtrovZIY8RkJhMJV4HegA0G8a3+wLCZEE+lMB12IoFhJZa63E4TnbySz6yo3sVGHysm5bLm51gP2u97p0V7JZsSD0rGRa3jr2ZZy7cyjYFlk4/2w7aFftoyM434UCZVHddwI8dEPM5nIlM413yaQF6kiWEjJp5ZhMUkZhhPtOiD/D/cZvZBWma6GUQtFlaFccXNWdJBJG/wrWcPE9JhjDLTMecAydNYbUGINHpNg4vM5CGUtdTdfio72+YDNcVC1c1hyUzpEcMaSizprp8mbFeCuekw7pPQ4kLu2uzWK5a720uzlKIRXNOx5aspqxZ5Uxiu4g2ep2Px69sxk8h6NVSb4e6bPd2JfUqdQzlWGkMnUGN3vTvo3BDkoejRHDcz/ESz+/rqBSAr5U8EM6SDip6lVVV6+K7npEUkiSRz316NrkMudnRzASzLuWg8v64cxeGJKqdUl3JYXuSvYPNCtpW+To97PtoFU5k8Y0QqHw3Itw3wkwnG221xgy+WcQ4c8gIZONVGeSrPizTyZjQt0N8dAJVibUp4CFuJaWg4ImRwWHikdK0bMwDxX6+jDcn3xOKo4FtkUH6judf3oMxPEjMEYjEY5NBAJtJzHdmidkkjppEgxAo2zjR91BrcTPio8UqFGg3c0z3tkx8towolnpJyRzlCYaKO32umkepVTALJSYBQeSrGb4MeUM4JyBsy2zxw+QPtv9qBNVMrPzce6slr+OfaFzZ3f/uZZh5h6peKmwr5t4kKiO6Zy05y+DKFOVp23D2El7hkgWExnER0TSDxVeByGeexEGR3xtvgPXZpSR1XLRKGffCTOSWvq0h66kbdG1+dl20CifSWMakVR4Gwo8dAJ0x3tYU9rZ0+agzMGyjYYuIlkZs5GPpEJ3JHDfoRGB836TwLYYmhUiRxe11YtUQhKhTHcmhxMRz6UcA0wB77bl4EfNzl2c1a4gJM1VdcdUQCgXOBplyo4+z5kn0RyPvRCv/TAzI0nbgDHgKnvWAqn0TDzQF7c/3TB47keYh3scS8r4o2lxhqrHcdMkhUPWJOBSEqmcBsb1lUjlLNh99qyZN79u2LhuOCgV9nNt9tZ5nIfa4KWfw9DTbyJtJz2aitiMoWbMdkoWyvpGj31yTH1dI+voFMBNZlh7v9bv24DNGexCqispyQVuoLsT25iVtC2Gq4aNn20i1FkiJoeGVEB/QmY4L/09EqNYRgL4/QivgwickTuz6Uo2ylRMsvhhyKRSlCV23wnx0A33e1DJAVyb4brp4K61fmRLbMqiTVKUrgzHUteJ7lAFUjvk7e7n2AW+S6pPAYwBkUhMlYJIEalImW+Z30/FfCsN03Ukk5xDf5rtIm3A1U3PUXJ97itZqGtS+d4cpVSKjHICMm/Z+X6co2XLkEhXGdtfHMWq4BwoaGfnZjmZp4xk0rUmh2eaqdxmXFAsW9WRHVIB+9iSd9p5DCOF3oSMb95G4kyKNEweUdnjaFdtSEXVuLGvA0/zdprYAdLh9VeN45JEKej5ikjGJHIwIYc/sWJX0rEZruo2fl24qJXOpDENpagY89AlM5ysSaMY025/NqN5yTLNTVb2RCYjQTPU9x2aoT6Wbtg2QO6YFHB/13JpjnoH98McKgaTZHZyNBNx1zKrcPQs9W3LQbtqnbtpKSgF+CFFRDx2Q0wD+e5ebta/a6czRzkqxeM04DKIBJ0Hn7o0U30KDYT3EM9Ratk3/SKPjLdhhKceRdHtbB/I0ZI1H9XmlJN63SSJvOfke5GEOlImdn2dCYxn8tuRQUWXjLmuGw7qJb7TfZnpF+LWyaNpvZs5xtnZEXQBJiz4pknzeq4OOg1CFVcm6EE6LpnTqnBshouqjbuWg2blNA4nUgFSKox8icEk6UrOQ8rtSa8f22K4bTr4eUEdkTNpTJA2w7nvkBtxhs/hMdKHyXRnsuJxPeOxne9jZszvOwF1RZYcZk8dxlX1ru3gas8ZqFIBQqT2AE0owwy5ODt6nvqu5aBZPTs3LyOIFJ77RByHa2aicgZYFkPBYXFMjFEm7cvpc5cwxPqhG+LpE2J9qjDFciM7HPsyjgYzhGLjPSAnz9B7H5Nk8jZumw4uahYKOSeP70HqeUo/kHGMyHCm5+e/cHkuOFTUu246aJWtjccI2AoV062QR6VojvFlEOG5H2K8y6pJDsEY4Dmk175p2SgX3pdBGYvwULt3mgdoW5lTWQXTDqY3zSRqI+8vy+8i3ZUcTCT60wiDicBkLnHddPDzxK/PR4iEwqOOl9jUDOfQMGTSHCQbZfpVLnyfTIZC4aWvzYLWPNieAkwn/67tol46/Dy1MeKZhSqOAxpod89V1QnbhGMz/KjZuG07aJ5nqv9CKBTehhEeu+HW5qqN5LFY4AsdynTuaF5grs9Tj67P2cl5EY5Nh/+bJnX0jRTcmDIZybtpLviBRCSxlE34AXLynHz2MR2LoVkxiofjUqJ9BaHnKY30daS7lX5ISkWl6PzcrNi4ati4qNorxyWtQhI//LubkEc/UHgdUofRVEnPSODYNBty06DZkHUf+HR48XAmYkJ5LEQyDpZu0WzRKW0IqyKMyAWzN45Q0ocIMmDg5wMcaGP9M4xw/0ZmOMdIigyZ9BxSLZjuZLnAv8y8MpL4+06I53543qOXYAp7d20qzHhOdmeqhZ5pGaSk7oPp7qWujs1w1XDws+VoB+GdfatcQkigOybiuOuIG+PeXPGSYPt6yULBYd/Ov9s1jOKB5LwB5lE2OulZgckfvGlSZ63iWeCfrDEzQ+0HRq1GM9TT+VIOaQafhWWs+hEdm+OiSoq9VuVs0AUYfkDv99GMlGqVIsdFzUa58PcDtAlRfA9rk8d5pNAdkVNqd3QOSl6GmZm50YHJpcJ28p3MgzLSJNJIXPNIJE1w/e3ZcOFdmA70/VuI+06AqY5OYAzgLJE3Nso0L1ctcnCWf2nTOpAK6I3JQfVlcFouoYZMFl2mnVzpOSgVGCyWHCBDofCgDXHGfr67sbuAkYr9bNNcdd72Iam7kxNfLpBJP9yS1JUBrpUYB51nq/+GGdN57IZ46oUHmeMzLp/VopWSvJKjexakxUGk8Dogcn12kP8bFmeoFClP9KbprNw1WkYkqdhs5I4LzYYMFVVX/+mS/9K1STJ/23LQKFu526t3DamA8YxiD/8MIzAGVD06G1aLFsre5jEyy1jJbTXUDlkvfco0O2cO/g3XZmhVqXLUqm7/4abMGaDo2mhXbUSCNomBrjwNp3rYVmZ3jsm1Ga4bDm7bDsUWnCvYC1CgF+392/sze0oBQinMAoVZIPEyCMEZQ7XIF+SNx9yVVAoYz2V8jbL8vO8Kxl1tNFMYzQI86vwr05mul2j/eR2Qe3OWAo2zgmOItuEM4FZSSFKX2uE7XHR0Hq9hxGVgTN2MKqRynq/+C0oBfiDxZ0iOyociRWmXz7dhlEQFWQz1El9weN137qyQiIsbo9mZOL4Hzkn94Ln8047jV7A5YLsMRZfki0ASGzScpbNIU3OUW/oZVsGKQsoP/8TitOedt6EEsXmNUrBtBkvzjvGMZucNjEFfqZBKeyha8FwGx2Lg39jcPySPQgJjnwjjS/884PweLH1gu2mSVr24pxiJ2Aq+bqNliKQhkXqT2Gcw/WcwnVhzCMmyLOxQUIo6+vedAPdvIfwVYxOkBCQUemM6KP5++7srWdOHvrxf87QZzu9OiHlOzHD2AakAKRRGM4EglDT/0HJQKrhoVmz0JxH6UwE/yMaecEiY+eqfbRd3LQfFLSlDsgAGejeUCly/lxwIPRc1mCURIab789GzYK7RXcvFXXt76pljggIV1V81cZxHGdqP4qggMt946UcLc9RpuWvF250hj0Iq73QiDhN6n3GQmggouqQksbb0ojakwraoUHbpcFzWDKFUEEJhMpfxeXEwTc1RbvEF8Z0u47t/qlVX/ITZ42eyU8YYOFNw+PuZokIqiID2AxMjA9BIgm0xTSYTUunYRCo/exwXZKvGEeu5p41vtFHLGYswLfSbJjmCZqWFnlSZ9GD1dDtZgt+BrW2o71pOLiVhacz+t//83a8X/+U/bvTvmvV23wlx/7bdWRCuu1EVj8dkslm24Tr5k7cKCTx0iViPzvLLd2Fxhouahbu2i4vqYidNKS1r8ZNuVH9CMxKnRCY5B2pFclO9bTon4eS8DGPEMw3+NuKRkjoRBYeiSn6291cQzRuMAdVDN9TEKH+LiJtZapfHHUqSv28nMiiSVNjcxyxoXmHpd/RNi3KsC3twyXwPUikIQecRUrTR7xPNAcSaL4lNu4wL/5UuZt22SNZb8ej5PHasey/noSRTqn6E/njFKJx3vgVnJHcvOJpUlohUVpakr+z3799qHlLu10ufcr9ONX/nM8SLvOngRi/yLL9UDZEca+t3o4EPQpK27urA6NgUjn3XctCo5NvO/SPS+B7WIZJKAVMd0H7fCWLHrF3BhOq6dkIkGznoShoznN9vAXpHaoazKRijzv7PCxc/Ww5ch335Sjby5/EskTcaMrkcDXMssFMxE+1qPmWqu4Jx8zNkknPgpkkqkfN1+huRUOiMiBS9jY5r3pprVVM5JYGvlSzqiq1hyKMUMAskHnsUXTI7K9fehWMztCpJBMV3C1rbNkMBkkJTaEakUm6vsXIh/RlW/7RrfQ7GAM+lmdDbloOS+z2ZZZaxjfsXRAq9MTkad0YC83Bpwa38Ld7/Dy1O79GSS9JX9j//H/+vejsb33yIgsNwWXdw27RRL+Uzd9BkiI39JJB6qI0VpFQby20YAwo2w62WguVd5rQOaXwPHxFJpYDJnHL2fr+FB+v6EGGkWcmETJK9cxbum1TQMtwAL/3oTBo/QHpur1mxv33vTGdyqKWNfZ0zGBwBmWR6/ovcVF2UvXzvTbuC1If9+w4d9oVUqHoc9VTuqGvTTNYpXz4hgcFUG3X1T2Oe2MxJGkOemu5Sus6iQVcakaCGxDajS44NjBF5NKSo+oXL6vv/xv5Xo5AkiTbnSeP2GkQSQgDvT1J+/3NyRlL8mxYpRjw3/3v4Lu6bIflPPfI6mIfyi5nWDbvc//rf/tN5VS+BNMDUZbxufN/9KouIieRcpqpJyTzUOud04xJ2pxd13u2TNyWNH8H7r/8RYx3OnjWTlyx1JZVCZq9TlsA5UC5Y+HVBuajb7u5LRTKm4TQVWK8VKXkik+Y6/dQxHHks/O0DJkrhvhPgoRv+FUgeR8W4SYD9prmjeUT6Oj12Q4TbCG7PI1hCKOup+cl0cX06l3johnjo7l5Zk1dYnKHskR/E7Zouq4cgjZ/BmDZN53LB7XU2X/9chjNQgAAAIABJREFUuQyuo2lumkbamz8p/T7ul1EaPvVCPPdCag7FC2/735/9D//L/6NCsducqFxAd8+uGrSQTyHPKm31bojkYCrhBxJCfezOZ1sM7aqFu5aLdu10pKnbwP/e+F/3+v3WhRlMT3cldz0ruWCGs4Zh0CnC4jT78evCQXVPDphSEbFPz0sOJhFCgcySSYvTHvWz7eKidpapfgSpKGriQXccw1UKNgywmCYPZSuOijmEm+e+oBQwDxUeukSwzzLMRZgCg6PdfytFjumcZrCi8/nyXThW4tB/UbNhW1//nayRxs9gzpfzUC00Ksa+RLSG+7PpepvO41dGLlnAIe6TlOTE/9Qn8jiZy52aVLF/93/9BzWaUaUgCKkdfUrrnOysKXz0qmGfbFC9WehUOUrkrbM5EUmlaLMz1Z/qkURt/Jt/9S/w3/5XxYN87zwQyV13JY0Zzu+3EOOZOKm9Zx0Ys5efFy5um85B157pTKYlroOJiDsxByWTWqZ623Lwq32OmPgMUlHA9H2HMgo36fRzTkWnipcYr9RLFopaYpb1w95XCIXCU5cyU0czeSZDH8DiFA9y26LsVM7ISTxtzjT2yZzplN1XTRSOIURfZajmiTR+BjNHSQkBadmrmaP8+++YItVt08FVw8nkGT0L90eBTHNeehGe+iGGU4FoR2uMAWD/8f/7ZzWPyOZ9OJMYTQVGfj7D51eFmdG71qGsx0KEtgWzwGeBivOZXJvpANvjMlH4N//qXyz870MRSSAfZHK5K/ndWUmpgNd+hN+dAN1xdK7ifwRNhn62Hfy6cFEuZE+yIxVVPQ2RpM6koOqywt6kx5wBxQLHz7aLX20Htv21edCpwswV3+vZvW2/681eUXDYApmsFfMndY2kwp9BhPtOeDbu+gRmhu+u5eCu9f588YLb71RgqPcMU6Q+lfcA16ZEd20qxrsf7FVZICX7gJG9jmfk9GpIpfFiaZQt3LYc/KjZmRmPyuK9CSLaq556IXq6oLsJPvsJ46gOIWnIeTonN6XRTGI0E5gF8mhkB7bF0CxT+/uydrpdxlUgJNCb0MD72zCCay/aeR/LvMsyeVzGuSv5Pj7qStZLFlWlPngulAK6Yzq0PvfDkzksfAecA60KGeJcNZzcrDWjYjAurqZDKdTuyGT6Wv2oH7Yzm3VIBXRHEe67If7sMdzedCfNO8TIXSmkOptGPEICvTFFcrzu8VrlEbbF0KrQIf+yZq88Y2z2i3F6fGayPUO/LIJGfyju7bJuw35nv8oiOdkn0mNVvbGAgkKzYsdRHft+H+bhfoSRQncc4akX4W20WlzHd3+qhZxHg0gohIJmIUxHcjglFrs8TJ91cEa5VSZio3J22/sUUSq/qr+UXxUbJyxVkytevonkVwTS4EwkP4Yhk7WitdCV9ByaT0ib4fzzW3B4eWOGkQ6y/3VBkQk5eG99CKlDy2MyqbuTchtkUs/f3epcwnrJyvW12jWEBDqjCA8dyt47ZFHYZNEWXR4XnuLCZAakrmYe1DjQng28PgbXcQp3LTLx2nTPMsQhPUIzmAqEB8is3jYYI/JoXFaXJat5ICn7RCQU3oZ0JiUSSe/HdJSMUTRsu2iYt3sRSZKIP/UivAxCBOF341S+xrvk0cC89P1QYaQdlEYzibEv4k5lVuHYDM2KFQ8j5zmkftf4jhmAIZKxLEn/quZQlrQqeUzjLG/9GHFX0mJoVCjiRiqF+06IeXg2mvgMnAOXNTs2esnTOloVUlGFND0vOZhqMrnGs2Hyv361Hdy13cxn7x4aQgJvwwj3nQCdUfbkl0bqaluJEU+jbGnzuv2+U0wW70OH5hznZxOvT2FbDJd1ylFtVXZjUGXOnEbS2Ne/Rxk27noPRrJ623Jwl8rmzRtR2RdCQVLMxx6Rx/d4h8X1vqHJpPl9XVVD3u+BkMDYp7iOp160033rU/K4/KFMtosx2BnNyJlzHeekXYJzCsy+adIQcjHneYO7hjFMeOhqw4RvdpXNS991GEmRdAU5L/Mt3yGPaZyJ5DtgVI3+1XZpVs/jGM2SQPreWMQ5RHl56e8SjNHe9evCxc92Nk0BdgWpaFYjkbhGGEwllPpYssY50CiTTPW6cZapfgUhgddBiPtOmKsZYyN1rRb5gty14Owuc1IBiCKF+26I+06A6fxc8PoMFKVgxV1H29rPrLECICUQRBKDSSrDeiYgZUZHrfQMO8l7XVzWz42NrxDGargAg8nqZlUWZ3HMR7rBYXw7DE/MO2FMw+T1EnkMd7p3rUweDZSi1mgYkVvSaCZ0rovUbkn7rwA5NsOF1o+3qtZ5MX6BSCq8DQQeegG6o+0G+MZE0k5LW2nxZplIbkog0zh1eStnwI+Gg3+4oCr08t6sUmShN4liKeOpSlk5B64bFGLfqpy27NIUE+ahXJC5DlNk0uIMVw0bvy5cNMpnN9WvICTw3Atx3w3Rn+SHOL4H834xmZNG7lrdsgP0Uy/EQydAfypyfb12DgY4nMwH77Rs/JDrUankAD1IqRom/oENeVjym61d6+9aTtxVP+N9mELOU884HYuNXHo5Z7C0sVotJpQc5YIFzpH7e6FAZ6sn3RDapTP02uQxDSNrnQUU7zDUM5ITn/JFdln5MQHQZHVs534uaNdQoHtlZDhjf/cvxfdkSOb3rBHJbZLHNE6pK8kYmZb8uqBu0CrrUen/M9Rdyd5EoH8iXUnGqGL/64KcVLO0HrIC8wz4gYwlrrZFjo6ee1aWfAUhgUfdQTMdmaOCVjhYjNG7JTU76Vjrv2OMtPehG+BtmD1pb9ZgcZIK3rZd3DSdd41fDg2lAKGAqS/Qn5J/R38i9HjOHgx5Us8gZwylgp4N1ZJVfj64fggFGnF46NLc8S7OrWYEyzQ80rJXixPhzNMdCiOFF+242p9stzmUxkbkMQ0ja40NdnRHMogUxBazI12b4aJGwarNirWyo9epQipg4ks8dAM8dkME0WFmAwyRtCwsSFsbJQvWN17y28auyGMax0ok0yToHy7cjYo4J9GV1AfeuxYZ4tSKp91tXAVKAYNUJmHBYTFRaJSp8/SZy+8pQkjgvhPgvnNaGarUgWQoezwpWJa/zpw08SUPnQBPvQhCnQ1yPoPJKrxrfxzNkVVQvBAZIqUNeebhFtVz71wLm5MXx12LXKHP59fPoRTghwqP3RCP3QDTFfw4tgGmzbwot5S6k4ZUOhZ9PavvmkgAnTElJXRGEcIVHFe/g62RRwMjaw1CpQlk0pEUEt9yLLM4Q6XIcdMgx9SzMcLXEBLo6gcocxbjplrME+mRecnbBySS+yCQBv/Nf1k86JzWVsgko7zUf7h08avtouBs/8apVFfSdCb9QMZ/ljcwRpX6Xxcu7lqrdWdPHZ9lghpzppLLY4ffepkcoE+ZTIaCDKruOwGmvjwZ4vgelmOF0nJXQyaNG/RDN8D9Gzmr5nF/2ScsztCuWrhru7is7cYkZ58wDq8kd5ULDq9rGfJ8sOcwEHm8aZHLav0sWf0SxrjqUXceZ8EejKs+vCUkeeUcqHpJh7JetuA57OBqOjO7aZzNn3ohXvohArGbItjWyWMaRro6mct4LnI01dmRX5nsaLfGq4aDm6aNRjn/m9M+EAmFp16Ex26AwXR3euetQRNJztiC5KhRsuDY+1mMUgEPnRD/7r/7T3f/zT5ArrqSaTOcSxdVbz8LUykgEAr9sYg7k4OJyIW81XTejUS1rMnNGZ/DkKDfb2Rc8tV9NkShXOBolG3aU3T8A2PZzBLcNoIoRRxXuGYnh9Q7p1ak56RS5JjpQ+oqbuOnjjiaQ3cdPTdf0r5VISW9c9LzkwM9B/suofzkInDGUHIZ7toublsOCmfJ6peQCpjMJR47IR66we6Uc58Qxq9gGiFFly1IXneZR/mZyY+QCqNZYpozDxXUDlrpOyWPBsYVKxRKk8ikI7mc22NxhlpJ5zI2HTjWucv4FZQeEH/YZ3VmF9AvdYZkfsV0JN0dEMn3ZF2d/+m/2O43+QayTCQZA66bDn61XbSr1p4+1fv4qys5FvD1rGSW5GZmFvQfLlxcNf42EDrjb5hO0O83Wp/fteI3ZLLiWQsSxnKBrDqP6VYoAPNAxXuaf46X+BKmqPOzTYYvFmdxDulgIjD2P3f9PVUY06q7loNW9Tgjhd6DAqAk4IemMykxmGiHV0WE8iNYnKFVtnDbdnB1lqyuBJO1+tglr46t5cxvQBZXAddnWdfmmkzy1BzlenmU67rBSqUwmys89sJUMWydi/bF9zPmT/sgj2kYaYAfqHgucjiTmM0lftTJMdUMqp7xOcyMxqOJ2jimEGMGcNDCqZe47kbaqJc5Cs5mXYTIdDM6ASb+4gErC+QxjUMSSSAhkwsEqGln7tCtAARhEkTfn0ToTQT92YHWBGPkBG3iSopu1q5aNqEU8GcY4fdbgLdhtNWDuyGTVS8hko2yhZKbbzKpAMzmMu44Hmq2PW8wJOhn20GzskiCjCFgmkwOpiKWtJ7q9U1Hc/xsO7D2FM2RVRiH12kgF7qTEy0Xl0qBgZ61m5Qr7Vmy+jWknnV/0LPuG82j7pgwrvKvmPiQeqpDWS/p5oiOHto0OoR8IyQeddbjaPqR8dcn32eFj7B38phGGNHG/DaKAAC1Il1Mz8n2QOqhISTwMgjx0KHQ1MxLU7cAzgAwekYaKVc9z12dSIaRwu8v5FxZI49pHJpIFv/lPx70+68DBcSueulZyX11JRkDftRt/Gq7uKhnj2xnFUYN8PuNnPV2fUCPyWRqX2mUyFwlL+8fpaVd953zvN464BxoV2z8vHDxo/5198z455i82sGEguqN0ucUrrkxErlLkaC8rJNdI33oNy6uYz+Zn5wFEu2qjbv2WbK6KqQCemNqkDz3v9EgyQBh/ApmVrJismyLFmra4MvS620dGN+Zlz51Hslx9YP/eIMfYO/k0bgpGj3uaCYhlYqtcmslCpevaVZur9niPVaYea+HDrlOTU44uHjhwGfMD8rJgS+9HkxHyki5VpH0ZplApnFIMpknIgkA8yiZldxpV1Kbt/y6ICfVc+bsalAgV2hDHA+lojB7S7pI1ShbmY2CMvJec92+K+89NXBO9/hn28Vd2/mW7NLMWptMUtOhTGeSHhs4BxolIkA3Ted8NtP4qlskpEJ3LPDUJTl5kjFoaSJ5XGH12wBjDEIqdEYRHroh/qxq/LhDwrivO8QZdSKLbiJ7rZUsVL3V8igjofA2jPDYC/E2jIg8bvnD7408RpIOb4+9xP3zvZcc55TZVPK47kTSxSsX+MHdjA6BnWm+jwQLM03lhEwWC1wbR9Char7G/E9eyGMa567kehhOdabkFruSjAE3TTLEaVUOOw+aJyhQtt59h9zhsrS/mf0ldoXWJjxZcPw2M7/3byHuuwGRlQxdu6yCMaBU4PjZdvGz7cC1t3cjjYSxr7uSAx03FIr8S11NNIch3MaE6pSxCuFTSkFIxEH3/YmIpayMMdgW0/FlNJ5TLxnX+cPvMYdA+poKqfBnQOTxbRRBfEYe371W+SGMX4FpQvlXHmXRgm0t5lEKqdAbk+Pqcz9CuIO0hZ2SR8pokXjqUWDlxF/d/TPOBeSIu5B1TSYLzud5TccAIbFQcTkFaeqmMAe9ZtlGq2phHtICmszXywnMI3lM40wk10MQ0XPy7a6knqEzTqqnVuDaBEohdlMdznYvU90IzMykgEhkKelMunsmk0oB/anA/VuAx154siqUdZEmQD/bDko7dj02UteJLzWZpH1m3XdSFmBxaNnlajLfY8eqnUKpyOPjvhPgoUPul/KDKg8DNUhcR8eYaZOvOFYmZ4H1q+KjaxkJhddBhIdugO7onRGtIyeMCd7/RCQjp4ZbLZVHWS1aCIXCcy/EYy/UcTNb/kS7II+RVOiMBJ5728kY5Fr3W9ALysxG1kq7s8I9BIwr7UOXNpnhTJwPBSvCVJN/tV38vHBg64diOpfopeZTxrPVoh3yTiDTOMtb18NgaVZyFsiPOzpMR5Zc0PzPGatjFkj8fiPiuKssqp1Ck0kTM5T+5di7O+QpBXTHAvedAM+98CjlkTuBdkC8bRFxbBxoXs+M7qTJJMU/KEggk+uAMZLQkSstZfoeybFrbaztfikVuhMyfXnuh5BSrXyLyeqBClPFAo+lrvUyjXcxlt/z71fXUWlzzedeiHvTsZVqJ4Qxe5fwnU+0xoe0dXTITZNcfUc+xSVO59TA28Y7Y2vkUeq4iKdeiKduiOmOspIMyy57fMGxqFhgsHLa5jeGB0aauo7E8tRBklWOu7aLX+2P7a9N2Kx5WfcnAqNPiOQxkcc0zl3J9RBEiuSt46QraR6XRsnCP1y6uGs5B/2MeUR3LPD7LcBTL1sy1Y2gyaTFl8hkyYK9JTKpFPA2Ionva/9MHNcB58CPGhm9XNayE5ljupODJTJpolaysD4sDlw1yF21VcnOtds31iWOZvbVnO2MZPXL7/PFnybjOouEkqTE2SaUq15DQx4f9LUbTpev3bEQxg8+ySZmNozkrbdNB7ctB9WiBQZAKMAPiEgOpjSfPZoJCIUPixoffYyNySMNZgo89gJ0RmLjLuOqMLJW28Ki/rdkwbES29ssg5ykSJr63IsgzFvkjC9hDHN+th38bLtrDe4r0ALqp4jkYLooVTxW8pjGmUiuD9OVDCKFi6qN5nm2cW086Jic3kQc936nyaTNGRoVej81NaH8TsabAvA6iHD/FuDPMMoEqcgLGAOaFYrkuG06mSY/ZvY6LnZqUmlk3fu+7+l37V3bhX2CJjnfNbNRSmFmJKvdEPPgY8lq/L2+8Sf0GfV8djGRutbLFoom2uzAz/z6xJuy4Y0Sb+xLTR6//4NkY9lvnyy+90/ZFsN1g8jjR+8cqRSkpOtMZJII5WBKXO4zTvIt8igVafiNY6ofHtb5k3MikkWXL4RxVr1smuwICTxrG93uODpLU9cAYzQD+0vPrGy6ISpQsDZJFKOYHADA2/94/ATS4NBEEsgHmeyMko5ZwWGxiYohBYd+QWcZ81DhdyfA7z8B/OgEC2WaTDrWsszV/rLYqRTw0o/wuxOgMzoTx3VgDNV+XaxfaMwKjP1+mkySBb9aaQzju2Ba6nun37e1kpWRA/j+sIkLqpSkXDE5hVJ9LFn9qtv4HTBGSghDJBv6fOw6PJ7f3iU2uXbGydh0Hqdz+S2lxeGf180kqN+FzRku6zZuWw4uqvbKBUsy/SJSOZhS0coQynkoISQVRdYij5FQeBmQ+U1vvL8u48rQGx1fGh6tFykP8JAmO7QQqIryuMFCOFUYx8NfFyQT3NV9nKeC5v/xv//PdvNNcoBDk8msEckgUvj9FuCf30L4wfvVnpruLDUr2vHXzeEpdUfoT4h033fD0yONH8GQSZvp4oMdE8rlgudjN8TvToje+Ewc1wFjQMGhWb1fbReee/ij5DZgupOjGZFJo56Z+nKrZDJPHdttYxth7VJRLN1952PJ6i5I46f/IkscO02HslGyYFnba7RsI3ZEaonlvY6nmwXrzYoeFuzT/7kPWJyhWbFw13Jw3XBg8c3G+qSk53ms5ye/JI8mKoK6jBGCMB+kx8haE1vbpCNpb3GRfAWpKBbgoUudRnEOcF4L5J5q4eeFu/eX17/5V/9if98swzh1Ivk6iPDPbwH+DKKV/47rJITg1LuST70Qv99CdMbRmTh+Bk0mCw5fcHIdzyXu3wIMphl3o80YzBnAdByrxeMu5pgCdUwmJxEGU5l0u9Z8dmJn2gsXP1u7d6bNErZBfpRS8EOF+06Ih04Af0myum/S+OF30vuOpzMFY8mrcXhd46NsM6tSKjI8fNCS3yDUhlIffe+tfefv4DDdxc++Ff//2XuzH1my7bzv2zHmnFmZlVV1quqMPV6YAgTJhGzaIiCSkmjKsvkg89EP/k9oQJBgyKAHwDAp07QB2jAoyDJFU4Zo3kGkLgySgAE/SBC7+/bpU+PJqpznmP2wI3IeIiJjzviAe/tUVkbErhxi799ea32LIShlGbyo8riqCuBZbz1hNsKjAUDTDDx2VXw0o4xxbhVhNWBdNtlhUMg4/3LYlW7QRed9S0ZzkKamOhUhQLXA4eUpj4sTPrQbQwqQywobJIHgYHIi67gx3UAV9bD73zFGJRXNmLmpjqX0BuhUDEOdfM8rPBTNQNfsGdi1TJviOyUHosW+qyeF40u3tCKQi3X93RFNPQP2RycJAeolDtc1AWcV7iheP2/hh7aAsgIHxkLKqtu6xqBk1UjmRGapXUgxy85gc/5cf8ZsmIGru7aC+5YyS9FeG6svV9+n8GDR7mUIIciJDC6rPK6q/Cz70itxiz9oOm06/Nim+dlKQhrS6+ZddDDRMJxq+NglS06tZbN35OqXwqkM0NTeB/PDPpimrTacihDgtMjh+lTAeYgTVr/fR7fbDenq0dU//uPJ7N9hgeTkBz89+7dfIPnYUXDzLKM91Dw5X98sRv/wDNpyKM/iJMFRyf5Yo+DdklPIcSGWIbO+oYUM3Wi4qNDperLB7CuFyWURApyWOFxU+KMERwCzmrZqgUXVNPaynN0XYXJT+yqrNYcV/T6G189LCDIMAGba5cTcONtv9RKdV9kyZhpOdAwnNHWUmEGYUpaWg1VMoKQOr/5ApKbP0yUXFQlgDGAQh15C1YzZ/7wWubm5NVTdwGObNpPsj/VYRxntykppyQhk5tTqNlRvGMBwSltt3LVplCIJ0B2kFnc5zyvc/gM81s3Nzdbf/dFv/VKAI4mvwo5KegGSw6mOD88y7lpyYBs/SYtKNro0zbfZt5/mm2ouniN4eUpbD+XE/Z+FiayjM1yAyYm54XGscxChbXSuT01TtbDHE2EZABTVWILJ3ohmml0cSdTWD+gxDGCq6LhvKbhr0Xq9nc2C4ygz2MIQMq+dNP+bEcisP6VbLXYjeGyH1ZYoWGB0f/rNkVCOodkXVzUBlRwLxuXSYtN3hPxfP/7a+NhRoB5rLR4BGNAXp5hdSGu1euZgO0jqBtAaqHhoK2h001YbbkQIcFbm8bLGo14OBhpHoxFarZbt56fw6FxhgyTgHCZvmwpumjL6Y2+ijW4k8ASVHIuTAo1KljeYp0RVmg7cNmXcNmUMp2nKhRuJvAmOpwIyvLs33oosWf/rHxNMEiAvMrg2+/7yXEy+PBGSYZbc9CcaTVvMs8iJyax39C/lcu6yet+2etmufgGT94rS7D2zhd4KUPKcM4dXa31931LQCKynbbDpqO5ObfMoQvuznpX5mePqLqdpp98F8hu/+6+OYUqxJSvPm2fJUu9I+sGfm+zMmr62ZHTHaWqqGxECXJhNh09L/kLjrqiiXaUA6V5RB8neWMOHZ9pLKmqKS1RyONVx05Rx11SOInPFD2UFZpaqKngIPcPpMkwOJuFtjvgtgaMGL3ajtqnWpRvAXUvGXUuZbaQtprBapipxRh+/oNGSYRh4aKu4a8voDDSsV+vF+dXboY3sRWYOr4ufn0qO3ekAqhvAc5/6hjz1/HSZDi666PzULgazcAhLqFvyVc1yXPXus5/C4xYtFgxbAJkTGfTGdDdpKsfDdTZqskwMrmsCakXvG6xPp1M8PT15ft5FpSDpXlECSStSdtOUMYpBpCyqUcnnvoqbZzrBp3KnfIbBSzPNkrfZj8utBhZMDlV0xxqGk+h/9m2JYNb/t5L3fm45FrWHGu5asmnysvw7a93JMnMQsKCS50gskMh/cKT9Ce9aCu7bMsbSYspqHF4hF1r7s/ZXdy7W1S66vFq/MwzaD/2upfjQ2zYYYPQdFvc8nSF0A/qqyuOyKoBnU3gMTAwDVPK00WZeZNAf09qA3ljDRNZnhcWp9ogAV1Xaa+uk4N3Efnd3Bz3E0G8KkocpCjD5o8r3wx6CK1mmBdWQopKGgVnvyyRHs/xWMWuBYzgN7AcTCpMd0801Dhspm3RR4XF9yqPucyZLkiWrtLXEXYs6JNtZ21hr0WKWnTlzVvLszOgpSvIbHAHL4VY1X0crm2W/XU4s5RAa952CEKCQmUe4dcPAx67qUX9b/4ExbFhcFWMGwK6qAi6rPDICAZPCo48i9EW/qMxzha3X2zAASTXQG80hsjfWoJk2wilILosQ4Nqj3WBFUfD4+OjRyLxXCpKHKQVJ97JSgoKKSo4lfdaGQ/HBye1YVMqxeGUZu0Rkbdkfa+gspLnGoc1Krcjh+pQ2sk/lXk89Fbct2tPW7VrG+hyLPLMUmSzn2FA2R+iYgvlyWaWNjx0K4K1BQjfVPIbGTWIYgusaXYMT0PKS3khDd6xhLBk0FXjvZzRqwOjg2R6MlRBA5ObtOgpZ79YFKTwuyMrLvqxSd6KCaUG8SdZNYjDV0RtRG/7umLYCSaORNGJrQWM55x4avahXDEMpSB6mFCQPk59RydZAw82zjI/d6NWIxkmVPAXHq1q0gcdy4bSAchIxmCxmWbw85UOL3CZFY1nHndleR1a8XcBYZUAUJrkZULo1hXJ27eB2ZQwDkFV9FnWMw8aLIx0IjU6ezbMEV+YasphlQAiZrat1w1hqVdQbaZian9m1tbfHb3+UYXHTKRmG4KrK46rGo5LnUnj0UgyhE9CVucvhtObEMABNN+gkO9YpSI40yIp+dNFIjqW7Rdc1AcWs+5k87HRUL5WC5GGKAkgC8YXJpVrJwrwdkRvdtWj/y16IjrRJULXI4dUpjxcxi5QZAN39X4DJqRzefTpjmQzVBIgBgEiS9dBRcNdU0PYkRXC3LJ6z3FwrpoFK6YCN5s3XCfYzYRhAd6zhrikvuKwmQAFCo3WAyDG4qlFTRdpLcvtZKLQbs0xACyoVdd2qyI3sjz9cWFy/BAHDAOdlCo+npcPgcfE9OGp4ZAhwWuZwXRVwVuY8SRsyDNp3a5bSOtLQG+vQDSPRjZwtaFxsau1GcY002lUKkoeA+wg+AAAgAElEQVQrCjAZV5AE3EUlp7KBm6bsS1Ti2HRa4vDqNJx+tl5LN8zI5JDCZG8cHEyyDKERx1MBxQjW18VJ/YmO22aw/W03iTfT7ytWi4c868pAKmhotGQkLWU1aGhcODArMLiq0kBE1kWrGAPAVNbNVFcdvZG61B1h3yzmOTD6/pEkG/5FN2pqReq4+qLC7+31aPe7c3TwSAiddKwwbinL+lJrYoFif7IQWh/PzQiSsiNlWaNbu0NulXRo3KQUJA9XFEASiC9MCjxtS1Q1o5Kl7HpdUndEW5k8tNM01UN1VqbgGFRP26Cl6Ytprip6Iw2ST5sNl1Uer069NWA7RukGcNeUcbvQmiMKstZlpdzciOfE7Dm5+7jwItCWy2rsU1bDgsaFE+RF1sxi4yHy3m0OjaY6ugvRyf5Yc7gejwIsbgbFjc8ktOfmlVmOxzHW44cN8Gjg0Wq7cVUTcFXlIfLB2UobAJTVkPpIg6LFNxppNbO+rvEH1VMdIzSuStOBH//PKUgeqhQkD1cxS3tKVs301u5Yw4cnGd1RdBaVcdV5hcfrOo9aMZnguEmaDrM2SaWRyZEGWT18wquXOLysCzhPKIQHqfZQw20zPptDWZFZikxWFnpOhgmOAP2s37Zov9tY6gBo9PqVL+bYWesdzqP2RaufDwsa+5O5GU9vpGE41c21uYMWKwHAoptLEEJbQV1VaX19hieefE8SD48MmTfJvDwJ39HOADA2dz7maa10YRaHaGRWYHBtmhMcUux+f38PTUsXpE89aum92OqA/OmvhDiiZCgFycNkbQ4Vsyx13xyq6I11aGlzW1d6UeXxui7g5Mj7D6oa3UTtjDR0hvO6JCeq5NnZxmWqwySrBm5bCu6acrwiZQtLD5aQuaOrmfKaCbhtkaXHDn0tm3FLWY0QNNKT0jp9yz9jX6rl7lM59DABXYsvwmR3TI3C1oI9/vzx3pyezP8j8qbjao1HIcN40q4jmfBottp4cULtaasFb+oZvZZVL9JbcI0ayzYTsgNWTmRmX+RDjQkMw8Dt7a1HI4unOiMN92bz211KQdIbpTBpX6UcizdnNENjUYOpjs5QRWcYnxYOUdB1jcerunCQ63RSpajGLIXMgkl1R+uXfIah0YhT58Z2qdb11FNx25Tx1Ns9D0VKNt72Ymae5lrO03R8v0V7ZMq4bcYoZTVq0Dg7OUG1wM4c+50f7v3oVM2Yw6S5XpcULwx5PIDFPQeyPjiuJgoeCaGEbb1IORdFtmFJUtY/mKpup4+Nv/J7sn5+fsZkMvH8vFHVcKrjvq2g0XXuxJaCpDdKQXK7Lk54vKnvryOznO06Qw3toYp+GpVcE8MAV1UBr+oCSgc4Tx+TZLOHcsf8X38BJgWezNLY9tW9pdqvsaTPoo5epBIHIpdLEJFjZimuliGPV6mQlrojDXctGXetGLisRhIaydI/6yUO1zX7jtRhpCxLirHk7todze9X2z8C7lNQ3R7IEIKLEw5XVcEzx9VEwKPVP+iqxuOqGv9eT4OJvgSSiymNQamYZWa7Pl7fZLep3++j2+0Gcq2gJSkGHjoKHtuKJ03VU5D0RilIUvEcXZi/qrurYR5MdXRNkEyjktR9+qpGDV0OcZ8+dlmLs85Ig64beHHCo3Lkqb9e6aGt4LYpoz2MSYqlh8sQAjJLcbWik4duSFCXVQXNfoSjuDGARkvnZQ7Xtf2u1EFBo53rWN0WFmGyN9agG3AXCPLkTyMgJoxfVSmM7/tT7PytsYZHQqgJwWWVx1kpmqmph8gyG6AfQnWpEapfKi3kmYcF4bIs4+PHj+Fc3GNpOp1UHtoKJj5Z2Kcg6Y2iApJAsDBZzLJ4XafF9F6ks8iqgf5YQ9uEycFE35mKmDTxHG1b9OpUSCNkHqnRU3HzLGM41alZSoEu+ksH9Cw9ZvUnOm6fZdy1w23NYUsBvb95kUElx80ilOWcfSd+K2X1rqXMHPUjpRhBo6UXJ9RptV5ah8cggNGraxgAhhN9CSb7Y22zWaYXRY6bfkNorfi16bjKeuC4Gj94JADPmvm7Vd7zprJR1cbdDA/vUeX83NkqShA+nU7RbDahR36GW9cmMxy/lYKkd4oKTPoJkmdlDm/OBF8dQIdTfZbemvSopMgTXNcEvDwVkBUidCONsTpD2irmsbPuYJkVmFltm9VqJkrzVxSl6cB9S8ZNM9i5yZUCfC9XL8WxtI1RJc/N0l0FbvOAemPqWHvfVqIF45GDxt3AuKirKu0bXjVLKOIEjHa0nO6qYzh18l102DqFAIXMvNtEhmcOvk/GBh5nf7xpN7vtS3wMWmz30V3oHelGJ2ZR8lWNj3x96MPDA1Q1wikhpjojDXctBe09Zjh+KwVJ75Q0kLTSKl+fCsgHmFaZ5KhkRmDw6tQbU7FUVINZ83rFVk1tTlyASTMymWpZ7aGGm6aMx6i35gjoK7QjXrP2SClr1U5SoLRS0j92Fdw2I5aySrb+YP8wz2QfGgFqeGmVTZ0U/G3H4zcw2j2/5US9CJUT6TBDHrLwD5GnppdXVR6FzOGbbJGHR0KA0yJttWG3cPZYZPWO7C6Y7NgtfK8WqN35ZTV+r6lhGBgMBuj3+5GKSA6nOu5bChq96BXMpyDpnaICkoA7mMxnGLw6pSZYXMg5f0mJSuZE+poe+8aml5rKhtkzT3ZdrpETGVTMqORJnkPxyI2LJNXAnQnjkf6uRRAcNynDE5wUOBQyDPoTDc2+Ci3slzXG0GiJNzc3X9YEXzaAogKM+2QZiC22DJFVaqTpKOOVUMdVqyTNSUr21lNGEh7NVhtXVQo31T3Of6mAkaTPIXKhd+SqakUOL0+TBeI3NzehXn+qGHhoK/jY8cYMx28RQoA/+U/CHkZiFBWYtAOStSKHt2cC6hFsrh7XqOQMxgM0F0u6VN3AfUvBTVPGcOLdaryQsSKTHCoFFsUjMzN6MmtHn6MUIVtVTMDRUilHHemvajwAgr7VemakojfWMJUDuoe5TFGNEjRaEjma/n99SqNknozIR2AMMt11IhvzFn/mf1UrK8PA1tebgMx6PZ6WONtvy7a/LVrwSICcwJiuqe5c/45duoGFm5cV+tZxWuLw8lTAxR7nqjhLlmUMBgOMRqNArqdqNF3lvq1g6pMZThBKo5LeKaogabWNeHMWH/fPOEQli1kGr+pCIly+o6THjoLvnmR0R/7W5BWyDCo5FtUCNUqJy3fDjUaSjrumgrtWRFtzhFjfeMgAzit0bbXJ2AUARlN91su0a7af8VRRhMYDT54VaIrly5qA7IGmY36BXZRgdDjV18rZjJkjz7w1SL1MszgvNwSPnF4zEvBICHCSZ3FVo5HG1D3NG0mKgUaXRsOqBQ6lHHs0C5xer4der+fb+Z96Km5b3u6Kh63q6QU6/+xnwx5GYhQVkASAj//Wj3Fd48HHNKVSVg30Jxrag+hEJUs5Fm/qdM5KTVq8U7Ov4sNzOI3ri1l2luZaybPIJ8gt995szdGJYmuOmEUbLc3SKx205JE3lBspbmE+Mimqh0Pj4qE5kcFLM5tD5J1/B/0AuyjBoh31x1Zkkm5eDCbajLOuazwYQg6at0KFR0JoU+qr6mY73lTu1ehSuHk2J2BrUrT+l+Qd1lVJkoRGo+HJuTojDXdNBe1hhNN+PJAgZqH88d8OexiJUZRAMvtzfxb2EA5W2FHJSp7FmzMhUen/UVBvbDqrthXY8MfxVwQoZsx6yQLtCRjX1iv9iY6bZxkPbXvGQ4EqpuAI0MwDC3LYA6Ie/bGOzkidweReE8RIQONhqam7Di1k2dnrytssBYgTMAbtHGsYgG4YeO6p6E80ZAUGJwUWedF97WPw8EhoPvNllcdVVTj6Anav9bGr4rYpb3X94liCUm7Zje5YnAFlWUa328V0OnV87HCq466l4CmCZjhBKE1t9VYpTHqnoKOS1QKLN2fi3ubVqZxpLOm4acq4bymRTKskhG7CnixEJuNQWqOarTluo9iaI1RwPPziZ2UOr+rbU1adaHGxP5bmaYidoYr+RIeuGxFJUfUPGi1ZreOu9vQbjwswRsWgZyJTU8e7loKRpIFjCSo5ljoIm/+1e08LDh4JUMqytD+jg92EVPb02FFw03TWHiIrMijn5pNhMXtcDZe73S76/f7O58TNDCcIpSDprVKQ9FZ+RiVrRQ5vz71ZLKaaizZZp2mVUaxt3SSGmcOkVRYSxd6ebbNP5scNfTJDVQAvlR/RRks8R2a9CA/N5Nq3+Fc1aibWGWnoDDX0JhokGw7EUYPG3YfNf3tSmEceNz7TYxiLEzAecl5VM3DfpvBI68nXHXZEfgEo8yzKOau/6XKaq//wSOjuzFU12WYtYcgA8OBBHcPqjmo5xuk5bjSZTDAej5eMdlTNwMeuioe2gkmMzXD8VOra6r1SkPRWsmpgMNHQ8iAqeVbm8OZMRK2Yun97Kd2g89iHZ9l7M5EAxTIExSxjprlyKOdYZELO6pEUA3dm1DFS81jMwRGYp6xeVd27LB8CAoMJTXHtDGmEcrCQ6hq1mka70GipVuLwaqUrQNSBMS4Aet9WcN9SHDkuWy2Pyrk5UPoGjxxrpabyqOTTydZLWZPtbdN7NzqBM9NaC/O01mOKEg8GQ/z5d0+4bcoY7qs7SDVTarbjvaIEkkAyYHI01dEZaWgNnEUlL054vD0T0rnMBzW6Kr57lh1lzcRBHEtQyDKo5jlUiyxK2eBLRJ561Hwous3rg7yEtxc+NGXVazCQFGMGk52RV+n7wUKj9fBZib62Z2XO09cp6sAYRHpro0sjj48HZiJ4Do/5DIOrGt2NCXvXLWnSdOC+TXcRg9ihzWdoWmu1wKGSZxNfn9ocqHjfmE+0mqqg0/LGaOeYVKzUMPyDnw97GIlTlGAyCSBpJypJCPDihMfbcwGlbAqOXqsz0vDdUwRTKn0Qz1qRSQ7VAt2YFXx0Px5JOm6jVkOaEHB047I6G0lA1sy6QaOTFCbnbdvsKRxotHRR4X2pJY3Sufw4n53ztgcq7lq0ZY977yziHTzWitysP2Mqb2XlKYdV8L6UjpOn/bCStDHQn+j4riHhobPZDEdVZUiTCSbjQfCDi7nyhSLGP/gPwh5G4pSCpPdajUpOFR2XJzzenItH10w+CA2nOj6YDqBht10JQzxHUMrSLJ+q6TngFUwaBvDQoanAPZ97ZdpWQsARoP1BX7lIWQ2ymfym61o9JztmPfhgosNYWvT4BY07TkjWf7ysUnisFtzDo1evdZTh0805+xMNdy2auiopuzYTdte4HgaPBNQAp8qjVkzrGb2WrJrFrRFKoczwVlorN5vw4to7ciLTxYuTnVlFnqLfa8PQo/F+RFn5DJ1gz8r03nB+fo5/9Pf/csijSp6iBJJAMmByIhv42FWg6waqRQ7FDOO6rinVuqaygduWjNumbMv44xi0XDLCoZRjXJeM9Cf6rOVJJFpz+PzV8bu+cVX1EofXZ/YjY2FD4zbJ6tyIp2sa8biJUnsBjZZYhpa8vTp1XiYQNWCMYqRyIutm5FFZbgnj8K1yBY8ZgZlBYz7dkfVckmqYdrry/n4/IaqQZVDJsagWOVRybGw+C4rp7HfjgbNft9WAqiY/5cqJOJbgosKbDX6335H+6Ld+KcBRHYdSkDxcqkbvDx+ezfsDAQoig0qBQ81s0XBMhmJey8qk+fAc7fktbIk8QTFLo5LVAodi1t4GhvX63jxHYNM5AcY4q+JY6rL6qm4vZTUMcHR7TQPAcEJ7TnaGGnojDcMdayTHr72NYfELr2/RZqmAF69xFIHRj8+OqgF3bRl3TQXdhfI3p1dyBI+VPIurGo/LKg/umHo6BKSpYuC+JeOupcTGrhxYr+Uo5liIPtZyuJVu0JYm3z157+onSxNMRgMoiuzpeeOmco41003s7xjyPI/v/8Zf93FUx6sowWQcQNJqGXHzLG91pxQ4uqivFdk0KulQBub34MikU8ZEopn1UzXn2UKWBbeBXSLTmiNBaaqLKmRMl9U9LeeiGm10qqlsGvGYPScHE31HNNs9NFoSOcZWPWlUgDHqsLh6TsOg3il3TQXNA0zKbMHjRYX2ZrTSz1J5q8Uw8jRKdtoulBUYlPN0t/SkwKGQYSLRO7LZV/H+KRjXuWG/DWk6hWHE+710IoGjqSaXJzz4AzYOUpD0T1ECSSB6MCkpViqlg/swAfIi3ThLo5L71TJNyZzYxKfarIzAoJRlUC2aMJlhoWouPsN+KKHgCACnJQ5v6gLqO9bDcYo2Oj2vqlGjsc5IQ3uooT/WMJW3YISLIWUFBtc1AS9P+Y0N6w/9O6MEjGGltTZ6Km6bTjaY1s+7FR6tBqiXVR7lXOoy54fGkm4WrsqYJqzug2GAvDg3A6jk2Y03Ar81mOj4tiHhY0c5wFnKvVrPD4mvj6wWObw+5VHy+D4hCAL+8Nd/wdNzpqJKQXJZU9nAh6aMu5YM+YB7cRqV3K7+RMf7EO/FSVdWYHBW4cAyBK2+iuF0V4TIRyUYHO2krAYNjlFoRj+c6uiO5kY8w6kON5WTBLSn4MtTHtc1YVb2khRgjEqUsj3UZk7M+swwycb5Fj10VuGxmGVwVRVwWd1dr5TKvUaSjrumgrv2YQuVuMhaUFWL89oNv3tHWmY4dy0FSkRsypuNu7CH4KkyPMF1TcB5hQcXwP5SWiPpj44dJCeyju+eZNy3Pb5XpFHJmcaSaU7m9WucaibLoMxKp5yY6YbtIa1fG041+L6PmWBwBNZf46URJCTa6MU5JdXAYEwjk52hhv5Eg7LVUZksvXuFLE0Lvq7xEDblZTtQ2NAZ1QjlYKLjpknvx2sMYvNS5H/6/X9tyKqB0xKH6xqPFyfH0Wpj8oOfDnyRMpyafZeOeALNiQwqeQqRJwUWeZGBl98L2TQb8sIMxy+pqgJZmmI87IU9FFcihLrNvaoLyIe0GE5B0j8dE0yOJAqOQbSLWI1KFjL+b6JFQZJZR3q7o4401WFiGODyhMfrMxGlLf2YJzKNDlkL+tFU8zYCnDBH1U06LXF4XRfWSriSEG30E3Q03cBwqtOek0MV3bGGsWRsfOdKpm+C0zYou64f1PFRhcXV89GsRxpcGe1ZJ28bCfnhn31jiByDeplLVO++bZr84KfXHvMbIi3KP9Z+VpvEMgT5DEMXUgUOpdxhvSMtM5z3DQmDSXwWKJPxEIo0hSxPwx6KLWUFBq/MyTMKtayVSgX/9Nd+JuxhJFZJBsnhlKZRPnbU4NP7rKhknkWtyCU2KqnptN/gd08ShjG6L8dNpRyLN2cCXpzwtu/LY2kBJkcqRlN9Y59jWzoCcORYWtf/eiFlNYVG9+cZS7oZGdeWIuPlPP0sX57wYGx+mOMOjEG/B1YbwNumjN5Yc/gtMlOJf/P3/rVRyjEo52haTSnHhhZN8FOboHGTvFyc9Ccabp4VPHZSaNwly0WuVuBQLdLCfye9I5/71IShdYBzVBQ06LUgS9OVpr3REMsAZ2XaeykjRIAaN4hhGPzoN38x7GEkVlEDScD9/TrsWuhVJTUq2eipeN+Q0Bmmzqp+iecIrs06vEM2IEYWTA40dEcqRpJNmAwFHIP/buQz83RKniUpOHp0Dut4WaVGPO2hBp4luDjhkOF3f57Dgr4opLMecg7DAO7MHvKb1837zz2reSQEKGbZGUSWcyyKW9If4iS70LiqQyCyN9Zw8yzjoaP4X2OQIBFC01pP8nQBdbJnN362AOwm73VuNx+ha9FYcOUzDF7XBZyWuBCmbHfKZrP45//dXwt7GIlVnEGyN9bwk48ynnqK+0iLj1q8D8Y5KtkZaXjfkNDoxntTL+qqFjm8PVtPpTxUo6luOmpSE5SNPTmPBBwBoFbk8MZ8nYMEx6RD46qe+yo+PMl46qkoZOl98KRA74OHRnzjCptenWPxXB+7tCWV7fvzyuU3uq0WMgxKCxBZyrGRSFFzIrfQuConENkd0f5Kj51oLkriJJ4lKGQZVAscakUWxSwLwWwBcWzmC2EZ7XAswUWFx/UpH8m+nU6U1kj6q6jB5Lb7dmeo4ScNCc+9+ACNwBEUzKhkLSZRydFUx/snOc268VkZgcFLsyeenwaHhkEjk50hhcneWNtbK3WoogSOHEvMmlL7jeu9UFitHPw8x77jG10V3z1LaPbXN8+zAoNSjlnqdbrvXhg30PTieDvnag/UmWnOLPji4LI7+zxmRQblLIty3kxpzUbfdtwraNykbQuS9pBGGh+7Clz4E6fao4xA06prRRaaDty15M27oEegoEDSqqE5ySerTQ/HcfjBP/wbYQ8j0YoaSAL03t0cqPj2Y7zT21ejkieFcFog7dJUMXDzTNueSEfgJh6mzis83pwJqBaCvU/rBt3EbVswOdIw9tAMKUrgCNDv3Ku6gOsqD2FPKqUXOkZoBOgmxWNXwYcnGe2FVPe1I80HWIam+9OWcBzKORZZwX17j2OKTPbHGm6trg82gzCLvrg74dGSyBOUliCSjVwbDz+hcVUWRLYGKj48K2h07TbaTOVGLEPw4oTDmzMRhADtoYrWQENvpB2te5+mqeg0P3p+XoGjpgCX1XUr8iQqjUj6qyiC5I8q3w97CJ4palFJRaNu1x+eo+t2nRRZ5QRh36sJIdB0A6OpjvZQRXuooTd2PzdHDRyBeWrwecX/bgRJA0cnx2o6NT787mmLkcv+B5DPMKjkzNKnAvXQ2Jc5GSfQ9OJ4YN5n/rYpL2z8ENvfNFvwaIljCUpZBpU8Z5rrMKHvegYJjZuUpIVIFFUvc3h7JqJWXN5ZVVQDg6mO1kBFa0AbIh9DCusmydIEw0H34BrJaoHFmzMxEbXOTpWa7fivFCT9FSE0rataoAunasBRSd0APnYUfNuQMZhEo147qWIZaijy7lzc2qw+CG1bxKqagbGkozVU0R5QmJwq+2EyiuDIsQQvTmiE18+U1SRBo9vjVA24b8v48CzP3Zk3nsr++UWeQTHLoFbkZn3GBc6d4VEYKbBeHL/pXJKiz9rauelQ4AgeLTEMNdep5MxoZI5FPsAbWNjAuElJWoREQaUci3fnAi4q/N4+kFb/qtaAptBMJD0SDopBS9c1SNMJRoOuo+NEnuC6Rm3enbjcJllpRNJ/pTDpr4KOSjYH1PW62Y9vWnBcVMqxeHsm4MJBaw6v5WRBq2q0z1/bhMn+ZB0mowiOAE1ZtVxWRZ9SVqMGjkFH1TYBzXpNrZvzrh/HEKCQMVNdTUOyXR0m4lgzaec8uk7bddw8L6cIzw/ec2438LioQpbWo53kOZTzLIoZb5u+b9Nv/+pPpYuPBCon0lScq5rzVBxNp6F4KxrZG2tHW3OjyBJkaYLJeLj1OYQA9RJ1kAs7gyCqqtVq+Cf/4K+EPYzEK72X+ysrKnlSYHHqQ61kkp2voyaeI7iuma05QrpvH7q4VTSa5toaqGgPVfTHOmT1cFjwQ3M32/0b2W4UhDlKEMd7EcmbyjpuzVTKiezCxQWbgXGfsqKZ6rrQLs6pv0tYUclDztHoqvjwLKPR21V6t2Vb51B4tJQT5w6tJ3kWhSwDzsctsd/+1Z+a/TuKCw8gWYsPvyXwBC9rgmd9BCXVwGBMo5HNgYqxpB+t6990MoIiS5Cm49ljGYFC+lmZi52TcphKI5L+K4r386TdywWOoJBhUCtxB0clJ7KO756Ox/06bNWKHN6eC6iXvG3NYVd+tI5QVAPDqYbWUEN7oGIw0W2bePgpP1NWU2hc11jScduUcddSMHW48e8GGs0jlw4joO97ceb2z6GUY5HZ4PMS9zTW9pB2iHho7+93vHpFz+DRUoYnKOYoQFby8/xiP7QIkJbShUe8ZJnhvPWpdsMw6OKmM6QQ2bFMdsKfl0KRPBmgnFFwVSGRM72Kk4rFIn7/v/mrYQ8j8Yri/RxI1j19sVbSqYOrpBq4a8q4aSqYHql5WZDKCAxenpqtOUJonxRUf0PZgsmBCZMheRr4lbKaBHD0o2ZwJOn4YG5E2dk8OAgY1/+z4zoE+cxyD/JChrUdiQ47hXXbOfpjbdb2TlYNR6+k5/Boyaq3OFlwaPUiorSqTQAJRHPRkaQFhxc6K1NoDMpmXNUMjCQdzYGGVl/FYKJFYnczKBWzLD57IeKszEHXNQwGAwyHQ+hpntlBEkUR//d///NhD+MolN7X/ZfdqKSmAw9tBe+fpKNtnRSkCAHOyjzenofTQikocNwkWTUwmMx9DYYTHUoAmUQnBRrlPfcoZTWFxt0aTmkWw0Nb2fn+ehFltHc02fpjhqc9J2sFDtUih2KGAW9u6MSl5QeN9Cq4bcmYbHLH3uFu6xs8WuLYObFX8izKORa5HcWpTrUNHi1FcbEBJG/B4USlHItPzkWcV7hA6mM3SVIM9MYamn0VzYGKqWxAS6jLjlUj8/ZM3BhtnE6nGI/HmE6nUNXU7OJQpamtwSiK9/ak3dcXayVrpoNrRmBAADR6Kr79KKE7Sp1Vg1BeZPD6TMBVlQ+833aY4LhJkmLBJG0NMpx6X5bCmimrbz1KWY0KOEYRGi31JzreNyQ8dtT19diM+5yOYz0tde/zd/y47RwsQ1DIsKiaBmV2WSfMWklZNXDXoqY5g6kGJ6+t7/A4u5DpcFTJz/+XzzCelETvA0hL6WIjXOVEBm/Owu9LtSjdTGttDVS0+hq6Yy1R6VcnBRptrBXt1ceoqoper4fxeAzDSCZM+ylNB556Cm6aCsBmIf2LvxX2kI5CUby3A8m7v8+ikkUOE1nHU089quyNsGSBzLszIVBneyB64LhJkmKgb8HkQMPIA4+DrMjglUcpq0G4Z/p1fBDHWM9vD1V89yTjY2deg+cuyugsLXXtWTaBceuZzYfzIoNK3jLi4VAQGbAu175+vPeabuChTftqdhxuAgYGj4vKmS+oZa6Tz7AHtQiwC4+WorjQSNoiY1FWK4hXdWFj0YgMvPwAACAASURBVHFUpGgGhhMdzYGKZl/FaBpMaowfEniCN3X6mrsF9dFohMlkgvF4vP/JqWa7eI8dZePChfzpr4QwquNUeo/3T/kMg3fnIi5OOCiqgfaQLto7Q1pPnu45ea9ilsUnF7RJfdAGZ3GAx1VNFQP9sWY6r2sYyzo0h3O5FymrxxZtPPT5zb6K908yGl3FPTR6GGW0DYx7LkTMJwgc9YSpmW1CSll2YzZYkO/1x66K754kPPXWs862n4mEA4+WsgKDYo7BSZ6bObS6Xeg6BUggmgsMIDmLDI4luKjQRsZB75YeqqlsoDNS0TQL9qdyPHpHEgKcljh89kJEOeddXcxgMMB4PIYkSZ6dM0kaTGmhf2tgL+03BcnglN7nvZPl0nxd49eM8BSzl19rYfMtjUoeLoEjuKoJeF0XkPXBN2KX4giOmzRVDPRGGlpmn8mxpG8vUyEAS8yU1XP3KavHFG108vxdz33qqfi2IaE1cBIFcxpl9B8YiR3oJQBjGvFUCzQ6eVJgkReDMeKx1Bpo+O5ZxmNbWcg2I/uBOEx4tCTwBEWzaedJnkVxC43vkxuABNLFhR86K1NoPAnIDMcvaTpNa232VTybJjtR7R2Z4QneXYi4qvG+tcnRdR3j8RidTidNawVNe7Z2S92mO6cgGZzSe7178RzBVZXHmzNxL8QYoD3bZi7XaVTStWpFDu/OBZwG3JojKeC4KkIIJrKO7ohuDLcG9LOp6cZswZzlGbysC3hZE1ytRaMAjnGCRoA643/sKnjfsJtC6STKGAFg3Pjr9QdzAoNynqVAaRrxWDXOfnwe+mMKj/et3SZFa+eLAjxa4lhaT0EhkkMpxzhqZOwWHheVLi4OUznP4t1ZuGY4fklWaSoMTWulE04UekcyDHBe4fH5C9FTM6p9UhQFkiSh3W4Hds0oSVEN3LeVvc5wdsXxArQf/7IHI0tlR+m93r5YhuC8wuGTC3ctlVajksOQWi/ETRmBwSuzNYdfLc82KcnguCqrnVd3RJ1cWwMNAkfw9kzAmYs04bDBMW7QaEnTgccOhcf+ZBc8zqHRUZTRFgs6AcY9uGgTFnecHgDAs9SIp1bkUC1S09F9XOTk/RlLOm6aMm6bCm1jZ0shp61uE8MAeXEeiSznWeRtLoq9AEggXVg4VRTNcPySYQBTRUd7QEGyPdQgKeHsqmcFBp9dirio8AfVDR8qVVXRarWOJq11LFFL8eZA9e19TyOSwSq952/XaYmCoxdtlaz7ZxqV3C1CgPMyj3cXgqclCPuvm8z52+7fpWoGHjsKumMNJ3kWJwUOOYHZuxkeNjS6PTYK4EgIgaJR85b3DQnDja1/7EKj0yijfWB0Hl10Dot7/zpCjXhOCtws3TWfYcC6zDaTVQO3luPqDNqXz7VpaJGER0uEUCgp5+gLZDm0bnqNRpKO2ybtD/Pwv/+7no0hXVDslsgTvDwV8PI02mY4fmnWO7JPd9SDambMme57n74QI/e667qObreL4XAY9lA8l2EArQF1hBtt6ovkk1KQDFbpfX+uYpbFpxf+ZZMsRiVbAd5Do668yODNuYDLEwFcQOx47OAI0HTrm6aCu5aMqWKAIcvtak7yLLLicqeAsMExztBoiRrOyfiwNLc6qWfcHmUMExgPhcWdZzYfEHmCUnYenSxl2bVMhW3viWpC+3fPMrpDzfZwIg2Pi8oKtCHnvKiU5gGPpjTk+tBWZsX5rd/7Gc+vH9XFBBDOgsKCl7fngu2ocNIlqbQo/9kEyamiQ/eBL4pZFp9dijgrxSM1+ObmJuwheCLrJnu/cK8JQylIBquo3vuDuO9nBQZvz4PrLZjWSlJxLMHFCY9PzoXAShGSCI5u/qbeWMO3HyU0euq8XcTSOWld2kmRw2mRRSXPISuQ2DSGd3qM39BoSVIM3DRl3DzLmMiGTWBceYZH0OgvMNp8jVZ/cvA2c4xpxFPkUFsIvG3TY4e263ju2+3zHdG01V0SeYJilqa0qpqBRlfFeEMEwA+AtHTMiwlCgHqJw7sLESf5eJvh+CXdACRFn0Fkd+SNyQ7PEbysCXh7Hmz9i1cajUZotVphD8OVpoqB754kPPdVXzYE3CoFyWAV1Xs/4P3938oqeVUXIIZ0v1mNSg6PxMG1lGPx7jy41hwpOFJpOl1TftuQ0J/QG/2+szAMQVZgUDObw1fy+2vSDh2n2+OiCI2WJmbE97ZJI75uU1N9izKSrT9sP6WD6OIhsLjpLKucmhMZVHLUhKdWpC0SrRKzZp9mUz12FOiGYW+8cYPHYpbFmzMBp0WO1p0NNXSGKvoTfcnt0E94tBTVhYRfEFnOs3h3LuK8HI+IVxRkLX6afRXPPdV18+KTAovPXmRQKyYD2B8fH6EoStjDsKX2UMP7JwnDSYSocYNSkAxeSZ0DOJbgssrj3bngaCHsp2hU0kBnqM5rzWPSQsmJBI72RX59FlwpSNLg0e3fM1UM3DZlmwCzWSxrwSRdpFdyLDJbvkNx6b8YxPPGsoEPTxJuW8qOtPUDooweA+Oh0cXDYXE7KNqRwDEoZml0spxl0R6quGttzqra9PbFBh7LeRav68KaMYimU/OK9pCmuPTG2iwSGQRAAtFdQADegGROZPD2TMCLIzDD8VOSYqA9pNHI5kCDrOxf+Ag8wZs63f1P4ms/nU4xGAwwmUzCHsqaVB342KE7oXGLdqQgGbyiOg84nQMYAtTLPD4J2KjFqRTNwGiqo5mwqGStyOHdBd0gD0IpOM7VH2v4tkGb1LvflFjOt+QYuoaiER8O5RyLDO8+zTVqtYpePW841fC+IeO+rWzYYLcLjR6kpToFRlfRRfew6BwU9z+5kGHwqk7vOYOJyVMjDcOpvtKSbeEviDo8nhQoNO5L3zAMYLzQu6c70jCWdTz/bjAACUR38QC4g8hZ2tKpu15HqTZL02ldz5OZ1tofa2uLHkKow+HnlyJKLpsUx03D4RCTySQSICmpBj48yXjqqdubScdEKUgGrzjPBScFapBTK3HuMqdCEHVwjX9UMiMweF0XcF3jAylNSMFxLk0HnnoKvm3I6I+dNKlfGsHSfzaJYwny4jwyWc6xEPn90f0oQKPd57qBy/5Ew7cfZTx2FWgzeNwMjZ5HGXfUMB4CjMsc6uT9WwDF/ZfZdsX13275dYZncH0q4HVdWGrFNJF19Me0bKA9VDGYzDfoIguP1SKHN3UBZy5SJCeyjt6Y0vP/+5v/tj8D3KOoLh7sQKRlhvMuwGL9Y5WiGuhPqMnOc0/FRDbAs8C7CxFXNR5cEAUvEZNhGJBlGY1GI5Trd8cavmvI6LleQERXKUgGr6jOBcD6fJATGXz6IvzWP4cqjlFJhgHOytQkpxRAxDcFx2VZhi23TdmlR8F+cFx5JgATJjMWTHIoZdm1zfoogKNf0GipO9LwbUPCx+6Kr8CB0OgGGHf/2i4wOokuuoFFd6C46VjeLFN4e76cbbL6PlllWO2BGj14PC1xeF0XUC8fvuspKXRh/s9/7S96MjY3itPCgRCgXubwybmISmqGE6isnfOPHQUCT3Ba4kIzqYiaNE3D/f29/9fRgUZPwYen+KWpulEKkuEoqnPC/1P/Ad6eibg+TVZ5gmGYJQMjCpKtAe3LG7WoZE5k8O5cxIsqD85ncE/BcV2DiY6ffJTQ6CkOTdHsQ+P2p80f5bk5TJ4WORSzjK3IJBD9FNVdz2kPNfzko4SnnoodSatrP21/yA40Hg6Mh0QXvYLF7Ze1Nx6GABcnPN6dizgt2UuXjww81ssmNNocuBPJqoHf+bt/wfPzOlFUFwwAhchynsUn56KrSG+qwzWRDXz9MMXHrjrrb3pW5nBa4lDMMIHY5MdBzWYT4/HY8/PKKt11/tiJf5qqG6UgGY6iPC9kf+7Pwh6CL7Kikq1BsL15d8nK9vnkIhiDoiTBoxd/i24AT10FP3GcsnooOO4HIYEjKGRY1IosToscCht6+AHRSD095DnPfRU/+SijOZi3i9iJdrEDxoXo4t5D/APF1ada/6wVObw7F3Fxsr1EcPF9DBUeCQHOyhxe10XfXSR/+1d/ytfz21WUFwtAchcMUZWmAw9tBd88TjHdkCojcASVAot6icNZiYfAk0Cs26MuXdfRbDYhSdJKQbdzDSY63j9J6AyTl6bqRilIhqMozw1JnRcMg9Y3t4cLUUnVn/68u1TMsvj0Bd289fv+noLjuiSVuqzePDtJWfUYHG2eR+QYFLIMToscaiUOhQwDwWaoOmgg3Pcc6/e6QVuk/OSjhM5I8x0aNz57D9W5BcZDYPFgUNyY8rv5WKs90FVVAG8j6y0UeLRy+9/UBZwUgkuPjApAWkoXC8etwUTH149TPC80I94mhqGTRr3M4azEoZzfvPt4jBqNRpAkCcPh0NFxugE891S8f5I86cOZRKUgGY6iPDcAyZ0fFM3AWKKtlZoB1UparTnenPlvTJeC42YNJjq+bUhodO1mntgHx31pqnbPsw2RRJ6gkKVRydMSh3yG2Zh2HhQQ2nnO6u813cDHDoXH/sTaxHUJjY6jjF4Co93oog+wuAaKzr4f+QyDN2ciXtb4ra1lli4XJDyyDMF5haanhlFTFzV4tBTlhUJSFwlhStUM3DYVfNuQXC1MOJagmGVQL/M4K3HIiUyszS28lKqqeHh42Ps8xXwPHjubbMFTbVIKkuEpnSOClwFaK9kx2yv5FZWsFTl8cuF/9lUKjpulG8BTzwQXWymr0QHHTQ+KPINSlsVpiRrwbIPJtVP5AIV2n6NqBh7aNG14NF35gm0gvv2vxY44m5O0VJvA6Da66BoWDwTF+SHz4zI8watT2l82bxpl7no/A4FHjp1DY9h9o6IKkEC0FwhAchcJQaoz1PDVo4T2UMVaVbhDEUJ3rasFDnWzPlJgSVqzaqrRaECSpLXHR5KO9w0Z7aGKAzNej1YpSIanKM8TSZ4j/IhKZngGr88EvKzxtlLF3CoFx+2SVbqR+OFZhqTs2xk4BBz3Rck2n8UuNG77RYYnKOdY1Ep0jZATlj0UwoRGS4pm4K6l4H1DnvVpX2fsA1NT7UYZPQNGJ9FFe7DoChS3DHT1EZ4luKzx+ORctOX27Cs8cizBxQlNTy1moxMaiTJAAtFeHADJXiD4JUU18P5Jxk1T9sWcgWUIsgKhaa1lHqVsarJjSVEUdLtdjMcTNAcq3jdkTOSAi5oSrBQkw1M6V4QjL6KSVvnOpxei7+ujpMCjH3/HcGq6rO5NWSVuSs02P+JxtHHvFRd+yPAMyvl5mmtW2L5WCAIsCSGQFB03Tep0PlkB+P3Q6D41dQk17YK8Q2AMFBY3DNDu0QxDcFGhpl214rpx6er76As88hx1DlttOBkVRR0eFxXlxUFSFwZeyjCA5kDFVw92U2IOF8/RncZ6icNZmYPIp2mtimbgw5OMbx5GGE8mGA16YQ8pkUpBMjxFea4Akj1fqJqBkcOoZFZk8OkFdTf0szVHCo7bpRuWy6eE3mjb/Gw/2rj5aSGC4zaCXHgkIzCo5Gma62mRQ0ag6wUvoNDu76eKjg9PMm6aCqYmPDqpZ/QvyugVMPoAiweA4rbPdL1kOa5yYPa9f17Co8DRRpOv6vOc2aio2+2i3+/Pfv6j3/qlEEfjXOnCIH6SVAM/eZRw3w6nro5haPT/rMShXuZRK7DguK37eInVWNLx1cPm/l3t50foeuqy6odSkAxXUZ4zkjxfGABkhTq4botKWq05Pr0QkRHSdNV98uvvkFUDty0a8dqcsnpImuqGR22dx0l66w542AOOS78l8yuLAsFJnkO9RN1cMzwBu2AB7AdUTmRaSnLbUjZnZnkAjfajjAsIZ/N1BxwCoytYdAOK9j6/1q9LORafXIi4rG7v9Wu9f57Ao8ib0HgqIBcRaOx0OhgMBjufEzeABKK9IACSvSiwK90AGl0FXz1I8/z9kMWxZNY78qzMoZBhEx+NNAyg2Vfx5w9TDCa73wdpOsZo0IUetEf/keiLT1/jq//1r4Q9jKNVOm+Ep6Wo5EDDYKIhK9CoY93H1hxJAUfAv79lJNGU1c39fYMGRz/SVO2knW5/HiEEGYH6KlgGPKswufjc3dfZ/vuxZOAnDQn3rZWNdi+h8eAo4wHA6BQWVwZiGxRtQuK2R/IZBm/PBLw8FfY6rh4Ejxme4LIm4NUpH0hj211qt9uOrfrjCI+LivKCIMmLgV2aygb+/GHqwPI7YBFaGH2SZ3FW5nFW5sBzyesdqeoGbp6po62TGlPDMDCdjDAZ9VOQ9ECEACcFDm/P5iUMr169ilXpQNIU5XkDSPbcYQCYSDoeOwpEnqEmZz7df5MCj379HYaZsvrNxpTVQ8DRSeRw/gRPwNFFtHG/yIxLCKE1k7XiHCbFLTA5v85+qBxONXz9KOGxo0LTDHvQuAeQZ6C2J8oYCWB0DIu7/y63n8kMz+BVXcDbs/2BQFfwmBEYXNd4XNcEZH1MudglN7C4SXEHSCBdDERBmg48tBV8/TiNTc9AhgEEbh6NrORZW5beUZekUIDfvJvsTKNhD5PR7gyGVJvFENqG4M2eiSgJ9+C4Kp07gld7qOEb03GbYwhyGdrwvV7iUMjaa6uwTyk47j+vrOq4bSr4bi1l1UNwtDV89+C4nRW9AEey56UgYBnaGqRWpI7v1QKLDM+AEGeRyN6YficaXRXazAJ9FzQGG2V0Aoz2o4t2YXH359GbzyB9osARXNUsE6/djquO4DErMHh5yuOqJiDjczPbVbVaLYxGI1/OLQgC/vDXf8GXcwepdCEQjgYTHV89TNEcqJ73AAtKS70jy9TOO25prQaA9kDDnz9Md5gfuJOua+h1mtBUxdPzJlUMQ4vv356JthufMwyDH/3mL/o8slS7lM4h/kpWDbO2a911mxC6ED8psKgXab2Zm6hkCo72zjsyXVYfuwqNdtHfLv1n53n2PWLrHHajlAFHG8k+BFp/nQioY2eGJzgt8aiXOJwswOT81OtntTZUnvsq9J1Zq4dAY8jAaDu6uP0z6OtmBUzH1RMOn16IGx1Xl85iBx5zIoOXpwKuqrzthcChajabGI/HgVxrUUnYBU8XAMFI1QzcNBW8b0gH9/uKigihaa21Io1G1kscuBj0jtR04K4l45tH/98LaTrGZDyEqsi+XieuYs0WBG/OBAgue9fV63X84//ipz0eWSonSucRb2U1o//mUcJgsn9zi2fdRSWTAI9+g6OuG3ge0PdivtEYJDhGNU11f7Rx9Zc7YqHgWAKRJ6iXeNTLHE7yLMQVmDRAvQm+eZTQGmgwVs+yFxrJnj9rFzT6DYw+wqLbz9ieY+slHp++EHFe5sDsSkfeBY85kcHruoDLKu96EWBXYcHiNiUBIoF0AeCXOiMNXz1I6CS40TzL0GL5M6t3ZI4BF8HiSFk18PUjLbYPus5Umo4x6LUDvWaUxZo7l6/rgmcp0LVaDf/kH6RmO2EqnUcO11Q28M1HCY8d5+7bS1FJs9ZsU1QyBUd755VVA3ctGe8bVspqPMBxMyt6tKGwM9q4GVq2otHaj/QBljX7UZuRyUqeBc8RPPdUfP0oobuYMeQFNLqKMgYEjHth0cnnyslnavcvyzkWn70Q8WKH4yqwBR7zGQqNL078g8bn52dMJhNfzu2lUogMRnGY/AFAUQ28f5Jx01xPO0qyOJagkp/3jswITCRMdjojDV/dT9EZaaFD/KDXhqYpUJXjTG212g+8PN096Ryiy8tL/G9/9y/6cu5U9hT1uQSI3nxi1cR/81HCVD68tsGKStbN3nyFLAPBz2aRASkIcARo+6ZvHq2UVetJNs6z75EgwNGnaKOTyNhWyNkCjZufTsCzBHmRwVmFw1jS0ezTtjbuodHjKOPsT7cHjE6ji+5g0Sko7t0OWHogLzJ4dyHi5akAkSNbv5NL8FjIMHhzRhtEej35Pz09YTqdenrOIJVCZHCK2sQPmG0fBiq+epDQHx9vX0CGmL0jzWhktcjStNaAx6HpwENHwVf308ilDOu6BlVV0O80wx5KYOJYgqsqj+tTwdeG54uqVqv4P/7LfyeYi6XaqqjPKVGYT/oT3azpWu8161oL61GBY1At0lrJ0xJ10N7lgBlFBQWOumGg2dfwzUcJ3aE5l4cFjjYpwB04eh9t9AoaF//FsbTV32eXGQgcwVjS8dynPVJ7Yw2SYvgIjT4Do5PoohNYdACKu49df35GIHhdF/c6rpLf+N1/ZRSzLN6cCbio0PomLxR3WNwmnufx/d/462EP42BFfcIHojHpAzTF5ZtHCfdt5+lGSRbLEOQzwfeOVDT6ftyt9oSKqNrPj9D15G448CzBy1Na3hCWyVKhUMA/+29/NpyLp5opnVfWpZi18R+eJG+duLcs1XhmNSrJ+l52dKiCAkeAZg/dzlJWV9tCbDnPvkeiBI7EBvgsgM1OcPQi2rhh3IsP8RzBdU3Apy/EtZZ/qkZ7cT73VTz3VfTH2spmsT1otBtl3IeDboDRKSx6YqK0+4edEniC6yp9P6z2Wpu+R+RP/r9vjfOKd5P+zc2NNyeKuM7Pz/GP/v5fDnsYnijqE35YEKkbQKOr4M8fJEykmNqoBiBCAI4hOCnQ3pHnFZq54Md6YDDR8W/up2gN4ldrKk3HUGQJ04k/rtFhiGcJXp8JuPBwDjlUaWprNBT1eQXwf26xHKC/fpyi62Vqvc17KwMCniOoFliclqjxThSjkn7A47ZzTmQdXz9K+NhRoNqY1g8FR7cwsHntvy/aaGNAJuD4Hm3cA43WAwJHy+TenouzLg7b3jtFA4ZTDc2+iue+hsFkFSaXr+JJlHFvDaNNYDwosug9KC5/pObHsAxwccLjsxciqoXtjqvk9vbWk9vZ/f09NC25u+vbVCqV8H/+1/9+2MPwROlkP9dE1vHVg9l3KGATljhrtXfkSZ71JJtBN4CPHQryXtQMhS1d19B+fgx7GAeJ5wjengk4L/NgIgKOq0rNdqKjqM8vfswtsmrg24aMuw2tOVzrgNspZ2aLWA6uxSw1LAlTQYKjbgAt02W1Y6OdU+jg6AAK9r+Oh0Qbt//dTlJUl3+gj4g8wdszEW/OBIj85olkO0waGEx0NPsqnvoqhhMdsmrYgsadMcSF8fkBjLtBe+vZ9v2w5VqL/7D3XTsrU3g8K3NbgwAHw+OxQuOqLi4u8Dt/7y+FPQxPFPVJHvAPIjUduG/L+PohOe03wpLVO/LM7B2Zddk7UtXoAuzDsxyLNFUnMgwD42EP0+kYRoyahAocwbsLEfUSFwnjJDtK0kZf3HUMc4zVmuPrhymGUw+/2x5932ZRySI1Qjst0YyRIKOSQYIjQGHjrqng24YEac/8vhMc9w47QGMcsidyNn9SgNHG/dBoKSsweHcu4lV9vbXTVrOWHTDZH8/TXIdTfXnTZt9rta8GdCvz7fts7IsuegOLZPn/XIj+jRXTcXVXKYpreDyW9FQ3Ss11gpOXEDmY6PjqYYrmSqPaVIeJEAqSp0UOZxWzdyRjL611JNE01WbvON6TTqsBTY22W2tWYPD2XMBpcfuuZNT18uVL/C//+V8IexipkNx5Ziob+PpxiseuutCE/kB5/H1bPB1n1kpa6a3FjL9RyaDBEQCmZsrq456U1biAo600VTumOPuijbahcf7DPmi0HsmKDD57kcF1jZ9lKTmFxm2PyyqFyScTJsdTHcrqd3FnlNE9MLqOLm7+EGwamfkPp9+jXRsJVPkMg08uRLw6FcCzW87iFB673S76/b6TQ45WSYFIILkTPEAjWzfmbuQxtd8IQ4u9I8/LPEq5zSY7hrlr/2/upxgfYb3pZDSAosiQpWi1M8pnGLw9E1EtsLEFx01K0r06zoriPLP6Mc/YmGdoBouCbx6n3pnk+PB92wZJhNB65mqBRb1MjXcEjuxsGu7ougEa5FgyzJTVr/ekrAYDjjuuYhce9oLjnBDsgKN/0cZdfytt1fH5ZQaXVX5riYuXMNkba3jqqXjuqRjLxpZsJrLjJdj+otqB6rWf7G4ULP+fTbnxnqC9ON+ciXh7LkDcUvZoGx7j0pcxikrSwiSKk/uq7EKkAaAz1PDVg8dmBqn2i9Cd7kqendVHijztHanpwHdPEr5tJC9N1Y10XcOw34EsheteXcyyeHcuoJxn/VjHRkIsy+KH/8PfDHsYqUxFYb7Z91nfBJP9iY6vH6ZoDlTPW3N4pZ2QtCKOBXLiQlQyyx7Uzi2MqKOiGbhvKfhJY7vrrefg6CTauPTDPnDcN5hd0aXwo42LRFPKsvjiKoPzCreWMu0VNG57XFINdEcannsqnnoqJrK+FJFee10OAEan7/Pq67RXxEnLtN1RUdF0wP3sUkSW33KGffCY1jQeJlUHnroKbpoyxHwVgz/4+bCH5ImiMKnv0y6IVMw6upsE1tHFTQwBWJbgvEzrbp56ampUtEWT0QCSNIGqyIFdkxA6wb+7EFHKRtQZxyclaeMv7gpjznGKOJmf+zPamuNZxndPsnd18yGC49ozraikabpzWjKjkjZPEQY4AoCkGPj6UcJDW4G6YW6JBTiSrbHN1ScFBI4OoXHDwKoFDp9fiqiX+dlnyAs4dHoOgMJkZziPTE4UHZoGB6/H8g/rb6lXkUW7EcXt49x1OMsSvDjh8fllBqXMljNvg8fHx0coSrRrb6Is3QDaAxUfmjKGk+WtR44XoP34l0MambeKA0QCc5A0DOC5r+KrBwmDSbopEhURApwWOXx+lQEB0OgpeOpR97QUItdlGAZ0TUWn1fD1OoQAlTyLd+fznk/HqEqlgn/6az8T9jBSmQpq3jkEc3508n1vsll8B8fDLsKxZCUqyWyNSoYFjoYBtIamy+pQw/bmDhse8Rsct4DH2tF7wWIOZnbAcSvGLv1zNzSunWfDGOeHrI+KIQS1IofPr0TUihyYEKBx2+MGAFkx0BrSyORzX9yfgwAAIABJREFUX8VU1qFZy/kDgdERLNqKKm57D208f+VhAuq4+vmliFphy/hX4bHVakGW5RQcD1B/rOFDU0FnuLsXXb5Ywfj7fyO4gfmsOIDkt5/9Me5bSgokERLLELyq8/j0hQjO3Ho0AGi6gfaA7gI2egpUzfAuBSxh6ndbUBTJU8dWQuiu8LtzATnxeMFxk9KI5LrkT/4zAIDwk/8x0Ov6Ne94hjnmiX5Y/n7IA9l2Ou8usCsqGRY4AtTXgNagrrusJgkcIxlt3PoeETAMhZQvLkWcbOgp6Bc0ugFMXTcgqwaaAzPNta9AUgxoulNg9BgW935ct0Pi9jPTkqLPL0W8qGxpn7It8pjWODrXVKHpKk89Zyl3hDDAn/wdH0cWrOIAkQDwo4rLyTyVZxI4gi+vMnhR5bemPekGLXR/6ipo9FR0Rxo03UhrVDfIMHR020/QVPWg8zAEOC1xeHcuQuS9X/QlRRzH4Qf/MDkbgG5lgeOqggZJwLv5x2t4XJRtkIwROG7SalSy5GFfSScwKikGvnmUcN9RlspUjg0c/Yk2bnsVtw2KzFiTZQguKjw+vxJRys5tPQ8FwSDSXnXdgKQasx6Tzz0VsmrMI5PW8+lBG8+1+KzdT1l/r2yD4lZ23D2mfIa64L48ZbAJH3fWPEqSBFVV0Wq1dl7k2CWrdFfrsa2s2wA7FPnTX/FoVOErhchU20QIcJJn8eV1BuXcFi/oDdJ0YDDR0OipeOoqGMt6Go3cotGgC03THDu2MgxwVuLx7kI4yBTjGHWMEclt4LiqOIGkn+C4SVth0sOvn6OohA9iCAHH0WyGugmTPOeur6QTcDQMoD3U8PXjdClldS9I71nMBwOO+6HjIHD0ONo4f/qmEZG1QziW4LLK44vLDHIiEyg0em3Go5mRyec+Nd9p9lVIirG9xdjO6KIdWLQHintjmFs+t1mB4O2ZiHfnLDYtA2y5rcqyjF6vl0YiV6RqtDbrtil7Z8dtKkkQCcQDJFOIDEYMA1zXBHxxNU9TdSrDoDdr60ZtRfvTaORmqaqCro36SIYBLio83p6J4OwzfaoVXVxc4Hf+3l8Kexi+yy44rirqIBk0PC5qBpIxjzrukxWVtNJbSzn7Dq5O4FHVgfuWjG8+zl1WowGOu/+GvX/j1v6N67SxMWa4QoKbeXbDkVsiobsjbJsiawQ8S3B9So1ZssJ6fCsoaPTD1VXTDUiKQc13+iZMqrvWKLtgf8MjTkHRxod28RGBI3hZF/D5Cw78htCj4z6PNzc3Tp6eSOlmv6CbZxnDqb9hjxQiw1EKkv6IYwm+uBRxfSrYdufbJ90AJrKOp66Kp56C3jg12dkmTVUgTScYj9Z79bIM8OJEwJszYWPvzVTuldSIpFt4XFWU6iTDBMdV/dCjeShq4LgJXHjO7CtZ4lAv81sdXJ3WTsoqdVm9b1GX1ciDI9kXLbIfbVz+52ZwDDrauHiUwBG8PhPw6YUIcYFQDoG+qNRJrko3aGmbtdndGtA0V2up4vRzaR8Ut7xfO48j4Bjgssrj80seuQ3tOhzDIwBMp1O0222oB9bVxFG9sYYbG2Y4Xuv0/Bqt30uO218KkUcmApRzLL53lUGl4F+fQE0HuiOVprX2VEhKmta6S+NRH+NhHyxDcF3j8fI0BUe/lRSQ9AocVxV2VDJK8LgqtzAZXXjcPA6OAXKiBZJzB1en4Gj1cv76UdqyZosWOPpe37gPQHaCo7NoI9k40AWUJYDAMXh7LuDduQiB2/z+RjH66IX5kw5gImPWY7I9pGmuxpa86q2w6BQU7WxggPoeUMdVHpUNy3VX8Gip0+lAURRMp+E2rw5CE9nATVPGs0MzHK+VK5Qw+cEvhnZ9r5VCZPLFMMDlCY8vrzOB1dAZBnXYoxCpoDVITXa2iWMJrisGLk8Iet1O2MM5KsUVJP0Cx1WFAZJ/x4s5KYDbnF2QjBs4rv6GEHqPqhUoSDqpldR04L6t4OuH6Yaem8cAjpujjWt/z4bxLT/kMNq4BxotiTyDT1+IeFMX14yU4gKSXskAMJaB556GRk9BZ6hB3pTmuuWztP3juH/Ma2cyHzjJs/jiSkC9sOGYQ+BxUUlNZ1VUA3cemeF4KV4Qof7L/zjsYXiqFCSTJ5Yh+OxSxOu6d2mqTqUbwGiq096RXRXDaZrWaoljCT59IeLVQsRR13U0Go20XVOAKpfL+L3/6t8Lexi2FBQ4ripWIBnwvW4bSMYdHDeJXaiVrO+plZRVA998lHDXUqAtrd+OFxw9SVN1kaK6fBj9R0ZgZmUsi++hHaALGyT9lgWTTz3arqwz0iArBgy4B8VtkLhNeZHBF1ciriobzuUVPAKAoij4+PEjjARs76s60OgquHmWN+xYRUtpXWQ4SiFytwpZBt+7yqBW5Gy1NgpCmk7rlS23VlXb4YaWcHEswRdXIq5rm8HeMAyoqorHx8fgB3fEEgQBf/jrvxD2MLYqLHhcVKRBMgL3OgsmIwWPO9Lrdj+645SEmH0lzRTXEg+Bn9dKdkYavn6Q0F5KWU0KOK7Ronfg6Fu0cflJOZHB964zuKzSzUu3QBdUlDJsjWSg0dPx1FPRG2lrPUstOYXETUcTABmB4JMLEW9PNzzLS3i01O/3MZ1OY5nOGqQZjpcqlE4w+sO/HvYwPFUKkfEUwwDnZZqmmoloj0DDAKSF3pGdoQbdOJ60VoE3+2uebO+vuap2u43pdHqUte5BSzdoLUxLLqL5+38t7OHMFAVw3KTIwGREbneLw5hHJaMddXQ+unV44phlB9eRpOPrRwmyoq8fZ+Oi22Fr+4OegqNNR9WNI1gb+qa/299oI1k/8eyfBEAxy+LLqwwuTvi1NOQwoDGKwLhLQxl46lETnt5YcxDoWnjfd/zJAsfgdV3A5xfrT/MFHi09PT1B07TYpD/1xho+PMvojrTYLiLFTA7yH/2HYQ/DU8UFIoEUJFmG4JMLAW/PxdDSVJ1KN4D+mPaObHQVTBLeOzIrMPjyKoPzivuIcFLLFKIgwwC6Iw3fNqSlDUxByED5l/9RaOMav/pPwfFcaNe3q1BBMiL3vG3D+GHlB4GOYyY7IOXmhDsOEjmaki/yDJp92i5BVo35vd0pOG48Jvrg6J8pjrtoIwVH+thJgcUXVxmcleebmFGKPsZNFCZpC8HBWJ9FJvd91OZafhLHElxVeXx5RbAaB/AVHi31ej30ej2/L+NaE9nAh2cZzX64ZjheK2nprEB8QPIYITIr0BSUs3J00lSdyDAoSD71lMT2jixkGHxxlUG95M17NJ1OMRqNMBqNDj9ZKgDASNLxbUPe6+gd9P09qlHHXQoFJH823DnK9teaAD8sBwCTnoOjecQe7qrkWHx+lUG1wIEhtO/eWKK9gZ97KvoTbauPRfzAcXM09fA01c2v8y4n1X3RxsXn1YocvjRLW5gNu80pNB6mgQmTTz0Vg4kVmdzyN294SxlCcFbm8OU1g/zKvmEg8AgAqqpCURQ8Pz8HcTlbUlQDdy0FDx1a+5RUVesv0Pn9vxr2MDxVXCASSD5IEgLUSxy+d51BTkxGnwfDAMZm78hGT0F/rEMzDFrFHkcRoGSmCFULrC9w3263oSgKJEny/uRHIkUz8G1DxlNXsV2LK2aykP/ob/s6rjiC46qOASSdfK0Di0LugSmvwRGg6au0R91y/0BLBqgbd3uozVolKJphBg/s1Dn6BY5kx58XMDj6FG20xDBktm6o5Jc3M/2ExqQD4y7NYVLDYG3zZPPrUi2w+PKaxUlm+fHA4NHSdDqFLMvodrtBXnZJqg40OgpumtE3w/FS+UIZ4x/8zbCH4alSiAxXDAO8PRPx6Yv4pKk61VLvyK4KSY1XWishtMfml9cZnOTZQK45Go3QarUCuVZSpOnAbVOmzpAuM2A4XoD241/2dFxJAMdVhQGSgP8wGbeooytwtHGgYKasvqwJ4LY4sS5CBI1K6rOoZG+sQ9XNzcK4g+M2aJz9cDg47o42bgpdErAMcFGh3gilLLvwK+eQmEKjOw1koGHC5Giqz3lo4XOWz7D48orF+Uq7jsDh0ZIsy+j1ephMJoFd0zLD+fAsYxQjMxyvlcnmIf2LvxX2MDxVCpHBS+AJvnedwYsKH8s0VacyDEDVDTTMaGSrH32THUKAaoHDl9fi0gQdpIbDIQaDQWxq38OQbgAfOwq+bcielk4cmtqaRHDcpCREJZ3cgseSgT85/6Gn11+THZhyc8I9B9GUVQ6fX4pbnb53gcQsKjnQKEz2afN23VgnyXiD46a/ZdMgNpniuIs2WicioP4IVzUeX17RjKUUGsNX36qZ7OoYSzoUzUBGYPDZCxYvV9p1hAaPi7q7u4Pu41a+AWqIEXczHK8VtgGDX0pB0l9ZQPK96wyK2WSkqTqVbgDDqWamtaoYTrXIRSOtdOIvrjIoZKLxPjUaDWialjq2LsgwgOZAxfuGjInsz4eoVKlh8Ac/7/i4Y4HHRcUVJCMVddwWidr76J6T7gNH0HRIK2U1syFl1Q5MbItKPvVU9BejktZFl/+x4Xy7fn8AOK6xmQ1w9CjauHyIvWjj4qMcS/DyVMD3rjNrqcX7ADCFxmDUk4H/n703D3Iky+/7vi+RiasOoC6gjq6e6Z7e6dkZcs1zN8RjyFhaYYmyI2zT1F/+ZyxH2Az7PyskO8JhB6mQHTpM23RIohmWKDlIh7zhtWMt7mh5Lckl16R21zSXuzN9THfPdNcFFFC4j0zk5T8SQCUSLy8ggcwE3jeiuzJfvnzvhyoU6n3yd7xK04gwu783eS0S8AgYe4o1Gg202+1Ax+0PNLysyCtXDCdoseI64SouEMkR4O5BEg9P0isbpupX470jG/I4dybsB1QcAQp5AW+dpJBJRgMcrbq6umLeSACtvoYXJQmt/nIebGY3t9H/6l9y7beO4GhVXEDSDzj2xPC9josCRwAQeIIHhymc7k+HrPoFR6t0AKoK3HSUca7kQHHeK3gucKQ6F6fBcdn5jbN6G82NAk/weiGJN4/TSPKjceeHRAaNweumDzy7ArJpoJgDChsRgseRJEmCJElz50TKqo7z6uoXwwlaDCLDVZQhkk8YYaonu+sRpupXug5Iso7ysFprWHtHchxwtGOEA43+KEdZvV4P/X5/LSu2irKOFyUJ1bZzZdVFivaZz8BxWlHOk4wUPHrxxM0yoMNN5ilzw5DV/S33IixT47j0sV5XNR39gT6uzt3qqVBMFbrjCo7T1VS9eBunx7d6G80DJHmCN4opvHGUQpJ39xAzaAxPXRV4dA7ctFVoOpAgEYTHkdrtNlRVRavV8nXfuhbDCVoMIsNXZECSGGXP3z5NI5cNJ28ubtJ0Y9/YUbXWZe0dyXHAya4RCpSIpsPRUdVqFZqmQRTFsE1ZuFQN+PhawlXNe2XVRYt8468ycPSgKIFkNMFx6sSl1WVAj15HjiM43hHw5kkaacE/XPiFR7N03EahVJoKrlsKBrKdV3KR4EjBOAs4jntQPIuBFMWx8TaaX4LAc3h4nMLrxRQEk4eYQWP0pAB4dAmU6hrU4TomsvA4UqvVgiRJroV1NB2othS8qgzQlSKWfBRj7RVOUPuNHw3bjMAVJ5AMEyIJAe7sxRdGwpYOQNOMvSNH1VoX5Y3kOODuvhEGtAo/q2q1il6vF7YZC5GmA+c3A7yqDMZ/jKMi+eYrYZsQK4UNktGExyDAcXiHR3AERiGraZweCOA5eyChjjMHONKuqZqRNnXdNIruNLrqcN/gZYMjxds4MzhawW26zcnbaJ5/VHDv7jC8mOU1RltPK8BZVR9v7xF5eByp0+mg1WpNFVrQYTzhf8WK4SxUq7hXJMAg0kkcB7x1Yny4s8/o+TXaO7LcUHDdlNHsGSEgQewducpbpgwGA/T7fTSbzbBNCUS6DpSbCl6UJcgRi45h4Di/woDJn3ULbR2CI4DFwaMLODpfcejtcJMVknIZDm+epCdCVsMAR2v7qFJ3ra3ielh4ZyBrFq/kjOBo+b67gqOn/EYzeE+3zeptNJ9kkhzevpPGCWU7FeZtjJ5eNYDnZWAgxwweR+r3+6hUKsbxQMPLymBYDCdkw9ZEO/uHaLz/bthmBK44QSSwYJAkwFbaCFPd3WRhqouQpgP1jjLc9oO2kPAujgPeOEzhfnH1wNGqZrMJTdMCL6y2LOkA6h0VL8pS5LaLYuAYvMLySk7BZOy8jj7BEUbI6tGOgIfHaaSTI49ZOODodI0QMqzgqqPSMvLjDa8kpYDrrOBI8QjageNs+Y3T3sapGSneRnOHrUzC2OprR0CCo/+8GDRGR+Uu8PjCyNMHYgiPACDJGp6ctfHBs0tWDCckEY4D/uTfC9uMhShOIBk0RBJiFFt5+zQ9kYfAtBiN9hQb7R1ZbRmFU7xGUHAc8OZRGq8VkisPjjRdXV1BURToMQk56UoanpekyEXJMHBcvEIDyZ8w/p4tFB4DBcfhHS43WdGITwAPjlJ47SCFBBddcLRqKleyqUBS9Nsc+YWBo/3+jfOFqVq9jZNtxi0E+WwCnz5No5ATwBFnUGTQGL4aA+DDc6A9zCCMFTzKqo6LGxkvyhIkWYeiyNA1Dc16JWzT1lZcIgH9j38mbDMWojhBJDA/SHIE+NRxGvcKLEw1DOk60Ba18ZYfbntHsrDiW+m6jrOzs7DNcJSs6nhRGqDclCMFjgCDx0XL+uspLBkk/8rn0gAWFLLqAo7OV2x6+wJHAIRgO8PhoSlkdV54XAY4uuVKmr2SkzdOHswEjtPfREx2DTZMdTzvcI7dLR5v30ljb5sH5wCKDByjoT6AR2fATcdYq8QCHtVhwYlnJQmd/vRqaiD1oWkaep0WNE0NwUImACtZoRVYD4jMpji8fZrGwTa/AIuY/GpUAKzcMArtKJa9I4UEwVts25QpaZoGSZLGqQ1RkaYDLysDnFcHkamsOhIDx8XLCauE5/944fP/lc+lY+J19B+uCpDx9kQPh1VWo5Dn6NbuNVdy5JUc5UpKsg5N1xEuONqHqdp6G00/W44QHOQMeMxv8kOgZNAYZekAPiwBpYbxnow0POo6UO+qeHYlod5VPJW673VaEMUuNJVBZBhKcATan/xs2GYsRKsIkYQAxZyAT9+5zRNhio7Me0eWGwrqXQXCcL/NwzwDRyfpuo5Go4FOpxNqWKuuA5d1I2JmGdu1+BEDx8XLBVGmWhYBkwuDxwiEqwLGHsRvHCbxeiE1VXyFOkYMwJHWpmlG0TWzV1LR7DIlad/LIArjzOZtvG0jSHDAYV7A26cZbGU4Bo4x0fMa8KoKKGqE4bEranhWklBuKFBneFTbadUxkETmiVySCAF2N3ncLyaRTRn7BGSzWXzlH/xkuIYtSKsAkoQYhVYeHKVm+CPPtGzpQ29kq6/icEdANskxePShUqkEWZaXCpK6DlTbCl6UBhDliJEjGDwuQ37h0awgQHJhIas2EOLe6jDgDOAIAmyljZDVg20enEvyd9jgaNfut03XAVUHboYeSSNXcrSf8PzgOFt+o7230XzAcwTHewLeOc2M14t2r5cpOjpvA89LwECJIDwOFB0vyhLOqnIgxXBa9SpkZQA9ao98V0gCT3CvkEQxL9gW7fjar/70co1akuIKkekkN/ResTDVuKgjanh0LqLWVkAIQTHPo5DjHX/vmOh69erVUuZp9lS8KA/Q6kXvISYDx+XIKWTVj2YFyXh4HWcLVwWM3O/DvBGyagYR23GWkMvot33WNievZL2rQlV1GAGuVph0C1OdbpvyQfoIU51oIUaE2t39JN4+zSAljGxhf8SiropoVFyV5AjBo6LqOLuR8aIkYbCAva8aN2Woanyq8sVBHAEOcgLuF5NI8t5+8RlERkPaj/4rbHj4Q8sUDTV7Kh6fi6hbqnQSAmykOBTyAoo5HrlsgnkjPUpVVaiqilKptJDxRVnH85KEm7bCCuSsqebxOjrJD0guBB5dwNH5ik3vWbyOABIJggceQ1aXVSBn2eBoPdf1Yd58WxnuK0zJlfQRpjrZy2OYqmV8YvqP5wjuFZP49J00BJ6tQ+KitgZ8cAZ0+hGAR1UDyg0Zz0sSOkvY96pWuWKhrAEok+Rwr5ic2IzXq1KpFH77l39qMYaFrLhBJABkPv/NsE1gclC9o+LRuYhmX73dCMwqAnAwKtgV8zyKOQFJYWoZwGSjwWCAwWCAWq0WyHiaDrwoSbisR7CyavUr83ALkw8FhVZOcgLJxYeshhiuOjwch6zmJqt2To2xpHDVsMGRdq7pQE8yvJLlpoJGZ5Qr6Q6OQYSpksn/ICQIHhyl8KljtiVYnDQA8MElUGuHCI+6DtQ6Kp6VJDQ6ytIr0FWvL7xvpsY01qiq2b2CsZfSPNra2sKXf+nHgzEsgoobSDKIjJ6qLQWPLkRqlWk7EWL8cS7mBRRyPA62/T/gWWeJooher4dOpzPT/boOnFUHeFmJXmVVgHkdl6VFeR3dhhOe3cJkGF7HZYWrAsZ6pJgX8JZLyGrYeY5hgqP1XIcR4noz9EqWx17JqYnnBkcrNI6O+ATBwztpvHGYAs9yLmKlRxWj4moo8NgRjY2SZy2GE6Sq5fNQ54+TNtMc7hdTyG8mAn9wvarhrACDSCb/0gFUmgo+PBfRl2aPyCAE2Mokxt7IzTQrsuNHvV4PrVZrHOLqJl0Hyk0Fz0tSIDn7QYuB4/K0DK+j25D/9t6vRx8e5/A6Jjij6Nv9YgoJBwgJM88xSuBIO1c1Hf2BPt4Wqt6h7StpH7rqJUx1chgCIUHw9mkarwfghGBarl40gLPqkuFRVo0ckKCK4QQlXddwc30ZthmRFccBp3tJ3N1PglvwLzqDyGiJgWQ4uqrLeHQuQpID+pwchrUeDAvsFHO8p5L2TJM6OztzzJuvdVQ8L0nozQH8ixIDx+UpLK+jk47e/g8DnCsMr6M1pNJ4oP3wJI2CQ8jqrF7HdQBH6/k4V7JleCTLDRni0Cs5gY/jL97CVK3zpZMc3jnN4HSfFXuLmy57RsXVpcCjouo4qxr7XC2iGE4Q0nUNqqKgUbsO25TIiBAgl03gXjGF7cxyHw8xiIyWGEQuT+c3Bjgu6gEbIUBa4IbVWgXsbrIiO36k6zo0TcPFxcVEe0fU8KIsod6JXk49A8flKorwaO52OAtIuoCjD1Nue88YrgpiFOwr5gU8PE5jI01fnwQNjnbXVgEcacejXMlReGuto0LTTBVcAU9hqtY/MFuZBN4+zeB4l2fp1zFTTQYenS8YHkfFcJ6VJHSXUAwnCOnQoakq6tXFVOCLizgOuFdI4Xg33CdDBwcH+OLf/eHwDFiwGEgymfWyMsCjc3E56djDtVt+IzH2Rnopdc90K1VVIcsyLq7KeF4a4LoZvQI5AIPHZSsKIateuvmCyAiFqwLGdg9GyGrSNmR1GeGqQXsiowKOtHNVu63gWm4oY68k4Bymah0zl03gnbsZFHMJMMVLXRgVVxcCj2EXwwlCuq4ZEHlTDtuUpYoQYG+Lx71CMlILybt37+LXfv57wjZjYWIQyfRxeYAnl0sCR4sIAThCxrmRxTwrsuNVug48vZLw0Xkbg8EA3XYjbJMmxMBxuYq613EkSZLx2vf/nM8BwghXtbQMDzfSHN46TqNgs89tHPMc3c7d+gQJinZ9R8ejfSUNkJRx01Gh6bd1KKdsHxbgIQTY3eTxzt0M9jajs8Zk8iYVwHcXEbbaETU8K0m4jkAxnCCkaSo0TUNjDSBSSBDcLyZRzAuRXTjm83n83//9j4RtxsLEIHI99awk4dmVFAmvFSG3e0ce5nlsZ4MvkLUq0nXDW/zkQpx4SDqQ+hgMJIi92Sq2BiUGjssX8zp6GGxOryNHgELOqLJKC1mNY57jvHAZVN9Zro0quI5yJUsNBeJAu/VKmu7jCMFBjsc7pxnksuwvSxz15CZAeJRVHc+uJJzfRKsYTlBSVRm6rqNxs3o5kYQYuQP3Ckkk+fj8MrO8yOiJgaR/PbmU8HE5GuA4oeEab8+0d2RKiM/nA029Xg+JRAIcx4HjuIljjuMwGAw8j6UDKNVlPL6QIA7s0zJ63RaUwQCDgRjAK/AuBo7haGnwOAc4AgSHb/81nwOE4XW0eq+MLwnOeND9xiG9ympY4aphgaP1fNHX3PqNvJKlhoxyQ8FN+9YrOdru7e3TDDZTYIqhXgaxz+OoGM7zsgQ5osVwgpSqyFBUBe3GTdimBKJMksO9YhL7W/ENU1tliATiCZIMIr3p0bmIl5VB9MDRKgIkh3tHFvM89rejX+igXC6P4dD8ldZmBkiO40AIGX9tNpvU8etdFY/PRTR7quefX6t5A1WRoSpKgK+ULgaPy1dcvI6hhqzOGa4KGJERD0/SKFJCVqOU5xhG3mPY4EiTUcFVRWlYeGdvK4F3TtNI8dTuTBFXSQTI449e6ukk53uvFVUDSg0Zz2NUDCdIqYoMsd9Dv9cO25SZxBHgeFfAvWJqZUolM4iMnhhE0qVqBjie3QwMF1aMRAiwPdw7spAXsGVT6TAMffLJJ7agSPtnB49WgCSE4Obm9oFhT9Lw+ELEdVOZGfxrlUvouu649cesYuAYjqLmdaR3DdHrOGe4KjCMlMoJeHiSxqblsyfq4aqrBI5eXhtNOoCXFQVdScdhnsfe5oosQNdIDQ0g7//RU31vm8f+lrHvlxtIGMVwFDwrDWJbDCdIqaqMdrMORfYe7hS2NjMc7hdS2NlczUpXDCKjKQaShmRFx4fnIi5rctimzKfhWrAQkb0jnz175giOPM97hkgrOI7+AUD5umKAfzUoj7GOavnCvZtHMXAMRy7YsszJHLuF43X0G65qaTEdcoTgjcMkHhylF+p1jEKBnDiAo1doNOvjioIPzkRoGsBxBAfbPI52BBztcBCi8yySyUYiAPJPfuNDPZPksL+dwN4Wj/xGAjxHqCGMq1YMJ0ipqhL57T2hn+cxAAAgAElEQVQ4ApzuJ3H3ILky3kYncRyH3//HfylsMxYmBpHxkyjreHQmotSIOThaRYDMcO/IYt7YO3JZ+vrXvz6GvYODA6qncQSO5q+vv/4YQBLl8jsTADkaywyPAKa+/tN/+VGgr0PXdeiaCknqo9umh8p6EYPHcBSPkFUCSRp4g8cIeh0BIJvk8NadNA4thf3inucYBkiGAY4A8FFJwZMLCao+sWMkOI4gm+KGIJlAPp5LnLUQ+ZUvfaATYiQgb2c47G8b+Syb6cQ4lHXVi+EEJSMESUOtchW2KRMiBMhlE7hfTGErs36Pdba3t/Eb/+OPhW3GQhVHkFw3iOxKGh6diai0Fp/vFqoIsLuRGFdrzSQX95nzta99bcJLOAJIKziaoZHneTx48GcAUsN/SdRqn6GGrVq9jtbF0q++/3Rhr02RB+h12xhIfc/3MHAMT1ELWY2v19HqTjQdEqCwLeCtO/5CVpcZrhpEn1UGRwB4fKng2ZUEVTe/zYafscP/CTFgspDjcbTD4ygPrN/qNboiv/KlD8Y0yBEgkSDY3Uxgf4vH7haP66aCFyUJMoNGzzJyWHQ0axUoSrgeBo4A94opnOxGd/uNZen4+Bj//G9/X9hmLFRxhEhg9UGy3dfw4bmIWnvFwdEsAiQIGXsji7lgi3L93u/93hjszPDIcRwKhcIUPPI8D0EQhvD4DYzAEcig0fihidBVGjgCkwumUa7iIgFypIHUR6fVgKaptn0YOIYn57d1DOFxiV5HmnfU7iJHCO4fJvEpS8hqlMNV5/VCrho4AsAH5wo+vpagaRj+jE3gODH2bRQkRwyv5PGugKMdYCs5lwlMc2oCHkcSEgSHOwJy2QRqHQXVlgJF040fNJMv6dBxE2A+i1cRYpTYv19MLvTJf1zF8iKjqVWEyEZXxYfnIppd+4X/OmgzzY2rteay84W1/s7v/M4E3FnhcQSQVmgUBAGCIODBgz+Csd3xDoAttFqfm8p5tIIjTcsESGM+DZLYR6dVn2hn4Biu4uB1DCdkdQ6vI+WeTJLDWydpHO3cPgx3+x1dhHdxnraw8xrDBkcVwAevZLyqyhM1U6zgSCYeOgzhcgiahBgwWcjxON4lONyayySmGTTpeeSA3U0eDw5TyG8koOnGXi3VlgGQja4KVdOjX1Y+oqqWz5cyj8AT3C+mAn/Sv4padYgE4gmSqwKRN20VH5730emzJ29m7W/zOMwLKOR433tH/uZv/uaUZ5AGj4lEAoVCYQIck8kkkskkHjz4IoAjABkAW+h0fowKj3YaQaO5UuqyAHIkRR5AliV0200GjyErDvAYd6+jXcjqosNVGTgGB44AMNAMeLyo3cIjsbxPJucx12C5fRhBTDdwHMFGisPRDoejXWBjNWtBRko8YPxSbqYTeHCUQiHHj8MBEsR4WpxNJpHLJgyIbCvo9DUj0ZVBpC/tF+9A01TUb8rQF+DGJcQoYX2/mITAM2r0onffex+pVAq//cs/FbYpC9MX/9DImYoTRPa/+sPj47iCZKWl4MMzET2JgaNVoweSSf5278iDbW+bfo22t3DLRwSA6+trFItFcBwHTdOgadoQ+HoArgCcAEhNVF21A0caMFqvLVO8kAQvJNH45H9f+txMt4rHX9owrPQ7p7PXkYBgK8Mhm5oPHIPq73ZvkODoZT7ataiBI2BsU6UM/yQ6halOehut5xOkCV03Cnp+dKXjWWmUK8nheBcoZAMxm8ki8k/f/1B/cJjCnb2k416Pug6omo6bjjr+wy/JOqu6OqN63Rakfg+qGkwOVCbJ4X4xib0YbN4dZTFPZHQVJ4gsNRR8eNaHJLPPR6/KZRPj/EhrMYyRvvzlL08Bo9nzSPM+FovFsdcxlUohlUrh4cN/CGAbwAaAu5Ckn5mAR7PM0GgFSOvXf/aVZwF/V5x19eH/stT5mKYVF68jAHfPY0S9joD/kNUwvY6LzHMMw8sYFDgCQGcAfPfVANWWOuF/cgpTpdph8T6O3hTk9iIAI+8+myY43gGOdoF0YK9kvcX/xNubnvbmIgTgE8Z+LLls4tYT2VKg6iwf0q+yG9vIbmyjWbuGDsy8TyQhwMmugPvFFAtRDUDvvvf++HhVQTKOnkggPt7Ii5qMR+ciZIWBox81eyqaPRVPryQUc8IQJHnwpsoYVq/j6FjX9TH4mSEPAMrlMg4PD8cwyfM8hjtVYbhlNdXbSANEN3hcphg4MvmR5yqrgShoryOwlUlgK5NYGjh67efl3qDA0WncOIAjYHgeVQsvWMHRLUwVxHxGLM8piOk2Ak0HOqKOp1cEH5WMIpLFPHC8C+ylgnxl6yXe76bOHAHSAsHRsKBOLptAtc3yIWdVbrcAAGg1bqAqsi9P5FaGw71iCjsswHsheve995FOp/Fb/+jzYZuyEI0gEogvSEYNIs+qMj4877OHafNIB8oNGeWGjEyKQzFneCP/6KtfBoAJaBydWwFyPNTwD5IZIA14JDBKNwwAJKBp2lQYrB94HB3/+3/xHn7ttz9e1HeGKWJamtdxDo28jq4K1OvofINvtCRGyOooIiFooLGbc5Y+iwxPnQXwogSOAKCoxj/jk9O6p7xd2KoNONp4G4kJOi0t0HTgqm784zhgI2WA5HEOEAJ4fesib0kmFCU4YDPDIZtKIrdheCErLQVdkeVDzqLt/B40TUWv24bY6zj2JQR47SCJu/tJ5m1csERRxLvvvY9kMonf+Z//9bDNWZji7o2MAkR+cj3Ao3MxbDNWSn1JwyfXA3xcFseAZ/Y2mr+aAXIEema4K5VK4/BVY8cwAkADoCKRSIzzIb14IK3XrMeLFvM6rpk8/p136kYIlvRwP1ivIwAkeTLhdXQcbYnhqn77LCp01Uu/KIAjMMp51OEFFCfDVMnk28MTOBJYhjTfOsyVBJ5eAR9dGVxTyBkwucNI0lHk7Oxs7o8TXQdUXcdNy8iHrLQVSLLGnr7PKEnsQVVV9DrNqWs7mwncK6awZZMTxLR4rWo4q1lxg0izwgDJ5yUJTy+lpc+76mo1qhhIBpBvik8A3C4orJ5H87G5+uqoGE4ikRhv1XF6eoof/MH/FYCAUumvo1gsjufsdrtUiBzJrWDOP/+9s/lfuIMYOEZHS/M8zgiPI6/jf/zX/ibqHRXlpoLrpoyepE2DpIPn0d+rIY43OI5OuY+AYH+bx6fvpLGVmc5Jnujr89o8QBm01zHoPMcogiMAXDaB776SMBindVDAkZh9hbCAIzG9xeyh0XJIPb+dFxOdCIwoy2wKONkDjjeNx41MtwoEHkfSdGCg6GMvZLWlQNN0sJo6s0kSe1DkAfq9DjgC3CumcLInRCggZr3FIDLaWhZEPr2U8LzEwDFINesVyIPJ72m292gqN9EKjdZ/5sI5o3xHQRCwtbWF/f19pNPp8fYdqVRqGNJ6O96/3N3FHoDP1eueF1Rf+IPF7evLwDE6ijo4ApPwaFajq+K6qaDcVNAVzYVLbGDKmwnAxALei53uXkdCCO4VknjrThoE/gHRbzsDx8WuMM/rwHdeScNimz7zGwPwNtqdTz3zMA1JiPGvmAdOdoFtRpKzh63SNMqHPN418iHz2QQqw/0hNZ3lQ/pVKp1FOpPFaXELu8kOUjz7BkZJo+I6qwyRLC/SWY/ORXxyPVuxKya67PbD7WU/jWzvkeO95hDW0fYcwC0MqqoKQgiSySQkSYKu61BVFaqqQpZl8Dw/DmH9B6+9hiyABwA+2NnBw0plyutplhVsmZiiptH7c2eTx84mjzePgVbv1iPZ7mtTGUe+39G+vI7uSvIE29nEzODop39Q4apB5jnaXYsjOALGNh0GC7iErVIg0tRzEhxN4/j2NjpA40g6DJtLdeMfx5m8kvFaFgWmQD2PZukANM2ooDfyQnZE1fBCMgbypJRA8PA4jeOht1FVVTSbTXQ6zjmRTOFolSHSrLhBpFlBgaSmAx+eiTirMnAMTjqqZWevnRkerYsep9BVa/gqz/MoFotIJpPjUFZBEMbwCAC/9OABkgD2AdwH8ONXV9SQWfNXjuPwxT8qBfHNmBLzOkZLUfc80ryObnDQ6qu4bii4bipo9gyPZKheRxDsDUNWt2cMWY2a13HWvovwRi4bHAHgeQV4ciFNebsn5g8qTHUGb6MjSFKglMCAyeIwV3IT66GFweNIum4stMyhrJLC8iGdRIix/cbDkzSSPP0X+uzMyKsJo0Q8k7NSqRR++5d/KmwzFq51hUhZ1fHhmYjLmscqhkyu6nVb6HVarv3SnQ98ha5acx+tIayjPSBH4ayj9lFf8z+70Fjz3F/6k+pCvj8X3/kVcE4bMTMtVc7L7AAX4TOCIzANj37hoCNquG7KKDeM6DFPVvjyOnqAR1PIKhcBcKS1LSNcddGhq8uMmHhaBp6VJOi6zeubARyD8Db6hcap7sM2jgDZtBHeerjCW4EEGrZKEyFAggCF3HB/yI0Eqk0DJFkoq0UE2EhxeHicRjHv/KM5PT0FAFxdXUFRFAaREZIkSXj3vfdxenqKX/+F7w3bnIUprhVagdlDWiXZAMdSg4FjUPIKjgCgaRoSicT4846QyW07zJ+DtGvmf5qm4fr6GoVCYXyd5/nxHGbYNIPo6Hg0h7VtEWLgGBctbxHuJM/bczhoM81hM53C/WIKPUkzQlsbCmod79uJ2csdHAECITGsshrAjEFo3tDYWUJSvfaLYogqTYoKmOlspvxGE9X59TY6eh/doJHWZhlPB9AVgaeXwEfkdl/JkxwQv5WSvRbuebRK04GuqKEy9EQ2WT4kAOMN/XohiTeP0+B8/k53Oh2Iooher7cY45hmUq2j4tmVhP5AA/nGXw3bnKUojiA5khtI9gcaPjgTUWkGsXhiAoB+r4Nuu+G5P9/4NniedwwftfM8msNXrV+LxeKE19EMj1bvo50XMpFI4Mvf8v5avIqFq0ZPDkv7ZU3k2G2WkFWv6g/0sUfypqMM05AW4HUchqy+dZJCfsP+YfoqhKsu2rPo9XjR0gF891zH2Y08DIn2A45mUDRd9wqOM3obPXsfad9GyxzmfSULMd8KZOGeR6s4Ymxuv5FOIr+RQGXohexK65kPSQiQyybw5nEae1uJmcbY3NzE5uYmGo0GFEVhEBkBnVVlvCjfVovUP/sFcFwC+p/8TIhWLV6r6o3siBo+eNVHreMlfIvJq2jbETlJVdUJkHPaUsNOZs8jIYTqgRz9s8LjqAiP1QtpLs4TpBg4Rk9LW2rPCY4TfQICBEIIsimC1wspvFZIQRpo46qtlZbXh2revI6AsVbczsy2LqKO6vH74KWf33DVWa75hbwogyMAqDAK5gDO4Ej1Ng6bqN5G63mQ3ka/nkzr+Ka28b6SVq/kFhC3CNelex7NGuVDVkz5kANZW5utPQgBHhyl8EYxRX8DziBd19Hr9XBzcxPMgEy+JKs6nl1JuHbxTjFPZDyU+fw30eqr+O4rEU1PeT9MXqXIAzRq177u0SvfgiAI1DxEwNnzaPVAWj2RHMehUChMhazSPI+08Qgh+K1vdwP7/jBwjKbW2evoNI6k6MNiOzKum8qEH8CCVXYXJvokeYJP30njzp4QiHfRrj1KXsdFeCCjAo4AIOnAd17qE+ujWzuICbp8gOOc3kZb76MHSHSEUpc26xQjr+TJHrAXgyyFpXsezSLEyIcs5njkx1t7yKi2VjuUlRBgb4vHw+MUtrPBPVUzxibY2NhAMpmErusolRZT+Y9pWs2eio+uJHRFdw+E/tkvAFh9iIyzJxIwvJECgGb+d8M2ZeXU63rLczQr//Avo/3st8bnI2hzk9VDac19HMl8PMqfNPcdeTtHXkm78ZmYoqJlgCMApHiC030Bp/sCZNUAhPIQJm/Xct7AkcDwOm65VFj1oyh6HZeR2+h33kVKVQFl5B0iZu+jAziaXIKBgaONt3FW76MnaKQAo/lk5JV8cmGMTwhwuAOcZIEoRriG6nm0SteBtqgZlVmbMho9FbqOlYLIBEfw8CSFu/vJwLyNTtJ1HbVaDd1ucE/EmaZ1WZOHFcRmu3/VIdKsuIIkAPw+g8hA1GpUMZDE2W6u/r9UD6JdERun/EeaN/Lg4IDqdTTfY742GuP3HwVXRIl5HaOrpXge5/Q6ArNXWbWdy+c4o/7KGCRllJvKbaV9F3h8rZDEp++kkbApAhFVr2PUcxvDfMjVGgDfeamh2Vd9gOP4iq1n0C9EUsdwOafNEwQ00oDV2s6RW6/kjnW+kBQpeBxJ04F6R0WlJaPSUtATNWhArPMhCQGKeQEPj1PIpsLxSV9dXUHTNKgqC78LSqoGPC9JuKoHs3AkhAD/6mcDGSvqijNEAgwk51G7VYPUny03W698yzYElQaLbiGstGMaQLrN+YdPg8l5ZOAYXS0FHH0MZwePQYeszjIG7R5NB66HEFluKlDU6UUdAQGfMEJW7x4kfds0KyR6bYtyuOqsXsllqS4Cf/5SQ08yPUFwAUdXyHMBRSucuZ1PjUk5nxca/YLkuGk4x9grmQaCjV30rlDDVu3EEWB3K4H8RgL5rDKGyIESz1DWlEDw8DiNk71wnc9HR0eQZRmtVot5IgNQu6/hoysJ7X5wMK7rOvDZL4BLJKD/MSuuE2X9ZMPYy5NBpH8JQmpmeBwVurGTXTEdc9ipOfzUfDzqV6lUcHBwMD63hqma5XTNrxg4Ms2qRRbK8Su7eTkCHO4IONwx1kJlU2jrQDHqbwLDkNWs/e+UX6/jrJoHHN3G8tIv6BDVsEPrFQ2mBwYRAUef3kZXkAwQGmn26DCiMa/qwBVu95W8kwdyWJ4iCY+A8f1KcEAxzxsQuXELkXEJZSUEONlL4q3jFAQ+3F/akQRBwN7eHgRBgK7raDb9VTtkMlRqKHh2JUFdUHUnTVWBNcuLBOIJkgwi/WueyqSJ4mehlr/hOob5abw1N9IOGke2cRw3AZB2GoHjN18mEOvQGKbYKRoritlFCMFhXsBhXgCQGYe2XjcVbGcTgVVZncfrGPS8tGuLOPZ6fdlSVSNaiw6Ok1txOIKi9dwCin4h0nV8yvlM0OgBDh3bKW2aDnT6wGPRuIUbeSWTi/2MiGTYKk2jfMhKUx7vDzki8ChqM83hzeM0ivnI8jkAY0N7ACiXyyFbEg/pOvC8LOHiZrmbxPO8APX/+XeWOmeYiiNEmsVA0lnyQESzXp1rDLX8DddQUqc8R9pXWtsohNVu/EKhgP5AQ7mhoNSQUZ9hO5det4Xf/+J/je//oXfm+p4wLU7OC7EAl2kehzJ3o+U6AsEAw6y5jrP2UzTg2ZWETJKgmBeQSXKe7lt0rmNQ4auLyHuMcp6jWRdN4M9fGZ+PQYGjE0RODDOrt9EJRh360Oa2a7Ozg2qPmy2ma6NcyTs5YMuu34yKDTyOpOtArWNs7VFpKuhKWqQAkhDg9UISD4/T9j/wCErXdVxeXkLTtPETeKZJdSUjTDXsLRtW3RNpFoPI1VX1+mLup39OAOmW1+gFHEfH+/v71DmOj4+nbKp3VZTqxibq/YGzd/Smcgl96EH9xm/+d+N2BpHRk4MfaVkT2XaLYqGcWfvUuyoenYtoDP/O7m3xKOYFFHM8sin76quLzGt06xN03uMicx7D1Ms68Oh8tH7yD45+vI8Tw9iBo9N4lHNXkAwQGn0DI20uy3iEAEc7wHEAPq3YwSNgBAdpGnDdlFFtKbhuKZDDzockQD6bwMOTNHY3w0phDUblchmyLC9k0+u46rqp4HlJGuZlhK9UOovB1/7NsM1YmhhErp5kWUKzVpl7nO38Hpof/aYn76ITPDpBJM0LeffuXUe7RlUmSw0jWmb0cSr2u+i06lP9zfBoFgPJaIjBY3D9nfq8qg7w6NyaEmL0391MGCCZF7CZdvdIhuF1DNIDGTREhq3nN8BHlyrmBkcniKOAIhXmvIKozTltXF/QSANGSj/q/HbzUq7ZnIIQYCMN3NkCNmn3uyiW8DiSDkAcaGMvZKVlbDy6dIgkwJtHKbxxmFryxItTu92GqqpotfzvxbZq+rg8wKvqIGwzbLVOnkiAgeSqqNdtodcJ7vNFr3xrboD0ApEHBwe4f/++L9u6oobvPD3D1U0fHZt9YO3gcSQGkeFqKfAYEDgCwUDDskNWVQ14dC5S/t6SySMC5Dd4FPM8DvMCtmzyI4MARbc+YXod4xKuOtLTa+BFWTNBDw0ih9dmBEcniKSeu0Gd3Zhu41L6UMe3aZsXGL0A5biJDHMl88CRR99XrOFxJF0H2n0VlZaC66aCZs/Ih1x4/QIC7G/xeHiSCiy5O2rq9XpotVoYDKILT4tSf6DjWUlCra2EbYpnrRNIMoiMv5r1CuSBFNyAwz0gnSDQLg/SCzh+7nOfQyLh/bNeFEVcX19PtBnbUCm4aSsTkQxu8GgWA8nlynkJHj14jKvXsTEMWa1PpIaQ6SPLQS6bGIPkdjZhO08UvY7rEK460ocl4FXVeHg2Nzi6QOT4i1dQdBrP5nxieAeQpM1t1+YEjb6B0Q4WXfpwZOiV3ACytDmxIvA4kg6g1jYAstJS0FtgPmSCI3h4ksJrDvsQrYpG+0JeXFyEbMnydNNW8exKgijHL3Q3v1tA8ys/GbYZS1PcIRJYb5AMIvfRrEKOR/XjbzpCoNew1QcPHoAQgtPTU182VCoV9Pt9xz4DRcfN8O9Vo6v6gkezGEguXvZL8IAX5z7h0bo9R5DwuGyvIwCcVWU8uhAt+z/awSN9nO2sEdp6mBeQ35h80DOvl9F6vmyQjGu46kjfuQQualq8wNEGEoOGRjuQpAxpD4xusOjylrCDY0KMCq6H5nlXCR5HUof5kKNwVlkNMB+SAId5AQ+PU8imgtnbK06q1+uQJGmlPZGvKgN8fB3/17ezX0Tj/Z8I24yliUFkPBVU7iNgeCA+dZzCBuWzWRAEfP3rX3f0PBJC8PbbbwMAtre3kc/nfbwOGVdXVzPZ3RE1/KN/+LdmunckBpGLU5Tg0dwlbiGrTn1UDXh8IeJlxfy31wJgE030lTIxtW+mOQMkdwTsbk5XCYmr1zFu4aoAoAH49hlw3dSDA0cnsAsaIp3GtJzbtvmAxlmB0Sss+oFKs0ZeyZWEx5H6Aw2VplFQp9pS5g5lTQsEb56kcbIrBGVibFWv19Hv96Eo8QnpdNNA0fHRlYRqa3Ve00jrFM4KxB8k1w0ie90WdF1Hv9ueeYxMksObx6kpb4Nf3blzBxzn/cFgrVZDp9OZa04A+Hu/+PNzjzESA8lgtRR49DjUqNsivY6zjDMvPDZ7Kj488x+yOjk+vR2EYCPFGftK7gjY3Uwszes4D1SuSrgqAAwAfPslUOvoCBwcPUCk47hu507jW+ewnE/Na9dmHdOpfQZgdPi1malvtDchnFOZJIe7B0nkNhLIbyRQmTUfkgCne0k8PElBSETvlzIM7ezsIJPJQNd1VCrBeA3CVKOr4qMrCT0pfmGqXqR/9gvYzu+h/Vs/FbYpS9EX/9AIGYwrRP5k4/bntA4gmd3YBgCoqgJlMICm+dsOh08QvHaQnBkct7a2sLOz47m/pmk4Pz+faa5l6P/71gfjYwaS82kd/+IvKmTVSe2+ZltM6naiqQO7DlNtPUnDi7KEF2UJmRFI5gXsbxvLYL9eR6/X7PrNCn5u0BtFcAQAVTe8yzQaCgwcHSDOCRzdoNLT+JbzqXHt2lzg0G/7VJPL28HueYubVtrzaNUov+S6qaA30DwB5Gaaw8OTNAq5lebsuaSqKiqVSmxDWc9vZLwoS5HaL3TRYp7I+GkdIHKkerUEVfUeAXCvkMTdGfLPj4+PwfPeP9ubzSaazabvedwUpNfRTgwiZ5MDMixroqludl5HIBh4WLbXUdOBx+ciPrEJWZ1eCNMAit4+ogFCaQOAjMAZxXZ2khPrvDC8jvN6JaMKjgDQVoFvfwJ0RXtYXAY4LiTXMWBodAJDJyj0Aox+YdHuLbVWRLS3xSOXNbyQ181hPqSm0yGSGAuSh8dp228ek6FEIoHDw0MAQLVaNcLPXIpFREGyquN5aYByQ3bvvGLSP/sFAOsDkXH3RAK33sh1gMid/UNomopaxT2H8GhHwJ097+C4sbGBvb09X/acn5/Hft9b5o2Mv9yWIlGGByd1+hqaPa/RBnav0aZ9ChwnJcoaXlZkvKzISAlknCNZzAnjtd+yvI5+7vM7f9hSVEBVLR4/83FQ4OgAcjOBoxOUWl+Ey/xTY3tomzicARg9w6LL74lVawWPgBHedLRjVOEahbJWLDlu+Y0EHp6ksbu5mttvLFL7+/sAgFarhUajEbI19mr1NXx0KbqHyay4RhC5sZlD76v/RsjWLF4jiATiC5LrEtLKcQnsF+9AVRXomoZet4WBJE702d3k8dpBEm4pisfHx+PiOF7V7XZxc3Mzi+mRFwPJiClC6/9wQlZVy99ip1UyzQbbK45t1quSouNVdYCzqgyBN0DyKC+gkOeR4Ny9e/OEjwYZuhpFqRqgaLAFs7ECAkfPhXEoHkWqd9FhLto5DU4tQ8wMja7A6OGt4OvtQvt1XKewVZqaPXVcVKfZVfHmcQpvHKbCNmslJEkSdF2f2ucsbF3VZTwvDaBqa/3Wp2q/eAc3/+JHwjZjqYorRJq1yhBplaapUGQZaV7B23fS2MoYQNhqtbC9beRO+qmSalWpVFp6CP4ywlbdxCCSLgdUWMYkU91WMmT1QsQn1wsIWSWE1puyaCeWRftkByHBoZDjcbQjoJgXwCfoIBlmVdWow2OpC3znpRHo5wn6lgSOThBJncdy7jqfdR7aXLQ5aPNQ2mzn9Hnd1gYbrZ3n0apcNoFcNoGUwOFoR8dhfu2/JYEplTIg/O7du7i8vASAUKuzqhrwoizhsrZ+YapeVS2fA5/9ApKpDOQ//LfCNmcpYiGt8RLHJbC9JeCd08lc9HmAURTFyD3kWraYN3JaS6aCas4AACAASURBVAHHgBR1eLBTR9TQ6i2uUI5dG+3IOJte+cuqjsuajMuajESCoJATxiCZ5Okg6Ud+QlPj6HUEjPXX+HG9R+gz950JHC3Q5sf7SJ3HYV6q/T6g0REYKe00exzntunjNITTPWtPSqoGPBnuLSQkCFo9FYUcj4McD56L/i9kXHR8fAxJktDr9dBuz16Of1Z1RA0fXUpo9f1VcVxXDaQ+wPIiY6d1CGnlOOB+MRlIEbOgttlYNTGQjJ4Ipr2OYSu4kFWX7TkcbfA54QwmmxfwqmZEL13VZXAcQSHH43gniWKeR0rghjb58zRS55zzetSkDJ8P+C6WgyWC46yg6AaJs0Jj0MDoFRbt5jWfr3PYaqmu4MmlOLU9QzbF4SDHo5jjsbe19nwduPr9PjqdztKK6pSbCp5fSZDVtX2rz61Egof2x/9u2GYsXXEGyZFWDSLvF1N4eDJ/aoEkSSiXywFYNL+iELbqpnWEyKV4Hj0ORYPHuIes6sOQ1Y/nClm1Gd9TyOr0atoasjrhiyQW2ywwOAptPcwLSCe9gWSQ16Os5zXghenj1mso6dTxgsHRL0TSwNErJNq2+YRG27fADLDo9d20lmQkyjqeXoi4sAlf7EkaXl4P0OiqKORUFLZ5bGdZ8ZyglMlkkE6nQQjB+fk5dF2HvoB9MnTdCFM9v4nW09o4SlUV4LNfQCa7CfH3fzpsc5Ym5o2Mlo53Bdwr+t+Sg6YwIiDiLOaNDFdR8zoGoY6ooTl3yKrjTdQ2+7U2hQy8Tq9jvBXctyHiYJvH8a4R2ppNcYEWxIkbOAK3nkcAFrLzAY7m2wIARyeIpJ5bvYMO8wYGjUEDo/U12PVzubh28HhWlfHkUoSsuMNKs6ui2VXR6Kgo5HkcbPPIJL1X62Oy1+hD786dO7i5uQEhJNDwsd7ACFNtdFmYapDq9zprF84KrAZEAvHOjdzZTODBUWqcYzSP6vU6er1eAFatpxhIRkthQERQIavdRYSsUmDDdlCXNppFVq8jbZxKS0G1rQAvRextGSB5uCNgI3W7hpwllzFOwGiWavox+4JFC6BNNS0KHH2C4lzex4Cg0QsweoVKt/5rE7baETU8uRBx3ZytYIvAExxs8yjmBBzkeCQYQwYqTdMgiiKq1ercY1VbCp6VJEjyWry1Q9c6QaRZcQdJID4QuZHm8D13M4FsnyTLMq6u3PePXKbiELbqplWDSPslesCLdw/DEbCQVdo3ynvIKqF8sbbRV/S30zvBIzGdEkt38znBzmYCJ7tJHO4I2Mrcfp45hanG3esIAH9+BZQbk9+2WSqr2kLegsDRDSptx3M4t2ujjm/TRh3f6zWbC376roXn8UV5gKeXIuaJjJQVo9pWo6ui3uVRyAnY22KhrEGJ4zhks1mcnp6i0+mg2WzOtCn3J9cDvKwst8z+umu0V+Re4Ri13/ixkK1ZnlbBGxmHkFaBJ3hwmFpZcFwVMW/k4rSKIatdSUOrv6yQVbgvpj1OPw2OXh80GMf1jop6V8QHZyLyGwkc7yZxtCNMpUbFDQ6dpANQVBtwNGtWcITlOz0jOLqBol/v48RwDkBKm8uujTqX3ZyUazanHi5MdllpeGx0VTy5EFHrBBe62JM0fDLOhzQgcrTPGNP8IoRga2sLW1tbuLm5gSiKUFX3n58o63h2JeGmHd5WIOuum+tLFtIaY0U1pPVeMYXjXSGQsaJSIGfVxUDSo1aHD3zLqLJqlwjnrpnC96xzOQCMh0bbCWneKZoaXRWNnogPzw2QPNpJ4nhXQM6mxkZcvY4qjCq1YzlAmBPM2YKjHfAFBY5OoOjX20iDOA8gafuWtQFoWoPbdU+XRnasatjq00sJz0vSQucgBNgfhbJu80gn4/ULHQf1ej0QQlCpVGz71Doqnl1J6A/8eyqZFqfdgyPUv/zjYZuxdMUdIkeKAkTePUjirZN0IGkC5+fnM0UzLEOrELbqprhBpDdv0sImGWtA8ToGHbLqd5y5Q1YBPLmQ8KJsXqOR6SMHz+MsIatTM4y/0Ff4xHJ+e2o+nyYJYr3HQjcToxHTbMML21kDJE92Bexs8lPjxA0e+wD+7BOgKxrnduGqU8c+YTFO4EiDRuqDDxdoDAoY/YAlsIKex2pLwZNLCa3e4gul6DpQaSpodlXUOzwKeQMiWT5kcMpmswCAu3fvot/vo16vQ1FuvYuvqgN8XGZhqlFUrXK11p5IIN4gGXZI60GOxxuHqUA+T29ubiILjusi5o2MrpYNIz1RQ9PzGs2PbV5XxrONZAVHT2M7Xbe51u5paPdFPL2UsJXhDJDcE7C7Gc8lu6oBGm2fx6kDUL8nXmHRfBw4ODpBpNN4Vtusc9i1zQGNXkCQZrubJr41q+J5VFQdTy+lUPPdNtKcUVQnLwSSn8NEV71eR7Pdw+PzLiozFkBiCkME5Bs/G7YRoSjOEGnWsiByK5PAv/Z6JpCUgEajgVarFYBVi9M6eB7tFEWQdF5LBQhaLkO5eR2BYMBv2cVyruoKHp2LEGV6LOPkgnt6HKtnz3yB0tuy4J5efc+6tyPgvVCOaYCJscc2jbtQ+g4H3UzfgmSc9iBvKMC3PwFk1R7q7IBu4tgjIAYBjvN6H6njW86n5rGbjzYPbWyba0730eSlb3zefQ66qst4eimhJ4X7ZLkrauiKpnzIvICtNHNDBi5hGy9qGmQ+BeA6bGuYPEsfF9dZJ08kwPIi/Sid5PDwOBUIOMqyzMAx4hp5JKMIkdMKEBxjqiBgtdVTncHR3QqPM7mP629vR+JwRrkyRQvE2yudIhxDXUnDs5KEZyUJ2VQCRzsC7uxFv3ijohreR1fAgzPcmTtFGRw9QaINIM4FjTMCIw183RRrz6Mo63hyIeKyFr1KZBP5kDkeaYH90QlCLysDPLmQoGq3b9vGTRm6rhsb2TPFRhyXgP4nPxO2GaEo7hBpVpAgmeAI3rqTwt395NxjxaWy6rrDI01hg6QrFCx2EgDL8zr6HWder2NX0vDBK9HYA/H2jukjW3KwG59QFt+Esvgmli/TBECzwTi0gKBldW71OhrTT1IJMR1bx6V7HU02UPeFJMikOBzmBdzZS2J/K3przVIP+ODs9twx59ED0C1suw/L8Syg6HY+NYd1Hrv5aONST7zBoMOvl6f+sfU8nlVlPL0UMVCiyb4T+ZBdAyL3WT7kzJJVHY/PRZzfTP9Bze8VIYk9aJqGbrsRgnVMs0jT1HFOZH63gOZXfjJcg5aoVcmLBIL1Rr5eSAYCjgBwfc2iEuIqlh+5PC0737Hd1yxVVilyWvTOZS5tRT6jIR762XqszEDq5C6ywqvNfOLA2AXgk8oAaYHD4c4QJDc9mr9gKW5FdSltvgvkWMaKBDh6hEQaCPqFRieYnGjy8Jb2Apaxg8eOqOHJhYjrmOS6DRQdFze3+0MW8wJ2NqIdYhA1NXsqvvtKdCyClEpnh18zqFWuQAiBPs/GnkxLVaN2vZbFdQAW0jrS8a6Ae8VgwPHs7Iz9/q+I4hXWyuSm+UNWbTS1MHcfbdkhq843T/adnp5QDqdpRJJ1vBzud53iRyAphAqS493WaJ7G21MqOPkqkOMBFhcGji7exXlA0nJIb7d5Q3oBQb9eSADxClv9uDzA0ysRcS6al99IoJgXUMjx2GT5kK46v5Hx+EKE7NPDLPa7kAcSJLG3IMuYFqW9LR4//v2v4Ut//wfDNiUUxR0izfIKkrubCXzvaxlkU/N/JiqKgsvLy7nHWZZY2Kp/LRokXcFgsZN4ClkFgvEaLrNYTk/S8MGZiErLS8jq5DXnsYk9PBLKDOMv024jYjm/PbTAnWU1P1vIKpm2xWwHJbTVOBwdj+a1zEkZI8kTFPMC7uzxOFgySD6vA59cj+ybMHeqDbCBOjvwdDueARadwNEVIi3nU3NZx6HN49JmtckqT8Do59eeArqx8Dw2uioeX4iodxa//cai1eiqaPVV1Do8Dodbe6RYPuSUVA14ciHOXD03ndlAOrOBVDqDVuMmYOuYFqVCjsenjlKo35Tx7nvvY2dnB1/6xb8QtllL1ap4IgFv3shsisObJ+lAwBFg4arroEWGtbK/xvaaN9+xLXoIWb0dyWM/n0N4bfM8P6EeTy76pwvl2E9JoYaJYxpBYBpWLZIV42H8+Y0MPjHKkeSWApKyiikAsQMc2xBV672wjEkBOy/jLhQcKZA4ZZoPkLTaQxnK8W3rCRhpNtK6RdnzqOvAR1cSnpck984xVFIgONg2IHJ/mwfH/moBMEKTv/uqH+jDAlHsot/tQFWiV1yJydDhjoAHDvv6fe1Xf3q5BkVIqwCSI5lBMskTvH2axtGOEMjYFxcXUNV4PWRknsdgFBRE2v8ZDvgPtM1wq+p1BICnl0alUMsdk0cOq+Mgt+igeR0nD812Ta6oJ8/JtG1WkLMrlGNyj5nntdpgVyjHGr56672kjTeakUyMnUgQFHMCTvcJDjawEH23DFw3J0ydPKbAmNe9HW3v9zDuIsExEG9jANDo5Vfc90cJibDnsdpS8PhCQrsfr4WAHw3k23zIwtATmV/zfMiruoxH5yIkOdhnGun0BtLpDfS6LfQ6bQCRfWayljrZE/BGMeX4Ifbue++DEII/+Cd/eXmGRUSr6I38g53fxb1iKjBwbDQasQNHpuAUqyI7a/iguCdpaE7VLSCUIyd5/cb5Hde+L3Vhbjn3u/ieBEe7xf8E8jpbSOy62JHG8JAAmmasu0oNA0YLOQGn+0AhQJBUac5m22+2Q5sd+GHye2h3bDv0vODo9n6ggKNXkKTN59ZOtcFpfifRABaInudRVnU8vZTwasZwxTgrt5HAYV5AMcdjY83yIXUdeHol4cUSvMyqKmMgSawya0R09yCJewX/hVKYJ3I1lPn8N+ceo9PpoFarBWDN8sU8j4uVX5C0X1QFSHw2Q3n1OgKInefxuqnggzMR/YFLsRwHF8tC8h1N890eWu6yzXcklu7m89H4lpDVsU1k0hZisoGYxzLdbUkAJBPH5td8O7f1PrOtYzst94zGLeQTBkhmMbN0AH96DjR7Ey8ZppeM8ZdJs+2PaeNQxvQ0luXYaWyrnVP3ejh3BUcarFnHpLQ5tdvaQh2AOuWUIuV5vKrLeHopoSfFuCLOHGp2VbT7KupDL+R+jkeKD/APVkQ1SqKvtpZTQTeREJDJCshkN9Fu1lhRnRB1rzj71gzvvvc+AODw8BBf+G9/IEizIq9V8kT2v/rD4+NZQFKW5diCI9Pixaq1BqN5Q1abPRV9SXNflRojeTfM0xA0185s87k+XHB0B8039/RdDlRBpnuYIdYMuNQ+BKg0VVSaBu3sb3O4OwNIKhh6HumGeG+b4bpXWDQfU4FtFnD0CIleQZI2v1s71Q7qzT7ehcOOkYDH/kDH00sRlzWWj6ZpxhO6Zm9YVGdHwN7W6uZDXjcVfDj1NHJ52srtYmMrB01Vje0imJYijgD3D1M42Z0/ZLFUKuHd997H3bt38Ws//z0BWBcfrdJ+kcAtSHqFSF3XUSqVFmkS04ooVmGtK6b+QEOzq7qvUGfxmrgtjqm3OE3kMjHFk+Rv7uH/jqxJQ0MbtxBxeT2e3EmTwEm756al46ZtNOxtAaf7QNEDSKq4DVudYFvr8Wg6G88b9XiGMZ1gkQp2ywBHm9c8cegTGt3CVh1upRgz3Rx62Oqr6gAfXUoY+NyKYV20keZQzAk43OGRy65WPuSzkoSPLqNVDKlZr4AQDgOp796ZaSYlOIIHh0kcBpTrRhMLaV0NOUGkrus4Pz+P/X6OLGw1PNEg0n5BFeATXMpQ6xeyCkz6wkBfOY/HprdPF8u5XRkTSpvxZXplTiznt4eTVOC2RYd94RxisolM2mK2wTy/75BVj4VyTPcT2nym0NXx+FM2GkPvbAKne/Yg2dGBP/sEGCgT01NBLKhwVVvQc7vfZox5wdELSNLmsWuj2eDW7gkY7QCVotA8j21Rw5MLEZXmckIV46quqOGFKKHWUXCYF1DI89gIqKR9WOoPdDw676PciN7PPrdzAEWRkc5k2RYfC5CQIHhwlEIht9iPnlFI6zpC5LqEtFar1diDI1O4Yt7I5ahFDVmdQjsX0XrNCdHU272OSfwdzzUX7S4aZTiMO2UKmbxAow4P5tU7xj9CgPzG0CNp+tOjqIbn0RcE2X07Z7juZbsPa+OUrQ4/xiDA0StITs3nod0VGp3eRg59Q/E8vigP8NGVCG09UxtnVoIj2NtK4HDH2B8yGcN8yJu2ig/O+uh63uspXNWqV+AIB4Vt8TG3kjzBm8dp7G0t34O+jhA50ipApFmZz38TNzc36Ha7YZsSiJjnMXr6gSmQDPhvrWU4P15HAJ68gK4mLMnz2B/o+OCsj+uGQl9Jw7p4ps/jq1jO1IKZWBbm05Rwa4PFronzaReV/y06zPZN2kEm+pnnNnk4aV5BuzFmLJQzbp8Y02q76WVTYC23AdzZAxIc8J1XMI1xe5+5/0xeR5otLnbZjkU5dhrbcUy3cysk0tpoUGf/K0Btt7vFMzA6/Mov1fPY6Kp4fCEGun/fOknV9Nt8yHb88iE/Lg/wNGYPDXb3jzCQ+tA0FZ0Wq846q1ICwVsn6dC2omGeSEOrAJL9r/4wsgC6D74YtilMK6o/HXokpyFyPTVPyGpHVNHpz/dH32l6D5ZZzrwNZgVH2mRe8srMJ/YLecpKfyJk1cYAy0C2Q5n70IDZfEwo7bY0M2XCWK0e8EQEPvM68PlPAQ0VOKtimDc57O4yhtscM93jAovm46WAowdIdHhuQm2nDEGf2+G626WleB6XuQ3DOmkjzaGYF3CU57Ed4XzIgaLj0XncCyLp0HWgVrkEIQRanAg4ZKWTHN6+k8ZWJjrh1usIkWatAkSaVYkpSDKvY3z0Az8UUDEuyyrMr9cR8AZzrmb4GGMeeHxWkvCUWtuATB45AFI88x0Xs0UH1dM5Mca0/Xb32+c4mscxjU+DKhpQDW9JCsD33QM2Mak2DJCstBzGoIw3cezVFrdx7MYyHTuNHRQ4OrzFPbV5gUY/wGj7Gz+8sHDPY7Wl4PGFhHafeRuDVlfU8KIkodZWcLhj7A+ZjVg+ZKOr4ruv+mjP+eQxfBkfnHuFE/S6xider9MK2aboK5vi8M5pOnLvy5En8vT0FL/+C98bsjXL1yrlRQLAwbOfARBfiGSKvv70W98dHwcGkisucaAbVVZ1OHo13DU/LHsb0us8xMOxczPdA2oCP9rNU9DiYC+tcqqLTROAO7LRCtgO91oPExwdMrYAvL0PYB/oA3hVB66bxtvEm32mLhQwsgU9muYBR6uZAYIjFSat43topw1j1+jnV2Jh8CgrOp5eSXhVGSxqCqahGl0VHVFDra3gaEfAfkTyIV9VB3hyIUFRV6uoRXZjG5qmIZ3ZQK1yBUIIK9xB0Waaw9unGWSS4b8X7XR2doZ333sfe3t7+L/+/ufCNmfpWrWQ1hFEAgwkmRanEUiGAZFh5DvOqo6k2jw4JpQjv/LrMplPrsN6mpdGPz6OHca1BSlzH1Mn31PQZqVxraktwQFuNdUzAB7uGP8GAM5aQLkBaKMlFQ2MXOCVbqyN19HlVsdhvXog/YKjD2/jvNDo6XtL6bKQsNWruownl5JRXYtpqUoLBPs5I5R1N6R8SEXV8fhCwll1PR4ctFs1QAcksRe2KZFRLpvAp++kkRKiC452YiGt8YdIs6IMkSxsdXXkGSRNH4lxCFn12p/W5/kwZFWf8jxS4JG20nacn1AWz8SycLauop1CVK12TQ5OLLGKU3mIxDQ6Mc9lttNsH5nsZ7bHzxYdE2OYX491rNlDVv0UyjGZhFwW+METzCQNwKsuUGoAqmoa1zKHJ5ss9k3d4+HYOh4NDqnnywRHO2ikjely3e1yoJ7H/kDDkwsJV/U457bFW6Ks47w6QKOjGPmQO8JSc83afQ3fedlHs7c+Ycpb27tQFBnZzW3Uq2zD8t0tHg+PU5Hwfs+id997Hzs7O/jSL/6FsE0JRSyklYnJv1hY66REWUejq8JfUI7bKtfzpbn6Ty/qPcCz5WwRf/2sAOrVGk+XzWCKSTD1ci/tcmKOpScH4PUN4x8AnPUNkJRpS0sXm5xeghMsegJHa9cgwdEGEJ3gcNZrjpdov5ZBeR7PqjKeXooYKCx8L0rKbyRwtCOgmOeRSS4WIi9qMh6fs/dAu1mDoshQ13B7j4NtHp86TkFIxBMcaWKeyNWASLOiApLM87jaokLk8KNxFq8jgKV7Hmf1Ot60FXznpYje1P6OgLlhchE9PU70iuUQql3E4uYipuOJkYlpVrMNc2zRYd5uY9KWW28jdasOc18PW3WYTfNSkKaYB945QOC6GgBXdUBSQLXNq33jL7RjB1gM2gM5NSZlTqc2ynAzQaMbMJo1t+exLWp4fC6i2orehu9Mt/mQNx0FxzsC9rd4CAF7hFQNeHop4pPr9QhTddNWbhfyQIKmqWg3a2GbszQd5gW8cZQCH63aOHNrnbf5AFYvLxJg3kim5WidvZGNror+IKKpS9Ql0BzrIk+3WgnEfSxvjG8FZKcpyORXaoyk6xSe+hNgYWuBoyRwVDSOr1Xgsg6I5uWn2/fZDRzp3aljRw4crWM7XPNy3U5zeR6flwd4FrN9+9ZZ6SSHg20eRzsCdjYTgeRDdkUN333VR43t3WmrdrO28vmQx7sC3jhMxWbP0Xm0rhBp1qpA5EhhQSTzPK6nvuczD6favHgdAVC9fH61aM+jKOv48ExEaZTC5OD6mFxMU3DHbv55PI9mL5xpvEmbzOfTlEDdMoNmm8WjNzne9Fjh5jvajT31LaJ686xtrxWA+zksTTUAFzWgbwJJz9t02EC7Hy9jEOBIA8mp22wgd2ou6om367b9hwczeR4bXRWPzkU0ugwY4iRxoOGsOkA9oHzIUkPBo3MRYlSfLkZEW7ldZDe3AWAlcyJP95O4V0h6fEoaf637Nh/A6uZFAswbycQ0r3qSipbt9mxTaDeD7IDSe1f7lTalwW2Bb+nr5xV6/R5YAdS+o4mWXCakgo8XW2zGsIpf8vbjuwB2d43jJoCLBtC1bjFKpo8pTVTZcJ3rmHYDBAaOs0Cjyw/crZ8veNR04KMrCS9KtA1fmeKijqihU5ZQ6xhbexRy/vIh9eH74Dl7H3hWImH8qu0X76DdqkFVFChy/MN8Xy8k8dpBMmwzQtFom4/9/X38n3/vs2GbE4pWDSIBFtLKtNpaxjYdja4agYfKxHLm7XVPe4f8AqAr3Xmywwluza/Fi3V2W3R4Ms0JhmzGGPUVlgyPZuUA5PLGcQfAeRvoDDMwHJ8VOHgdzce2Hkibcb2CInUOp7k8gqPXtzTNO0rt5zVstdJS8PhCRCf2m70zmcUnCPa2EuP9Id0KnfQHGj54JaLCclznkiIPoGkqWo2bsE2ZSRwB7hVTuLPntovT+qhQKOD/+Ds/FLYZoWuVQBJYLESysNX1U5xCVr32N/eRZB0fnPVRqpvWCDYr18kFOH2eoLbpiF2xHIfQV3OBHGI7FrltN78+1wI5t8cTbTQQMv0MaFt1fO9dYD9iz5b7AM67QMsMkoRybAeL1nM7kJx+u92eu4HiPOBI+XVxuublOvUeN3gcKDo+upTwak327FtXjfIhj3cF7GwkqGEZlZaCD8+G1dOYAlOn3YDY64RthmclOII3DpM42mHgSNOdO3fwv/2tz4RtRuhaNYgEFgeSDCLXR6sOj/WOij9/2UdXNK0TZoRH75VWh/1mhkeLTX7gkVjHpsHjNJhNjj09rmu+o3mukPIdnfIJEwngM68B+RC9j26SYWwB0hiWpPCa6+gEi35BkgaO1i5+26ZOg4TG0bxO8HhVl/HkQopuxSymwLWZ5nC4Y+RDbqZvQ1mflyQ8u5KgrfcuHAuTqshoNWvQVBW6Ht3fNz5B8KmjFAq5QLeIXUmlUin89i//VNhmhC4Gkd7FIHL1ZYVHr+AIRBMerdc/vh7gyYWlkKITPDqsYL3DoxnkptuML9Or+2XAoxnQxrO6AiMN/m7HsS+WY5qHBo8mWxeyRYfpW5wUgO97HdhAPKQBeDUA6p0ZwNF6bgehHs7nhcmpUydw9PhRQC3KS4PH/kDDk0sJV7X126eOyXijjPaH3Nnk8bwk3VZNY1qoJLEHVZHR67bDNmVKAk/w5nEK+1sMHP1IEAT87q/8xbDNCF2rCJHAYkBya2sL/9XP//XAx2UKV/N4HYHlw6PvkFXFqLI6sXacGiJe8LjISqu3w3iBR6cxrPdbgdHSZu7rBI8UIHKsXmr6mkkCP3AXiFjUqmedKcBNewaQJBPdfYFkoOA4JzS6/epPweOr6gBPLyXIa77ROxOwv83jZFfAdVNBta2w98SSpOsadF1HrVoCAYmEJzIlEDw8SWNnI8IxKBEX80TeahVBknkjmdxkhcf/6D/4m76qVEcdHhtdFd/+xClkdbLBHR7tVsDzwiMxX3KAxWl4tHohJ+BxAiQnwS0oeKTONRW+agVAKzC63ztvvuNmGvjBO8AqbPt8oQHVtj9YdANJGijOC44Ov0p0G2h9PH48jOGx3dfw+EJElRVCYQLweiGJN4/TSHDGnk2VpoLLuoxGR2Ghq0tUt92ArusQ+93QbEgLHD59msb2HNu6MN1qY2MDOzs7LC8SDCL96ODgAH/jv/hPFzI203Jkhcfv+ZH/BCd7SRzmvVU8jzo8fnI9wGPHkNXJhtngkUwvtCfgbLrNOLOBR2K9y3KfrxBWMjX/JDw6Fbi5PZ6Yh+YZHJ9ax/UKj4vNdwQBclngB46xcioBuG55AEnLW9fWg2lzbhluLnAMEhpHA5KzszP9eXmAZ1eWX3imtVSSJ3jrThonu9PFULqihquGjKuajI7I3izLkqYqACFo1K6hqcvdWzWT5PDO3TQ2UgwcF6FcLod/8T/8aNhmhK5VhEiAJgsrYQAAIABJREFUeSOZbkULWX3t+38OgJFLvr/F42RPwO5mArxN1fMow+NgGLJ6UZNtF7hT4Eg/cJnfCzxaV9pOlVWt53awaD13gUczFFLAzxEeHUJfPVVapXktze0mbyMNIu3g0Wu+Iwiwswl83yFWWhUA5Q6AkUNlFpAc9p0VJicOZwBHzx8HlvnIF37nsd7oLndByhRN5TYS+MxrmYlCOVbpOtDoqbisybhuKhHYy2m91O+10W03lzLXRprDO6cZZJLzL1iY7JVOp8HzPN7/n94N25TQxSDSnw4PD/Gf/Y2fW8jYTMHKCo8jcLQqk+JwlBdwsidM/S2OMjyOQlY7ohY5eKRVWp089AKPFFi02mgHj2aPoGnOSeAzzzFJZs6AR5nHNeTVAzxS4McNHs3fqkIOeOcAa6M6gFIPUDUXWPQLii6QuHBwpIErAPIrX/qABSEy4XQ/iYcnKdd9HkeSVR21tgGRNx2WD7lsNWvXACGQB9JCxt/OJvD2nTRSAgPHZWprawtf/qUfD9uMSGgVQXJREJnJZPALf/s/X8jYTMHIKzyORIhRuO5kN4lCnkeKJ5GGx0+uB3hyKUJR7T0kUYJHYjm/PQwaHsmkHabx6MBIgz/z67aDR9M8LvAYZLEcOw/kyS7w5i7WUk0AJRHG74JPkDR9WRg4zgON48sMHtdbfILg4UkKd2fcyVWUdVw3ZVzWZDS6KnT2blqaBpIIQEercRPouDubCbx1kkaSZ+AYlg4ODvDFv/vDYZsRCa0iRAIspHWd5BccrUoKBAfbAk52BexsJpDgZvtsXtQej7chqwNYUM0jPNLnsYPH6eaQ4JFYx/YKj9NjuRbLMc9Hg0dbYJwehxa+arZv0mbT9D7g8bUD4H4Oa68ugKsBMFAo0EaBR68wOT4NGhxdoHHcjcHj+mozw+Ezr2WQy85fQbMrarisy7iqy5OV1piWoma9AkWRoc+ZuLy3xfvyQDMtXl/71Z8O24RIiEGkPwmCgP/m7/yXCxmbyZ/mhUezNtLc/8/em8W4kqV3fv8TG3dmksxk7pl3qVu39qXVy4wFyPZgxlZL4zEw04seDBgDA4ZeDIwt24AfBNvwhvFg4AfDMDCAYVgY2dXV3SMZFrq1WGN7ZFndUldXdVV1dW331s315s1M5sLkEozt+CEYZJCM4BrBWHh+QNWNjeccZjJJ/uL7vnOwWZSwWRQnrkX3Sx5vGjre+6KJmqzDM3nsF7Nuhw5HZ5HHvjF5KI+ke1F3HD3iZ293hDy6tuEuj0OF0b7dI4+zT5ZDANxfB3ayYNiQAZxoQEvF2KLo9rfklziO+w7B5HFB2SyKeHHb2+gSpWbdw8kVq4cMAqXVhNystyOSk1NeEvBgIwmBrcYROjiOw//9P/1q0MMIDXEUSb8kMp/P47f/s9/ypW3GeNjlcRZxtMPzBMUMj62ShJW8MNZnuV/yuH9uzrKq6XRQ+KaUx/70UPuJ3qN2kRs8Zv4z+M18HHnsTzMdGNec5dGbZTp8mGnV/uNtH3u4BWzE723aM1SYS4DISvvAmDLpdqyzO404TiCNnXExeVwseI7gwWYCd8v+Ld2q6hSVWx0nlwoqtzo0nb3E5k3t9hpqS4auj7f0zkZBxP31BHg2qWqoEQQB+Xwev/+P/1rQQwkFcZRIwD+R3N3dxb/3D/4dX9pmOONl1NERYi6ntLZsprUupXnXL4p+yKOqA784knFUUdrDYfLYFbPegU0sj06iZ++3py1/5XGSyXIIAV7ZBVYGJ+1nOGAAOALQtKawCKM49vfH5HFxSCc4vLqXQjE7n9CSrFI8uzbrIW8arB5y3ui6hmajNlIit0si7q4lMGUZDSMgNjY28J3/+s2ghxEKmEROBotGzo95yKNNU5BLcdhurx2ZlGabrXWc62+bBt79otFZvmsieXT7JowIymOPSM4ij7ZUWVd5DN8yHfbHCDzw6h6wzG5GT8UxgJoyRB7nKY4uf85MHheEtWUBL+2kkAxg9kxWDxksqtqCrmmoVa8Gzu2tStgrS+PdeWKEEja5Tpe4SiTAJtiJKn6krHYYIl8iT1DKCdguiSjmBAic9/JICMFBO2VVbWcYxVke++sfJ5PHIcLX028I5NFBFMepc7ROSALw5h0gDcasPAVwq5rbbn8uQ/5U3BkljsP+jMHkMfZwBHhuI4H764lAx2FY9ZCXKs5vVMgqe9nNFwqA4LryDIZhAFTHnXICOyyvJDawSGQvcRVJvyRya2sL/+C3/l1f2l5kgpJH+9GUxGGjaKa15lLjZx6NkketnbJ6WFE6xwYnp3EccEjlsfcb9Sh57I1Ckt7+p5XHIXWT7nWOtu2R9ZLjy2Pf07M/Nedj7f2UBHxpF/CvOGoxeQag2pdE5rc4ul3H5DHGpCQOL+8msZoXgh5KB1WnqFR1HF8quKyxesgg0JQmdgoGiik16KEwfILN0NqFSeTksGikN9jFcfeN35w48jeSMeXRgiMESxke2yUR5SUBCXF4XuGo8dZkAz993E1ZNfsMuzwS+6nh8tjz/OMhj/NY4zGbBL68PUJQGDNxDuDaafmPNq5/uh6II8DkMbas5AW8vJNEesKpvOeFVQ95fKmiyuoh54bIE7y4k8RWUUSj0YAsy6jVakEPi+ETTCK7xFUiAX9EMpFIwDAMttzHDPgadQQmlkc7ksihnBewVRKxnBEGJksbR3QPL9SelFWzzwjJY18fnsmjXeoGxM82ohHy1y+goyfJmaM82n9UfcdyaeCXNsGYExUAV3p3329xBJg8xpJ76wk82IjGBCh12cDxpVkP2Wixekg/kQSCV3ZTWFvuRqJ13XzHOTk5AQBQZvGxhElkFyaRk/H0SsWzegp/8vZve9523LHk0RdxBGaSR/tVmSSHrZKIzYLYueE8OmWV4hfHLRxeKD3HvZNH95DKgDz2uiL6vyWHXh7t4/JBHkfVPtrb6G3L/rPoOzZEHpcywJsbYATAFYBLt6/Sw+RxAnEEmDzGiqRI8OJ2CuuF8KSpjoNVD3ncrodssXpIz0mIBK/upYamMN/c3KDZbEJRFNdrGNGGSWQvcRVJryRSVik+OpRx2+ze1v7LP/rHnrQdd3yPOgKeyaP1j8ABhaw5yY65dqR75lJNNvDuF82e14bZjJ/ySBy+AHsoj319Rk8ee8cYlDyu5IFXymAEzA2AC0skPRRHgMljbFjO8HjtTgqZkKapjoOqU1xUNZxcqqwe0kOSEoc37qRQGGOJFkoprq+voaoqZFmew+gYQSCKIv70n/ytoIcRGuIqkcD0IkkB7J8pOLhQXMsKmEi6E0V5tJMUOawvC9guScg7rB15XFHx0VFvyqrZzCLJY69dMXk0/10vAC+UwAgRtwDOnd7HpxBHgMljLNhblfD8VgJCFPJUx0BWKE7b9ZC3TVYPOQvpBIc376WRT012U6HVaoFSirOzM59GxggaCuC8LuHjt/9m0EMJDUwiu9w2DXx02BxrZmwmkYP4nrIK+CqP9rP5NI+tkoSN9tqRmk7x8XELBxeDWSpRlUe7SHUe1dPRlPJolzNbn71C59TmBPLoWufo1Jf/8rizAtxfBiOkNGDO3ErNSfgB2H6XY8LkMcJIAsELW0lsleK53EJNNnDC6iGnJpvi8KV76Zmj0ZVKBY1Gg9VDxoxn1xo+e9qCbrTXZ/vLbwU8ovCw6BKpG8Cj0xaeXk02IzPH8/jRD/7baYcWG+YSdQS8k8chF9pPiQKHUo7HRkHE42cKbhq6w/VMHqMrj/YZYceUx74fLQFwbx3YzYIRAVoATgFM8g2bgMljZMmneby2l0JuwohS1NAN4Kah47ii4LyqsXrIMVnK8HjzbgopyZvXh6ZpOD09Bc/zUFW2xEfUuW7o+MWhDEXr+3siBOTH3wxmUCFlEUWycqvhk5MW1P7Xx5hk88v4599d3Al25hJ1BIbL1ySNjCmP1t5WScRz6wk8u9FwVFF8WqqDyWNPf17II7GPwz95fLgFbMT3bTO2qDBFUhtyTefXz+QxemyXRDzcSkISxv94iDqqRnFxq+G4ouKqzuohh1HMCXjjTgoJ0fvXR7VaBcdxuLy89LxtxnxoqRTv7zeHRvNFKQHt//035ziq8LMoEqm2UxIvb4d9hRifRUxpjbM8CjzwcCuJvVUJhBAYBsV1Q8dRRcXZjQbFfoOXyePiySMBXt4BViUwIowB4ASmUNph8hhBBJ7g+c0E9hb4r5LVQw6nvCTg1b2U7zcWDMNApVIBADSbTV/7YnjHNGLA0ll7ibtEnlyqePxM6aQze8VyaQ1//L/+x562GUbmJo5AIPKYTnD40v0U8il+QPAUjeKsHY28rusYfAkxeZxEHu0CGBV5FDjglT2gMHp+PkaEOAFgr3Bm8hgRMkkOr+2lsJxhf5GAWQ95XDHrIZsKq4cEgI2CiJd3kxB5f8XRjqIoUBQF1WoVmuZNpILhDwYFHp+2cHw5Xdoxk8he4iyRAPC91v/iW9txjkbGXR43iyJe3klCFIiL4Jk0WgaOKuaN3u5ndHjl0alPT2ZbdZNH+7l5yaP9Wp/kURKA1+8ArOQxvpyCyWMk2CiIeHE76UsaYpTRDWt9SAXnN9pg/dYCsb0i4cXt4GbcbbVaUFWVpbOGmKOKii+etRyiAZORyS2h8af/ujeDiglxFkm/JJIQDoQAP/rhP/Kl/aAIizy6H3W5yuVi+2GeNyfps7KfhsmjdV7TKa5qOo4qCs5v9U4dbTzk0fZ4N3kciPjZRuSVPNqP28ZISO+/Pe07yqO9renkMSkBX9oFEmDEGSaPIYbnCJ7bSODe2uKmqY6DYq+HrOmep1uFnTtlCc9vJsGHZO6ks7MzKIoCw2AR4bBwUTUnQPG6VphFI3uJs0QC/olkKp3F//N7/7kvbc+TuYojMHd5TCXMGbyX0mYG1DjyaKelUjy9VnF00S47GTJS17btkmY91it57H8ck0fbz6LvmP1HZRPJdAL4yg4Qkq8jDJ9g8hhS0gkOr+wmUcoJQQ8lMsiK+cF0XFFRk+NfD0kIcG8tgQcbCYz4DJ87iqLg7OwMhBDo+uB07oz5UZcNvL/f9DUyzySyFyaR0xPllNa4y+NmUcJLO93J+iaVRwsKoNY0cFhRcXqlOq4l2iNmfScG5LH9D3E4Zv4Tcnm0b88kj72PD0Iecyngy1tgxBwmjyGkvCTgpZ0UUlLIjCAi1GQDRxUFT680yDGth+Q44LmNJO6tSWN+QQiG6+trcByH6+vroIeykKgaxYcHMqrN+Qg8k8hemEROD88L+Isf/EPf2veDV157OD9xBOYqjzxP8HAziTvlbibUtPJoP67qFJWqhsOKistadyb1uchjt6PudV7Io5v42cbgJo/ddryTR3v/fsvjUhr40iYYMYfJY4ggBLi/nsBz6+GLJEUNsx5Sw1FFxUU1XvWQPEfwcCs6s+5SSqGqKm5ubtjMrHNEN4BPT2Sc3cx/IiMmkYMwkZyeKEQj5x51BOYqjymJw5fud1NWAW/k0U5ToTi5VHFUUVBvGc6Dmlkee44Ml8c+Q5pFHrvCZ98eJo/27X4BHS9yOZY8OonpoGs71jo6yeNKDnh1DYyYw+QxJCQlDi/tJLG2xNJUvUTRKC6qpkRe16NfDynwBC9uJ7FdEoMeysToug5d13F6egpCCGjc84oDhFJg/1zB/rky+mIfYRI5CJPI6cnklvF/fe+3fWt/Fsyo429iXGXzhDnK43pBxCu7vctAeS2P1nHDQHvtSAXPrvtu/voqj/37w+WxV+jsrS6uPK4tAy+tgBFzmDyGgFJOwCu7SaQTrMTYL2SF4umViqNLBXXZiGQ9pCgQvLyTxEYheuLYz83NDWq1GquH9InTaw2fP22F5mYJk8hBmEROT3FlHX/4u/+Rb+1PQ5zlkWtnu9wt986h6Zc82rHWjjysqLip69Bp/1DnJ4/d09PIY5+gdTvs69cmqSPlcfDxo+TRLp4zyaPTMQLslIDnCmDEHCaPAXN3TcKDjfDMlBlnrCL9o4qC0+to1UNKIsGruymUYxaZPj09Bc/zLJ3VQ64bOj46kKF6PLOqVzCRHISJ5PSEIaW1m7IaT3lMSuYsq07rTA8TSC/k0X6s3jJwdOGydmTQ8tg+2StkvQNzk8fe5+mDPNqP+yyP99aAvRwYMYfJY0AkRDP9MA5RpKihG8BVTcPxZTTqIZMiwet30yhmBz+440Cz2YRhGLi8vGSprDPSUil+9qRp+2IVXphEDsIkcnqKqxv4w3/6H/rW/jC6UUcgjvLolLLaOT9HebTQDeDSWjuyqkHVECN5dBFA0vs8xl+2Ywp5tD/Ffnm0b9uk0fr3+U1gKw1GzGHyGABLGR6v76WQSbJwY5AoGsV5ux7yJqT1kOYd31TPJAVxpdVqQVEUXF1dBT2USKLpFB8dybiqRSsVmEnkIEwiZ2Pe0choy2P7SpeLeY7g+c0E7q05L/sehDzaj7VUsyTlsNJeO5ICrvLYOTaePPZEASeSR/u2j/Jo72dSeeyTRi/kkRDgpR2g7PxSYcQIJo9zZndFwvNbCYj8HD9gGEORFYqTK9sMbyH5i8gkOfzSvfRC3WSglIIQgrOzM8iyHPRwIoNBgUenLZxcqkEPZWqYRA4Sd4kE/BXJ0uomfvhPf8u39oF+cQTmKo+d7vyTx5TE4c27KRSyziUTQcujtW9Q4Lap4+hCxdNrFbLSLY4cLo+d/81VHvvbGkce+9vokUaf5fGlDQzSfsjHZ+a/PA+8sgsU41Vdw3CAyeOcEAVzjaSdFZamGkYo7a4P6bZo8TzJp3l86V56odf6VBSlUxPJJtYZzmFFxZNnLYQweD4xTCKdibtI+imRHMfhRz/8R760HXd5XFsW8dqec8oqMJ08up2bRR7tqDpwUdVwWFFweatDt2fxz1EeOz0NiJ+97THl0d7fEHm0P6a3/U4DI6KWBC/b12ns9270nrMf4ziglAPYt9z4w+RxDmRTHF7bW4zUw6hj1lJoOK6ouLjVoAZQD1nI8njzbhoJcXHF0c7NzQ1UVUWj0Qh6KKHkoqrhk5NWZ3HtuMAk0pm4SyQB8F2fRDJfWMH/+dZ/4mmbcZZHnhA8aKesunlgGOXRvt9UKI4vFRxeqO21I4FeWezfn0Ae+/t2lEf79jB5tG93RbD7ELcIoVvEsbePUfWPAPDKJjf4OphAHvm2PLLAY/xh8ugzW0URL2wnXe/aMcJJpx7yQsFNw5hbPeRKXsDrd9zv8i4y19fXMAwDtVot6KGEhpps4P39ZiA3OeYFk0hn4iqR9nc+vyTSYtbayFdee4jdN3/Twbvm+P5NBjamGIWzPCZFDm/eS6HokrIKhF8erX3doLiu6zisqDi71tDS6ITy2L8/GDF0lceBiF+7Lft1nsmjcxTS3n+/PL68xQ200fsD7Pmn95TtoMADK1lgcQptFhcmjz4h8AQPNhK4U5aCHgpjBmSV4vhSxfEc6iHNGe2SrB52BIZh4PT0FBzHQVGUoIcTGKpO8cF+E7fN8M+s6hVMJAeJm0Q6vfv5KZFLhRX8yZTRyLjLY3lJwOt7KUiiuw74LY9Ox2fdVzSKZzcaDi+6a0d2ru37WRBXmXSIRNrl0UH8usJn33YQ1yG1k+4pp7btEfJof+wrW93frRfyWM46XMSIHUwefSCdMNNUCzFdWmHRoBS4tdVDtnyoh9wqiXhpOwmBiePYNBoNNJtNNBqNhVviQzeAT05knN9oQQ8lEJhEOhMHkRz1DuinSCaSafzZ//5fjH39r/3b/x2A2bRtZnySR54Az20kcX9dmloQh52fZdKcWaOR/WtHHl6oOKqYa0cOyGPP/qA89kcUu9rnJI9OkcNuW56t9Wjvw6l9QvDqNtd9Do7PteeE/Z+Bc9ZxUQBWM04XMeIGk0ePWV8W8dJOktWrxRCrHvKooqJS1TxbhH13VcILW0nwLNdjKqrVKgghC7PEB6XAk3MFhxcKFsyZB2AS6UyUJXLcT04/JbK0toUf/s5/MPQaK+oIxFMekyLBG3fTKOWGV7BFXR6tfU2nuKzpOLxQzbUj25/voV/r0d6nz/LYt2kbh0lCBEpsjceFgMmjR/Acwf11aWhhOSMeKBrF2Y2Go4qCm4YOY8qsQUKAu+UEHmwmwLHXzEwYhgHDMHB1dYVmsxn0cHzl6ZWKz09bU7/u4giTSGeiKpGTvB0GVRdpRR2BeMrjarv+PjEkZRUIRh6djs0qj/ZtWTVwcqnh8ELBbdOwVatMIo/2be/k0bkNt8ilszy+ssPbRjyGQI4pj0kJKEbzLYcxIUwePSAlcXh5N4nVPJtjapGQVYrjioKjiopGa7Jv8hwH3F9P4D672eApmmamcZ6enoJSGrt01uu6jp8fyrGbWdUrmEQ6EzWJnPYt0U+RXFnbxg9+59/v7MdOHm3/cAR4biOB++sJcFPK4ajzQcpj/77bNqVAtWng8ELB0yuts4TXJPJoXuIkfu29seWx05m7PA5EHHv7IAR4ZVuwDw3oe5XMUveYTgDLSYcLGLGDyeOMrOQFvLKbWuj1+BYZsx7STHV5dj1ePSTPETy/ySZT8ptarYbLy8ugh+EZskrxsydNyAoLOY6CSaQ7URDJWT9N5xGNjII8uh91uar9T0IgePNeGsUsP1IOgeECGWV5tG+rOsV5Vcfhhbl2pGZ7G554uY7uwb7IYedEjzx2fW6UPNrbGoxCHn7wR/i1X/t1+9A6/XX3ppfHbArIs681CwGTxynhCHB3zbwzx2rVGJpBcXWr46i9PqRbZEjgCV7YSmJnhS2jOy8uLi6g6zparVbQQ5kaTQd+ftjEdV0PeiiRgkmkO2GWyJnVq93Ad2XvJXKpuApRSjh1N/SIb/ggjys5AW/cNZeMWmR5dDvXVCiOKgoOLuxZR9bPcIblOmzbw9Jfx5o0x0Een7z7A/wbf+fvwNZUd9zdqyeWR+sh+TSQZV9tFgImj1OQEAle2klhfZmlqTJ6seohDy8UVJu99ZAiT/DSThKbRfbuOm90XcfFxYVZzyLLQQ9nIgwKfP60hadXatBDiTRMJJ0Jo0R6JY8WXkhkbqmIRMp5NpDoy2P7StJOWV03b4wTMlwMO4+cQh7dzgUtj8PO9W/rhllKcHCh4Nm1BkWjvXLnEDU0t/ojh53/Oaerusqjk0haV9r6IMCTd3/YFcee4TjI4+Dhnv2B30a7reUMkGZfixcC9muekEKWx2t7KaQTLNzIGEQSCLZLIlbyAo4qCo4uzOm/JYHglb0U1pbYn1wQ8DyPtbU1NBoNpNNpXF1dRaYe8rii4vSaieOs0K++DYBJZD/f/zNzgqkwSuTUUHjmb+lsHuls3pvGIoDIExSyfKhq8SmlIyW2/5pR+5O27wTPAaUcj5V8Gi3VXDvy4FzB9QwT6dlGhc6LuO/1TEE7kmc/5bb95N0fDmm+t3F72xMNlTPncmAsBuyb7ATcKUt4sJFga/ExRpIUCe6tJbCaF3BcUbG6JLAJlUJAOm1GDjiOg2EYoa+JPK9q2D9nS3J4CZNIZyyJBOIlks3WdH88yVQG2aXCWNd66KqT43Hn2RSHXCq4NaqnFbmgSYgEe6sSdlck1FsGDi6U9tqRw19/k/36KEBd0koHGrQ2KCgAQ5+x5GHEQAnAZo1fINi32TGQBIIXtpPYYumGjAngCJAUOdw2dTRVA5QCxRwPgb3DBo4lkVYUsl6vBzyiQWqygc9OWtANZo5+wCTSnThFI/+A/s5E14tSAkvFVZ9G4yezWyRHgGJW8PQGuV8yGEbJtMaUTXJ4eSeF5zeTuLw101rPq3rv2tAUAGn/znp+dc6/R8ejYxx88t4PHdtz72k6mDwuFkweR5BP83j9TgrZJIvHMyajqVC886iB26Z5x++6pmN9WcT2iohcimdvtCGA4zgsLy+jUCjg9PQUuq6HIp1V0yk+OZZ7v2wwfIFJpDtRl8hJoo48L6CwsoZQ5WvOGYEjKGQW47NpHvIp8gRrywLWCyJkleLkUsX+eXvtSLeXpj1blVovx2Ga140w9l9jiqNZ8z/JM7V77YghdiAEYN+SFwcmj0PYWZHwcCsBkaWpMiakJht451GjZ/1HRaM4uFBwVtWwUxKxvSIhKbLXVtDwvJmitbm5CVmWcXZ21klrDQLdAD45aaEmsyU55gmTSHfimtIKACAEhdIaeMHLr0OBJrJOTS7FIZ8OLmU1LNjFcpztUW0AVimLhLtlCdWmgYNzBSe2tSOt10x/BaJb3aP9gFMQ8+jDPwFgiuNoC+xv3OX1O+RlTUZk0zLiBZtt1QGRJ3h+K4HdFbZgDWNybho6fvqoYftQGITjgHyKx3ZJwvqyAFFgb7th4ubmBo1GA6o634lqKAW+OFNweKHMtV/GIEwih+OnRHrxbthU6MiU1aXCCsSEN6uaO8wH6km7k3U+/SgIIbi/nsBzG4mByCObcXX87UmOWbOzH1wouKzp0PRhfdhmX7XPumrNqGpebF2J/ff/sC2O3ccYuo6/941v9D1PW5s9V7vYoMtkrKIAlLMO1zNiCYs89pFJcnj9TgpL7O4bYwoqtxp+9qSJ1hBxBACjPcV3TZZxXuWxU5JQzAlszdCQsLS0hKWlpU4UstFozKXf02sVx5dMHMOAFYkEmEg6EeWU1my+gGQqE/Qw5sK4MVChPctqWFNWwzrj6jg4tU0p7czOvrMiodEycFhRcXCuoO6Sbj1u3eP+z/5w4Jhb6uq0MfL+x4X1dcPwByaPNjaKIl7aTkJiUSDGFJzdaPhgv2mu9TQmmk7x7FrDVU3HekHEzoqIXDJc06QvMuVyGZqmgeM4aJrm6xqRV3Udj04VD6Z4Z3gNS2l1J4wS6TbDZTrjsOxGNDNMPSeX5EJz0zyMk+GMy7RjTyc4PNxM4Ln1RHvtSHOJppY6Qd0jpdh//49BgJ6o49DU1f42OnsUxGlmV5dhMHlcLJg8wrzj9txyxm47AAAgAElEQVR6AnfKEvvSzpiKp1cqfn4w/QQnVj3k+Y2GnRUR2yUJCVYPGQoEQUCxWAQAqKqK09NTcBzXlxI0G7JqTpDDZlYNN0wi3fGyLtJrn0uk0sjlix62GC8IMaOOfs0EHtYZV6d5/CSPcYs4Djsm8AQreQGrSyJaKsXTKxUHFyqu6zp0A2Ot96jpeue7bPdzyrzaYdFIT/7Y2BqPi8XC1zymJA6v7qVQyoXjjhsjehxeqPj4WIbm0cyYVj3kzoqEtWWBTdgUQur1Oq6urkApnXl2Vt0APjho4qbunYwy5gOTyOHMIpGzvOtZ9Y6ilMBSYYxlNzx4iw205rHTnXOfo0YiCgSv30mjvOQcT5i15nHY+UmOh7nu0ctaSKex1GTzBvPhhYqm0rbIvrrHg/f/CADppqgSDNQ9Umrgm9/se9/qBBgnq3u0b2aTwJI35cOMCLDQkcfykoBXdlMswsOYCgpg/0zBpx6vxWevhzy7EbCzIqKYZfWQYSKTySCTyeDq6gqapqHZbI5+kAMGBR6dtpg4RhQWiRxOECmtVspqqbwJQub3phmO7NfpRpFJ8qFJWfUbv+oeJ519ddKxZJMEL20n8HArgYuq0clUUnX0/Np1XevsTJ4dM33qKos8LhYLGXnkOOD+WgL31gdnFWMwxoFS4PGzFj4/bfleoyYJBBsFs6g+m+RYanUIOT8/B8/zqNVqEz3u4ELBkzPFfc0vRqRgEjmcSSRy2rc5Sx5/VP7n4z/Io/fU/rjNXHGZNdP5iO0cIbi7JuHBRgL8kC9EUZlx1enYPGZZddv26pgTqg4cVXTsX5hrRz766Q+sFszoY9/DjfZNbkIwEH2cddbV5QyQEYcOlxEjFi7ymJQ4vLyTdE3PYDBGYVDgs5MWvjhrzeVLv9P6kAk2qVOoWF1dhaqqEAQBzWYTrVZr5GPOqxoOzpk4xgkWiRyO3+tFuk2Uw3BH4IFChh8qjkEwaaTOy378bt+r5ybywN0yj7vlFG5bwPkveDRaBjTrhrYtQmiMyI6aZdZVjrAJcxaNhYo8lnICXt1LISWxVzljOnQD+ORYxv6FYr5rzhmrHnJ3RUKZ1UOGkkajAY7jcH5+7loPeSsbeP9J07M6WUZ4YSI5HDeJnOadbaqo47SdjdXMHN+fh0Qe3Y8CSxkeX76fRkIcnnfI6h6DiThOIpS///u/Dwqg1tRRk3XICgUFYBi9M+1YTfZEH3sCjJNFHzkClHJAgqWuLgwLEX4jBLhbNhe/ZXVjjGnRDIqPDmUcV+a7cLydnnrIqoCdkogCq4cMFel0GgCwsrICwzBQqVR6zms6xSdH3k2wxAg3LBo5HK/qIlnUcXIIAYpZAQK7CdnBq0jkLBHHWcZg6DrSEpCWeBgAak2KaoOatZGd9u1pqtZBTH2vgxCH9hixJvZfORMiwet3Uni4xcSRMT2qTvHBfrDiaEfTKU6vVPzsSROfnMi4lQ2W/hgyUqkUMpkMtra2kM+ba8vpBvDxcQv1FlvMcdGgX327I5KMQb7/Z82etFbGhEzx/s9z5hIdYUtZnZX+jI9R+0HgNIaZZ+7umyCHA5BNUGwWeGwUeORSXOd7MDUo3v7Od3r7dxur28n2MQKWtrpoxDptdTnD4/U7KaRZLJ0xA4pG8f6TJs6rWtBDcYQQc8mZnRUJ2yUREquHDB26roPjePzF+4d4dHIb9HAYIYBFIkfzjTGjkfao48QpqxYevG0Gmrba0914I8mneXzludEpq8D46ZN+T5rjdNzrVNZZ0lj9TGcdxfe///2efcNlNr96i+JWNqCoFJQC3/r2t219dbZ6HjMsdVXggHJ+AaJRjA6x/V3vrkr4ynNpJo6MmVA0incfN0IrjoCZgtJoGfjsqYyfPm7g+FJlKZEhg+d5HFYUVPUciivr4DjO10kaGOGHRSJH870/a+J7LBrpG8UsP3bKahDRunH79HNsk7Y96vpxI45+Pqe0BKzlOWyVeCxlePyz73Xfh6bplSDGMsFwJHY1j5JA8HArie0SmzOYMRuySvHOowaqjWiswWcYwFVNx23TXB9yd0XEcobVQ4aBi6qGT45boODA8RyKq5tQWjKq1xcgHAfq93ovjNDCaiJHYwmkUyQyTLWO4Vjr0Zn+sQk8adfLz2/Efs9s6hV+1j2OOu9V325RR7uUcgCWUsBSisP6ModbGZAVCoNSTLLm4xyXU2WEhFj9yrMpDl99kGHiyJiZesvAX35Wj4w42rHqId/7oolPT2TUWD1koDRaBt7fH5xZVUoksbK2jXQ6F9DIGGGCRSJHwyKR3pFOcChm+aCH4Rthq3ucpb9JHzuOOPbzz777FkoZYKtAUMpykARu7BshrN5x8YhNzeNWScSLW0mIrN6LMSPVho6fPGqgpUb/T8Oqh9xdkbDF6iHnjmZQvPN5A5e10Tchbm8uoWsqNC0ckzIxgoVFIkfz619L9uxPXe8ILNxyHXurEl7YTk4UefRzuQ63c2Goexx2LogayGF897vfdTw+SkAt4fyN3/iN7jEAtzJQlwG9vU6kU+1jOgEU02MNjxETIh95FHiCl3aSeG0vxcSRMTOXNR1/FRNxBOz1kC389HEDJ6wecm4YFPjoUB5LHAEgt1TEcqkMQZQgSgmfR8cIO1YkkkUjGWNDBzYcsVJWJ40YjRMB8zqiF4a6x1nwqgbST+yRyrfeequzzQFYSgKby8DaEkE6QRxTVFnkcfGItDymExy+/Fwae6tS0ENhxIDzqoZ3HzegxEQc7egGxVVNx88PZXzYFhojfk8zNFAKfPGshaeXk0YRCZaLZWRzy+AFkUkkAwDA/bXv4uVv/B9BD4MRE5ISCSxlNUjJmyR11Y9xzjN1ddzHOqW42gXSQuJhprUuA4UMINhePkweF4/IyuN6QcRff5hBIRPfnH3G/HjaXjNR0eJtVJpO8fRSxbuPG/j0REa9xeoh/eDptYpHp8rUgs4LIgqlNSTTWSRTaXA8e59bZFaXBBSyPH7l7/8Av/L3fxD0cELJTCmrwHTTTEYM6ykWs8LYs6xGGa9nSnW6bpztcfvyIgr5zW9+c+zHu9VGAs4CaZGRgPU8sFkAcimAi6xJMKYlcr9ynjNnU339TorVbzE84aii4sMDGWrMxdGOolE8OVPwzqMGnpwrUFkqq2dc13X8/EDu1IjMQiKRQjZfRKG0jqXCKoDxa18Y8UDgCbaKYs/dfSaRg/WOYSHs76Q8Z0YdwzgL9ySiFKcJb/xKXZ21jWECCXTTWgkBqq2ZumJEjBC+fbiTlDj80v0U7q1JLEzO8IT9cwUfHcoLWQdIKVCXDXx20sJPHzfx9EqFzlaMmAlVo/jAYWbVWSGEQJQSWFnbRia3bB31tA9G+CAE2CqKyLisV8wkkjEpKcmsd7QIW3rmLO1N02/YUle9GE9/9NGJYVFHO2+99dZIiaQUqDaB42vgrAbI4V0Wm+ERkZHH1byAf+lhBqVc7JamZAQApcDjZwo+PvYmQhRldIPi8lbDhwcyPjxo4orVQ06FbgDv7zdRk/018GQqg5W1baTSGV/7YQRPWuKwXRIxKtjMJDLMzPnNdMikOQRAIStAnCFlNQwRsVn6mkXe3K7zMnV1luvsDBPIccXRzjCBNAwA1PxepajARQ14egNcN4HoLXbGGIfQyyPHAc9tJPDmvTQSIrvTzpgdgwKfPW3hsxMZbG32LppOcXKp4p12PWSD1UOOjUGBT09knFfnd8s1k1vCyto2pESS1UTGEI6YS1BNUpu2qBI5c73jgsBzQCGkKavTENXU1VnqHWd9ztOIo4WbQDrdbNYpUGsBp9fA6S1QZytQxYpQr/OYEAle3klhbZlFGxneoBvml/z9c4WJ0RAIMWczttaHnOVO9SKwf25GsYO6GUGpgevLcxCArRMZE4pZHi/tpGb+ov8v/udf82ZAIcLT9R3txGGtx57uevvNJDh89UEaKan3RTVpHXUQ6z26Hfdifcf+Y9Os8eh2btY1IWdZ8xEA3n67u9TPLOJohxCCb3/72539ywbQ6K95JD3/tB8HJERzkh2JfaWINNwkC8TOk2KWx19/mGXiyPAM3QB+cSTjyRkTx1FY9ZCfsnrIkZxXNXxy3Ao0ik0Ih0JpDdmlIgghEAQxuMEwZobnCLZKkicRokWNRk5FjD8XCMzvVZIwn7BjmNZd9DJ1dZK01Emv9yP6+K1vfWvsa8fBEtfvfOc7nWPDPvvsI6UUkBXg/AY4rQJVxdOhMeaIsLok4PJWC80SBYQAe6sSHmwmIIRUbBnRQ9MpPjyQ8fSKRWUmwaqHrDZ0lJc07K5KWErzbMKqNvWWgQ/2m6GpmxUEEaXyFpRWE7XqNUAAQ2dVJ1GjvCRg2eNlqCyBjFskMowpqxQBT2flMAAzZVVwvCFBKZ0omjXp9X61EWVGPX+n87P8zLyIOvb3bQnkv/pr3x682PYadPp70A2g1jT/E3ggnwaSMUmnXgTIh588oSeXKk6vNchKsKEFSSB4cSeJzQK7a87wDlWneP9JE2c3bAqwWREFgp0VCbsrIpISt9DzfeoG8Jef1XFdD6+cNRu3UGQZqsrmUY8KIk/w+t2U6wyrXhFlibSnrXoujzFNXU0nOHz1uTTSLq+rKKSuzpLO6lfq6rBz06Sxjnt+0t/XqBlTR+HWnwHg2Y35eWhPZe0+sOefgXP24xwBkhKQSwKsij/ckMPDQyorFE+vVZxcqqjJeiDpV/k0jzfupJBhtx4YHqJoFO990UTllomjVxBi1s7srkrYKk42oUdcMCjw4X4Tx5fRiGTXb6+hGzoUuRn0UBhDsDJvdlelualG1CTSt3pHi5jK43ZJxMs7SbiVKvkhj6Oum2fdo9OxSfZnEcZxtmc5Ni7TCuSwfjSYaagG7V7TkypLHDd7Dg4cJ4DAAZkkkGGVa6GEHB4eUsBcn+ziVsPJpYqrmj6/RcMJsFOS8HArwSblYHhKS6N451EDNyGODEUZniNYzvDYXZWwmndOh4ojlAKPTlv4/LQVudrZ6nUFhBC05EbQQ2E4kElyePNuOpC/pahIpK9RRyCW8ihwwEs7SWyXJPfLA5DHYefDJo/9+35u+zFxjsU0AjmsH8UALqoAdXh9dyRyWPQRcF6KyPYYSQByacD91cuYNx15BMywc7Wp4+RSxbNrFS3V329GokDwcDOJnRWWpsrwlkbLwDuPG6g12SwvfiPwBGtLAnZXJeQXoB7y5FLFBwfNyC7zQilF9foCHMcziQwRHAEebCaxHvAkcWGXSCaPkw6AIC0RfOVBZmQqNEtdnU/qqn3bK5GchEkEclT7sg5c1Qh0SkFcXuPf+nY3EjlJ9LEfngNSEpAf0yL//M//HL/8y7883sWMieiRR4umYuDk0kxjrfu01lsmyeGNOynk0yyzmeEtt00D7zxqoBlwDe9CQQCRI9hZlbC3KiEhun2MRJvruo6/+rwBbV6ZGT6i6xrq1WuAECgtls4aNMWcgJd3kqG6+RI2kfRdHC18EcgAfrHtLreKEl7ZdU9Z7VweAXl0Ox6H1FX7tp/RR2A8gRynbVkjuKxRWN+2nD75OY7rvBa/8Y1vzCSQ1iGBN5f8cKt0Y+LoL47yCJi1YudVM431uq57+mVpsyjixe0kJCFEn5KMWHBd1/HOo0ZoZg9eNDgCpJPd9SHjNGOyolH86NM66nK8bkqoSgtysw5d16CpbO70IOA54OWdFArZcN1MFUUR5XIZ/9t/+XrQQwEQdXn0sOEJBsATcyLC3ZXR4RpW9xiMTAYRfQSGC+S4NwbqCnBdpzDaU6r2yyPH2eyuL331G9/4Rl97Tp0MP0Q4ICkCuYQ5yc4Pf/hD5PN5Jo4+4yqPgJnGel03BfKsqkGZMY1V4AkebCSwtyo5v0gYjBm4uNXw3hdNqEwcA4fjgGJWwO6KhJUY1EPqBvDeF41Yz9jbkhvQVAWtVpMt7zFnNosinltPhP5zMehIpCWPvi/PESN5TIkcvvIgg+yYkxFGIfroZerqONfENfpo0S+Rk/xOb1vATYOaGYodOTQ3esQR6Hn5W5v9cvn3/u7fdejMffcP/uAPAAIIPA+eA9ZX8/jX/mUmjn4zVB4Bc3KIRjuN9fhShaxMl8aalMw01bDdWWXEg2fXGj7Yb85voifGWAg8wfpyux4yxYf+y7ETlAIfH8t4cq7EehFxi2b9FpQaaNRvgx7KQiDyBG/cSyEtReMOy+bmJt76r94IpG8mj5Oz2U5ZHXdW7CjIo9vxoKOPk17nh0hOiyWQk/4+b5pAtWn7YCTm/3jCOb/cbcf4frm0ned5vv9y87gweFwQul7x3Fe/DkKAbBK4twbkRz4bxjSMlEeLlkZxdq3h+FJBtWFMtCj22rKAl3dTSLA0VYYPHF+q+OhQjkUdWiwh5hfk3ZVuPWSU2D9X8PGRjAne8mJB/fYahOPQqFWDHkpsIQS4016aI4rMMxI5N3EEPHU8MmTPb3iO4MXt5ESvryinrjod9yIaOe9I5KwiOS1vvfXWxPJ41QBqct+HIwF4wru/3AnAEc71ZjIv8P2Xd8/x3XYJemXy/le+3h5f93pJAFaWgHu5IG7dxJex5REANJ3iqqbj+EpFpaqNrCvjOYJ76xLurSVCNQkAIx5QAIcXCj4+ak10M4MRDBwxJ8oy14eUIpHKenZjpkIv8uurVr0Cx/Fo1JlEek02yeGNgJbm8Ip0Oo0//B/+Fd/7seSx8safY/9cgapRf5fKiUH0MSlx+MpzaeRS42d8TSMhUYs+BpG66nYuTNFHi+985zuu5/r7qNSBRqv3D9FKRSWOs+D0pqo6DdlNHq1opHVQsInk/S9/vactp+2UBOyuAqts7ciZmUgeAXNx7Lps4PhSwdMrDbLLjJYJkeDVvRRW8+y3xPAeSoEnZwo+e8rEMWpY9ZB7q2Y9ZFhvLNVlAz/6tM4mX2pTq16CcDyaLJ3VEzgCPL+ZxFrAS3N4iZ+RSEseC7/6E+gGcHypYP9cQV32Z0b4OMjjRlHEa3upkbOs9sNSV/2XybBGHy2cBNKp/fNbQLbNh9Jb50isLFaX81a73e2OIPZ1JfC9QmlPVbUijv1tOW4Tc4KypTRwrwh0p+BiTMLE8mjRUilOr806yFqzN421lBPw+p1U5NLTGNHAaC/S/vhZK7Jr7THCXQ+pG8BfflbHdZ1NHGOHUgpCCGrVK8jNetDDiTSlnICXQrY0h1esr6/j7f/mS562+etfS6Lwqz/pOWZQMztg/6yF64bu7edBxOWR5whe2DZnWZ30vTVuqatOx4KIPvollX5EHy0siXRqlwI4q1Io7XnkOI6g//Vtjz46iWPnOtIXWUS3qf76R17gO9v3vvz1AUG1i2LnsMt2QgTWC8A2s8iJmFoeAUDVKS5vdRxfKris6dANijvlBJ5bT0Q6DYcRXgwKfHoi48mZ4m/KEmMuEGJK5F677isMddEGBT7Yb+LkUg16KKGFUgOEcKheV9gakVPAccCruyksZ+I9gdzW1pYny3zYo45OGBS4qunYP1dwUdW8yUbx8K2o/+v0PEiIHL76YLKUVYtFSF11OhaH6KPTWLzg7bffHjhmAHh2TaHpFITn2q9sp9slBIQn6EQiHRAE59dpfwqr/bp8Lo/Vh7/c7XVKgbS20wngbhlYchkjo8tM8giYb9q3TR0nlyqWMzw2CqJXY2MwetANc9bLg4vFmPVykTDrIXnsrUrYLIqB3XyiFPj8tIVHpy12c2IMDEMHx/G4uTqHqrSCHk5kiMrSHF4hiiL+9J/8rakf/+tfSyL3N38EQRie4ksB1JoG9s8VnFyqs0tkhKOPGwURr95JTb3WLktdHX1NmKKPbue9xi6RKgXOrykMSxvtNtYHx1mzrw4KZCeySJyPWw+wi+O9X/p69xTB4La9rTEF0vpH4IFiDrjPJtlxZWZ5BMyF2T88kLG6JGCrKCKTcJ9FicGYBt0Afn7QxDGLBsUajjPT+fZWJJQCqIc8vlTx4UGTpUNPiGGY6b03V+fQtfiuhekFkkDwxt00UtLifUgmk0n88f/4NyZ+nFPK6ihaKsX+uVkXqRtTTq4TUXnkOIIXtqw1tcMjj+Nc50WKqttxr1NX+/f9lslpz/vB22+/DUUHKjXz+5nZqf2V3d3qX8vRLpD9qarWsB0nx2lv3/vS13u68EMgre2kBGwXgXJ8StM9YSZ5pBQ4uFDw6UkLmk4hCQQreVMgl7P81He8GAw7mk7x/n4Tz67Zl9JFgecINosidlcl5JLzuRl1VdPxV5832ARMM2AYOig1cHN5DoMZ+ACEAHfLCeyssAydcSfX+fWvJZH5G/8fJGm65Ux0w/yecnCuoDnpOtURlUdRIPjagwzy6enTosMmj8POzTP6OK1Mxin6aHFeB373d9/uXcaqI2Pm/wfqHG3yOFDj2MYphdU6dvdLXx8pfPan7oVAEgCEA3JJc5KdlOOoF4up5VHVKT4+knFU6Y0ECTxBPs1jqyiivCRACkENEyO6qDrFe180cVFl4rhoENJeH3JVwp1VCaKP7yUtleLHn9VRl5nweIFh6NB1DTeXF+0jTMgBIJcyl+Zg91VNstksfvDf/8rQa6aJOjphUODplYr9cwW3DX28dVs9/D2RIXtes74s4rU7KQj8bP1EOXXV7TiLPnrH8Q3w4YFq1jwSgo9/9Hvtfs3zHOdy84IAPC84/hVY6zjazwkCjztvDkrjUPnzQSCtbVEAykvA7gJPsjOVPN42DfzsSQO3TecvWoQAKYnDZlHEVlFESmJprIzJUTWKnzxqsBkvFxyOANkUj91VCZsF7+shDQr89FED5+wGhecYhg5NVVG9voD5ybu4EskR4OFWEuUllv/khFsk8t/6Tz/0tB+DApVbDfvnCiq3OoxhFumbPHrcuA2OI3i4mcCd8vQpqxYs+uh8LCzRR/t2ENHHJxXg42Olk7ba6Y8QfPbj3+9s98N31mfsrX+0RyKth93/8t8eW/jsgtfftRcC2b9PAKQSwN4KsDzwLOPNxPJ4fKniF0cy1DHWPpMEgvKyKZBLaZ7NwMoYm6ZC8c6jBm6bTBwZJhwHrOTMpT1KOW/qISkFPjqScXjBZu/1E8PQoSot3N5cBj2UwFjJC3hpO8lupA4hl8shlUrhe//wy51jXsujBaVAtWnO0Hp6NWSGVo9+X/OSR5En+OqDDJY8mMl3Gvlg0cfFiT5+dgZ8/lTpRvGJTQeJTQw72wSf/Pj3+ibC6aaw3vulv+0qfCPlz032phDI/nZGCiVprx2ZMSfZifcc2iZjy6OmU3x60sLBhF+yBJ5gOcNjqyRiNS9AnDGNghF/arKBdx410GixFELGIDxHsNWuh8zOUA9JAeyfKfjkWB4vhY0xM4ahQ2k1UateBz2UucIR4LU7KSzNUIO2aIiiiI2Njbn01VAM7J8pOKyo0PW+N4OIyWN5WcQbHqSsWixC6qrTMS/3x9l2O+elVHrNRycUX5wpVi/tvrrbdmnsqYW0JNMmj+MIXyACOeycS7sJEdgoAOsxTjIZSx6bioH3vmhOnT7IcUBa4rBVkrBVFJEQmUAynLlp6PjJowYUlX2bZ7hDiDkpxN6qhL1VaaqbUs9uNLz3RYPNrBoAhqFDbjbQqN0EPZS5sFUUcX8j4XOlW3zIZrMoFotz71fT0ZmhVdHak+t4+EsjQ/a8gCPA81tJ3ClL4DwShkVNXXU6Fqboo317kvNe8v6hgYMLtd0H0BVIp/HYBNIa14wCaW+6849XAjnsnFsfDn2mE+YkOxnEi5HyeHqt4ecHTShjpKmOIiESrC+L2CqJyKV4NmkAo4fKrY53v2iMlRLNYADmm3Mu1V0fctz3lJps4Eef1tlrLUAopaDUQLNRQ7N+G/RwfEMSCN68l0aS3TQdiSRJWFtb871WaxQGBY4r5uQ6NVn3rFLXQU88atlE4Am++iCNpTTv2c9wUVJXnY7NI/o47nVeRiK94p0nOp5eqQCITcgsSbQMyzl9tStgzgI5lvyNELqpBHLYuXH6cOlT4IFSDrgTk6laXeVRN8zFsp+ctTy9My/wBMUcj62ihJUc71lqBSPanN1o+NmTJrT+lCEGYwysesi9soRSVhiayqobwI8/q+OGTcQUCszlPSiajRrkRi3o4XgKIcC9tQS2S2xpjmEQQlAul5FIJIIeSg8GNT+bDs4VXNV1GDMWRvstj6tLAt68mwbPeSsLixp9nFUw5xl9tG/PK331Lz5XUbm1Pkctgexa1aII5Kh++veTErBdAkqILo4ZuS2V4mdPmqjcej/7oKZTXFQ1yAqFrIjYKIpIsOU8FpqnVyo+PJCZODKmxjDML3mVWx1bJRF7qxIyicF6SIMCHxw0mTiGCGs691Q6i1Qqg0bjFq1mI+BReUM2aS5bxXCnWCwim80GPQxHOAKsLwtYWxJwVTcn1zm/0aCHcHYtjgDFrABrWT1KaeAR3LDg9LMY59isP8NxH2+/btLtSdrzEpWa3+cptcSIglICQtq53hRAZ5uCWtLY2aYAtVlZ+3oKAqcm2g/tfKZ3Dtubcep6WBu2bdD2tbZzIGP0gSH9wLlfWQE+fwo85oBcCrifB6L2KTEgj+dVDR/sN9HysebMMMxZzlrPDMiqga2ihEySY2msC8jhhTl7L1uYneEFukFxeKHg2bXaqYe0shsoBT5/2sLplTqiFUYQ8Lz5cZRK55BKZdFo3EKRmwGPanoIAXZWxKFR8EUmqLrGaSAEKGZ5FLIp1GUD++cKjivqxBI5WELpXVEl4QiKWT4UdbVBiqvffY8SzGH9+yF1kwimlz8bTUe77KNXAk1JMl/XvXJmF0jrIeYGJdSMOboJpOMT7xW6mQQSzuec+gC60jisz87hvn6BbvuGAdw0gHcb3bUjtyJikZ20VYMCj5+18PhUmesXeVEgWMkJ2CqJKGR5CMwgFwJKzYkJPj1pMXFk+AIhQD5t1tjzXkEAACAASURBVENuFEQ8vVTx4WGTTZATEVS1BbTTWZWWHPRwJoYtzeFMIpFAuVyObFSMEAJKKVoaxUF7ch1Np2PXRQ4+a29+Dqt5AW/eS/csicZSV0cfD7L2cdi5sE+ecyMDP/5URqs9b4DjxDgYNqa+6whs6avmMbcU02Eppfbtzj8O24774/QxRj+j2h61n0oAdwpADuFFAABFo/jgoImz6/kvkq1qFGc3GpqKge2ShLVlARJLY401tH2j4vNTb+tpGQw7lAI3dR0fNpu4quloKsYir1EfOUTRrH+jABLJNORmHarSCnZQY2JGHSUmjjY4jkO5XIYkSUEPZWYIIUiKBM9vJnF/PYGDCwUH5woaLSOQtxhCgGKum7JqEecIYJB4FX0ctw8vUlatba9+L6puttnt1xKgwTBgO5ZoXtfZts7Z/09BBqKYw7enikBi8NzYfYzqZ1jb6N0Hevuz9pst4BenAM8DyxngfnrILyIghMuajp990YAc4NIIukFx09Ahqy00FQNbJRFpafr12xjhxaDAZ09bePKsxdbWY8wFSeBwf11CQuRwdKHgifUlj73+IoEkJQGYX9ilRAotuQFNVUY8Kli2iiLyKW70hQtCqVRCJhOPyer7v3zzHMHdcgK7KxJOr1TsXyioNgzXyXU8Xv0DAMARgkJIUlYnZRIZGvfcJMeDrn2cJZV12vpILwRS08zvc13Lsmoe0beNtmx1U1O74mU+tlfwLIEczFv1TCBdzjn10VP3CPc+h7aN7j7s4+5/Hn196jpQqQKVWyAhABtFoBySP3LhnUeNUExUQikgKwYOLhTIioGtkoTlDN+TgsGINgYFPj6ScXChsC/ujLnAccBre0mkJPONZHdVwtqyiCfnZqRAMyiLRkYEKWHOcc5xHHRNg9JqQtPCV7+aEAm2S9GPrnlBLpdDoVAIehhzgecItkpminylpmP/TMHFrTbGDK2z62QhyyOf4mdqYxRxjiROg1/Rx1kmz5nnRDpqe7KcXvnqNapxJ9Cx5NN6rF0g7fWPPZf3bY8tkEBv7eIIgRyY16dfKO1tubRt3++0j959oK/Pvv2WCjw5Aw4IkJKA+8tA0v3X4ztCGMTRjqpRnF5rkFWKrZKI8pIw1QLgjHChG8BHh00cXarsyzpjLnAEeGk7hVKud16whEjw/EYC68sC9s8UPL1WWfp0hEgkzRyeZNqMZN1cnUPX5l9y4QQhwHZJQmLB13RMJpMol8tBDyMQOI5gNS+glONRbRg4OFfw9GryyXXGhRBzMh+36SLikLoa1ujjLMLo94yo0wrmuKgahVXpO5CWOnQCHWeB7J+B1XOBxOiIJIa1iyFRx2Ftw31/rChkX78GBeot4INn3bUjdwNY4chxqY6g0Q2Kq5pZB2lFIRNCb/EsIzpoBsUH+zKb5ZIxNwgB9soStlecpy4jBFhK83h1L4W1ZRH75wouaxqLiEcIa4mP/HIJAMHN1QUMPViJzKUWe2kOnudRLpchivH+GYzzBZwjBMsZHkvpJJ7bSGD/XMHBhQLD43oNjgCFEWvbeoVfIhqVqOYsaaWjHu9VxHFe6auq3lf6YTOfgbrGAYHsPsZ3gQQGIoVuAunULjCbUMLW/lRRSOuYLfpp9a3qwLNr4Bnaa0cWgHnleYRSHgHTrhstA0/OFDQVMwqZT7E01qih6RTvPWni/CYckQHGYrC2JOL5zeTIZDBCgLVlAatLAg4vlPb7DauHjBI8b4pKfqkIwlkSOf91PAkBdkqLuzRHnOoavYQQgnSC4IWtJB60JXL/XGkvh2a90UyfurqUEbCU9jdldRbiFH0cp+9Jnm+U14FUNWqmZLcNypQwm0B22rW/ti2BtPVJ3Zfw8EQg+/fHFUi492MXOdc0Vqf24b6PMVNZnSQSpL125DOzVCeXAu5l/RW80MqjhaJRPL1S2xFIEat5obNuGyPcqDrFO48auKqxBdkZ8yOf5vHqXnKidWM5Auy16yH3z8wvd7r1wciIBIJo1hnm8gVwHI+bq3MYc8xHXskLWMmH/iPVc/L5PJaXl4MeRughBBB4gvvrCdwpSzi5VLF/rqAmG6BT3q0albJqEYXIXhTGCAQTfZwFP9JXzagX7UpW264GBdLa7J1Mx10gTfvyTCAxZkqrk0D278+Sxooxo5Dt/41KXR0mkYYB3NSBd+uAJADlZWDDh3tLkfik03SKSk2DrBqQ21FItpxHuJFVUxyrDSaOjPnBcwSv7qWmvsGUFAme30pgbVnA/rmC0yuVzQocMcT27KyZfAE8L+Dm6hzUZ4k0o46LNUlOKpXC6upq0MOIJDxHsLMiYaso4qyq4eBcwWVNnzjjgSNAKcvPNdodVskLc/Qx6MlzvE5fpTAjj7BXOzoKpNsMrM4CaT1mVoHsjwwOE0igV+iG1SU61SS6St0EUciRUUenYyMkEgAUDTi6AI7QXjtyGcjCGyIhj4Bp07dNA4+ftSCrZhQymxx9x40xf+otA+88aqAus1lIGPOD44DX7qRmXiKBAO1apXY95FkLV/XJv9gxgiXRnp01k10Cx/O4vbn0TSK3SxJyC7I0B8/zWFtbgyBE5uuDL3ghURxHsL5sTgx4Xdexf67g7Fob+4bVUprHUma830MUJs6ZZdmOeeL10h3jRgT9lMbJ0m3NyKNlQvbpctrKN2IGVltb9kfbU11nEMj+yOAwgewXun6h7H+8Ux3kgMBNEoXE4Bjc0mcdj7lIZE8/aK8d+cxcO7KQAe6mMBORe/dXNIqjioqmQrFdElHM8RCYQYaGakPHTx412vUcDMZ8IAR4sJHE+rJ3b2mEAOvLAtaWhE6dEquHjB7JlFmHl0pnwXE86rc3oNQ7iTSX5oj3BDEWKysrSKdDuGJ1xOEIQTEroJARUJd17F+oOKooQ2eBJgQo5oRAbqCHReL6iVL00c/01WlrHsftS9UBVWu/OO0CabNG+6yrvTOwDi7h0VkDsmcMMwpk3/5YAtm/3982XPpySmNtXzsyCtm3D6tf2I719+1wbKhE2o7rOnBRNf9LiMBmEVjB5EROHgEzjfW82q6DVERsFkSILI01cC5rOsKybihjgSBm5Odu2Z+0QUKAO2UJ68sinpy3sH+utBdH9qU7hk+kM3kAgGHooJRCbtSmrjWzs7Mixb6MYmlpCUtLS0EPI/YQAmRTPF7a5vHcegIH5wr2L5R2iuDgtcU5p6zOwiJGH72aPGeWSXK8mGCnH1Vr1zxaUcMBgWz33ROTnKNAAo6S5zS5jWuE0CEa6CSUgD9RyM6xIcJIO/9zEFf7Mftxm8S2VOCLZ8ATAqQTwP0lYNxVPyIpj4CZxlpt6pBPu3WQmQQXmTfSuHFe1fDeF00mjoy5U8oKeGkn6fvfflIieLiVbEukWQ/JopDRw5JIQgh0TYPSak4tkUvpeC/Nweoah+OXyBBiRrQfbCZwb13C4YWKgwsFDdnofDFcSvNYHjNl1e/xRoEgoo+jzoexFnKc56nqtHNDw1kgnUN+fgpkT20i3NNOB+oeAecIoVM00B4JtP2IJo5C9u0DQyRynKgjBkXWfmxUNJJSoC4D78uAKJhrR+6MuBcfWXkEzCfcUikOLhSzDrIoopAV2HIec+bplYoPD2Qmjoy5k5I4vLaXmlvqFoFZD/l6OmVK5FkL16weMpJYEtmoV6G0ZOiaOrFExjVdVRAElMvlha9rDAM8R3CnLGF3VcLplYqDcwU3DR3FbDApqxZ+pFOOe9200uU140jmLMI4TXTQ66U8nFA1A7RjSf0CacmbaVT2baBfIC3xml0gAdITdRxbIPv3J4g69kidg1C6RiFt+50mvEhdtfqFe9Sx57fqEI1UNeD0CjiFuXbkTgFwmks7Fp8Mmk7x7FpDUzGwXaJYWxYgsuU85sJRRcVHhzJ0NiUlY85wHPDqXgpJaf5/6/31kE/OFDRVo/vOz4gM6Uwe6UwejXoVcqMOSsdbOqG8FM+lOVZXV5FKzTibAsNzOAJsFkWsF0RUbjU0WwZs32UZNuZZ++jn5DnDrvVs2Y0p2rSW6UC/yKEten1G5SiQtmu9E0j0pLH2RwlHRggdooGjhLK/ffS36bA/btTRfo2nEmkfg30ctjYIzLUjP7OtHXk/C1irfsTmk083KK7rOmSl1ZZIEUmRpbH6BaXAwYWCT45bTBwZc4cQ4OWdFEq5YBfHtuoh15YFPGmvD8mikNHELpGNWrWTwuUEIWatY5xYXl5GPp8PehiRY96poBwBRJ7g3WMZRxUVu6sSNovi2FFIL8cbhRlcve4jyMlzhp3ze9uO1pFHYCCk1jasjv65CaRdCj0TSHMAwybSGVqnOCw66BQZtLcP5/4G+rDaRW+/gLO8dpqdUSLtz7lnDA7HO/+0j1trR/60bqa1ri0DsUrwpBRoKgb2zxR8/tRMJ9PZahGeQynwxZmCj49ZxJExfwgB7q0lsBWilMGUxOGF7SS+9iCDjYLIblpFmHQmh5W1baQyOQBw/PK0XZKQTcbj4zOdTmN3d5eJY0SgACq35nIeNw0dHx408S9+XsPjZ0okPo/HTQ2fdTIrt8dPenyWvoZdM+wxw64d93F+bAPm60/VKCilvYk21NS2zkWwnafUdtipbWq7rNuGvYeeazviQ22Xt7ftfdsG2P9j69m3R+Soec6+b3tKg/u2y2hffwN90J6H9Pbr1jft6XZgDLTnZPdY/3HHMfUdHzhl9W8bg9peOzI2kUc7qk7x9ErrLOdRXhKmXjSc0QulwOenLTw+bbHF0xmBsLYs4sFGInTpWgRAIctjOZvC2pUZibxpsHrI6GG+stKZXDsSeYtG7ca8a0EpkhKHnZXw3LiYFlEUUS6XwfPBRu8Zk0EpcFXrvq9YN80/OZbx+dMW9lZF7K5KSEqc63tkXCbOmfZ5zDoLqtczrTpdP03EcdzrZpu91ZJHoBup64blOhFDCl8ikCCkHXUEaGfbFoHs77vdVGcI6Nu3p5Q6RB1dI4NuEUCHfWCCVFZb351mbP33HxsYh71vh/HZx9QzLvtY+sdjH0N7N5byCJhprFc1DbJqQFbN2VglgfT+MBgTYVDgk2OZpeYxAiOf5vHaXirUkT0CYKMgtifUUfDk3JzQa/C2HiPcWBKZRSqVgdyso167wc6KGPma+nK5jGQyGfQwYsM8Zaza0HFZ0xzP6QbF42fme85WUcLuiohcmvf1e0+QE+d4/Xivagfdjs1jMp1ZJ9YZfS2g6oYtykjmKpCgtC2N3W1Yaatw6dsukHBIOR0mdn3C5lqf2NcHaK+YzZLKau/f7dhASm3nAneJ7IwDDueGiSRiLI+AKTt12cDjZ906yFyKD3SGsqhiUOCjQxlHFSaOjGAQeILX9lKRmU2ZEODumoT1AquHjDYEhCNIZXJYLabx8q6Aq6uroAc1FayuMdpQAJc1bWTWj2EAhxcKjisKVpcE7K5IKOWEUN90mxavo49+T57jlTAOu3YWsRz1WEopFG2w5jFIgTTbo+19Atp+HLH1bZenfrnrjw72iN2QqKNXUchZJRIYlFmrrZ7+bY8diEbaz/W/ROwi2X5crOXRQtUoTi5VyIqB7ZKElTxbzmMSdAP48KCJkyuVRU8YgUAI8NpeCrlU9P5wUxKHF7eTnUjksxu2PmQkIcDD7RxyOQEcx4FSisvLy6BHNRaZTAalUinoYTBmhFLgsjZ+KrxBgWfXGs5uNCxneOytSlhbNifXCXrinLBGHydpJ0zpq8POeblNqTVhDm2nkAKOAgk4p5GaDU0nkLA9X0eBhC2NlbbbJx2zGjaRzsC+1Qwc9vuFzikKadt3kkpgSMTTdmwciRw76uhwvHOo7+fQc7mDTC6EPALmi/3i1qyDbCoGtkrRTz2aB7oBvPekgbNr5zQZBsNvCAEebiaxthztt6tClkchm8KJrR6S3YyJDlsFs34eMGUMADRNA8/zoY1ESpKEcrkMjoveTZeoMY/U1dumjiuXlNVhWHWS1/UmMokWdlcl7KxI4OD/mOfBPKKPs7Q5a/rqsOjhvOsfKWh3TW8H23KcCXVqgQQoJV2B7H+O/QKJITOxwtZ/v0Cib99N6pyEzi0KiSlTWQFvJdLtuFvUccg5+9ii/W1sQgwDqMk6Pj812mmsEjJJjqWxuqAZFD991ETllokjIyCIuSTCnbX4LIuwaa+HPGuhpfXnhDDCBscBd9cSA8eXl83lk1utFgRBQLVanffQHCGEYHV1ldU1xghLAGeZQZ5SoCYb+MWRjM9PW9hdkbC3KpnzQcwokSz6OFl/XtY/up3zQyZVnULRDMd2PBVImy11BRIwI5IuAjlJ/31i1y+UgEsaa7ebiaOQnafct2/vy+3YRBLpdtwmkU7RyM6lLiJpH9tCySNgPnFVoziqqJBVczbWYpalsfbT0ijeedTATV0PeiiMBWYlJ+Cl7eRA1kTU4Qhwb03CurU+5IXCBDLE3C0nhqZMr6ysAAB0XYdhGGg2m/Ma2gCFQgG5XC6w/hn+QGEu0eFFyjulgKJSfP60hcfPFOysiNhbkZBOcuAiGokMU/Rxkn6mffw00UgvZFLVKFSdwhZvcxTIjrVMK5BWxLBHINHp1+wT5hgobXdDOn06CSQwfh2kbWjdpwWPo5CwHZtVIm1tOcllZwydndlEcuHk8f9v70u7G0euLC+4gIt2idS+5J5ddmX2tF19yvPn7T59zsxx257udlfZ5arclZnaRS2kRBIA8eYDtgggAAIkSIJi3DqVIgIRL15AFImL+94LB0aPcHbj5EEStlbkdh4O2pqJv7y9R6sjN8mUmByqpRxeZbyy6rColnL41V4ZmytFfDzr4vTGkCQyY6iWcngcU/l28god8nh+fj4yv/yYn5/H6urq2OaTCGKUoautTg9XrfQf5pom4dOZhs8XOjaXC9ivq1ieyw9EIietPqah1vVrT7NtlNVYw84NSyZ1g+ycRz/R4QkkR/ZGRiARyIm08jDJntYik4rLtmLmQcJ37Cd0A6qQAcLotPUhjLFIpGh+po0jsr529jAukZxZ8ghYYaw39z20tQ7amordtSIqau5B36z2Q7Nt4i/v7tHRJHGUmBwUBXh1UEG5OBt/jKvzeazOV3HU0K18yLbMh8wKnmyUEufHVyoVAJYKWCgUcHFxAUpDMhKgVCqhXq/LvMYHjqtWz1Z8RgPTtAoLnlwZWF3IY7+uYn2pkCklUoavDqY4Rp1LWo3V6BF6drnfaF/HRyDRtxKrIIw1Kg/S/ocLW0VCFRLhJFIUysrZT9CWmEQy7ZxvrD+MnTAiOdPkEbB+GV2d8Olcc/Mgl+fyMxnGen3Xw1/e3UM35F2rxOSgKMC3+xWszs/e5uXbq0VsLBfx8VzDp7Muurr8W5wk1hYK2KsVBx7vhI8uLCxAURQ0m02YZjoP5nK5HOr1OkqlYC6mxMOCSRhb7QGTCBe3Bi6bPSxUcjioq9hZLSIXszjEKNXHUdrKUvhqkjnHWUAHsPZ45IjIhAgk4FMdowgk4uVBikJJQ8NYPdNiFdI+7hvK6p+POXbnwJAkkrGZCpGEJI8ujB7h9NqwwlhrKjaWCyjMUCWdy6aB/3zf9qpoSUhMAIpiKT27a4PfsE878jngKZMPeXiuTdqlmUXccNV+cArrAICu6+h2u+j1Bg9BXF1dxfz8fBquSaSMUYSu3nV6aIwgZDUKRITb+x5+POzg7bFVofWgrk48vechqI9JwlHj9B+0gE7ySqtW2Cq5MYz97aZJIBEjbDV2IR3A3g8yeRgrkJ4KKWxLSCIDBBbidtYP17zAH84nxg+2SZJHBj2TcHXXQ1vvuipkqaAg5e+BzOH02sBfP7bdUAQJiUlhc6WI51tSSQGAuVIOv95z9ofs4uxGVj0eJ3bWiqgvpvsVubS0BABoNpu4vb2FoigwjPi/14WFBaysrKTqk0S2QWTt7TipB7sEQlsn/HLUxbsTi0Tu19TIFJ9ZUR+zEr7qPx6VGkkE6D2yiRzAsqxREUiQ3aoI7PgJpDsvrGPyF9KBlwcJoG8Yq2PGnm4QFRJAMhLJErWYJFKoOoa1C1RHvxoZSSTt85I8+kAEtLsmPpxq6GhWNdbFav7BbufxtaHjb4cdSRwlJo6luTxe7T/sAjmDYG0hj7WFKr7a+ZC397IC8qiRzyl4ItiaIy0sLCxgYWEBrVYLjUYD+Xw+UokslUpYX19PXdGSmA40WulUWR0IrrBDMEwF7081fDzTsL1axEFdxWIlP/bP7FGqj5MMXx1lAZ24eY5R/Yg85dHjjqMlkPZIX9gqbLu2WhjYyiOoSCJxGKtlaxAVUqQ6cuRNcX8ElT//HII24dyi+f3t/nMxwloDRNI+L8ljCIyelTxuKZBFrC8VH1QeJBHw+VLDT186SCkFR0JiYBQLCl7tVx7U31ja2FktuirkxzMNmsxNHhkeb6iYL4/+zTg/P4/5+Xnc3d3h8vISuVyOy4nM5XJYX1+Hqj6cfU5nAWkSjbtuD41mth4YmQR8udRx1NBRX7QqtNYWCj4lZjrVxzTmSVORjDNf2Ln0w1lhV1r1h3gmI5BgiRvg5Sv2JZDwjmMokqGFdAJhrLDGsGGsYHwRKYL9VEcgFqkEfIStD4kEBHP72kLJos8X5kc8Isn4LMljBHomodG08iA7GmG3VkxcdS+LIAI+nmn45VgSR4nJQ1GA1weVyH30JCzkc8DTzZJNIjUcXsh8yLQxV46/NUdqc87NoVQqQdd1d3uPtbU1zM3NjdUPiWyBADSaPftBEXMHOwlHFO4FAItEnt4YOL81sFTN46CuYnOlOJZIrWELz6SpPo4y/zHNfMjhw1kJmmEyfIIlV/EJJEfcHHVQQCAB2HmPgNs7UpG0x8TOg4QdxtpPhVSCZM6vBvoJI8JJ5TAk0rUrmgvB9ig10v3R5xw3vX1Oksc+MAlodU28PbHzIGvWE+lpDWMlAt6edPH+pAsZqSoxaSgK8HKnjPUl+VGUBHPlHH69X8bmSgEfzjScy3zI1PBkozSRYmmFQgGFQgH1et3d6kNixkGERiv7f9smWdXar+/aeHvSxX5NxX5dRQ79CZ4f41IMB51rHP6lmf+YxHY/oukojyzBGRmBtFmT37aIQEYW0nHnth0mOyQ1RhgrgOhiOp6b8UNZveWzl9BqjkMiRXMxbUIfWD/8vsQ45/5gTshH/XFg/8F8udTx5riDi1sDvSlU7IiAn486eCeJo0QWoAD7NRWP12VI3qBYWyjgu6dVW7mdva1N0sbaQmHilX4lcXwYIBr+S/a+S3aVVcfWBL+4KfBCePquY+KnLx38/ocm3hx30dHMxNcibv84/Qb9PaThc5ptwxz36xt/HKAZ5BIr9j1B7nHceYkhLcQ0EXfM2Samt88WMb54x54tcm17i2E8dX2xyCgxLhBjhjw3WFN+d8CZ8KZg2wjgTPdp416GzS/ygYK+gWkPvBP6nHP+l4/7E6BnWvsfdTRCWzOxs1acmu08TAJ++tzB50st+EaSkJgAagsFfLNXnrQbDwI7a0VsLBfw8dwqZiH3ah0MTzflgwyJbIDIKpQzrXu96gbh7bEV5bRrK5EL5Vzqql2WiueMOv9xHIpj1Dm9Z7pVf/nQTnsckJICaZ1LXokV4QV6QsNYAbYaq2M7tgoJcEpgv1DWQJtDDJMqkUBwfqaf/20gVCMZfxw7UYokuzSpPCaEaQLNdg9vjrt4d6zhrmNmnoyZBPzwqS2Jo0RmUC3l8PqgMqkMngeJQl7Bs80SfvdiDns1SYKSYremYm1BPk+VSA/Dqo+86pgliH0StZoEHJ5r+L8/3eG/P7Rx2TRiRT6lodzGtTXIXEnGpKU2JvUjLXXSeW30CDoTtsorkOS1sCymrx/EkBRGehPY99Q4xrYjlbG2GdnOU978/ni2iXy2iVlNpArJrtdzNaBMCtQ/kTKZlhLJzRnSLnzbMOcCp4k5D0keBwKR9VTt07mGN8ddXLbifRhOAj0T+O8P9zhq6JI4SmQCigK8flRBqSip4ygwX87h2/0y/vVZFbWU9yl8qCjkFTyR4dMSGUJbM9FoGgJCNsEv8iGmNolwfKXjT2/u8ec3dzi+0lO7b8p6+OowSEooRxXeSkTQDJs8AiEEj2kZmEB6x0H7fgJJzCmeUPJhrCyB9I6jw1iJHc35M1Qoq3/ZKZJI1weBH6K3zTBEUt5ZDIGeSTi9sbfzqBG2V7K1nUfPBP7z/T0ubrOfcC8xG1AU4NVBBStzMj9v1KgtFlBbLODLpY4PZ1202lOYqD0mPN5QMTeGrTkkJOLACVntZDpklSCq/ipuZc4T4bJpoNHqYaHSxX5dxe6aKixCmJXiOZMOX027gM6gIaxGj+w9we3fsvvDH8Iav4iOW7gGBC+E1TsOrX7qmrbsWy+Jiwflw1YRL4wVEBbTAeytQiD2ye7RP5TVMYv+RXUARIazuteAnS+knZvX186e4/xifHFP2z7Kb8shYZrAzX0Pb486eH9qVWTNgsKn9wh/enMniaNEdqBY20zsrE62IMmsYXetiN+9mMOzrRIKD2CrobQxX8nh8Xpp0m5IPFAMpkSRvbcjq37w5yeGGFPH8Y6IcHvfw98OO/i3H5t4e9IdKlc7DfUxq+GrcWwNe9yvLwF2yCrx70qhQsi0ENfIh4xaDQHFj1MNXdWNldmIt8+ohMGwVf+x0533KbEKafskVCF580JlEp7bXMckSiT3kuK1s/6IfAJzLkqRlOQxBRABHZ3w4dQKY72+6000jLWtEf7jlztc32VrY2GJ2cb2ShHPt+RN+iRQzCt4vlXC717OTbyaaNbwZKOUqYgRCYmOTrhsiUJWs4bhPSQidDQTvxx18fsfm/jpSwf3XW8vwWHJWVpIK3w1zfzHsVZkJYJueMRuOALJH/OE0R5HwTmYLEOOrDFGvVkThrFaQ/w+ReRCMnIcTyKZHiGkzbf04UlkDHLpX67fp6REUn5lEZGRDAAAIABJREFUpoieacX0vznu4uRKn8h2Hq2OiT+9uUNThqhJZAjLc3m8PpBbEEwaC+UcXh1U8K/PqrI4DKzQXqmES4waSYlHo2mgo/X7Dp8gtYwxdWLvCOj1gA9nGv797y388LGN67te6qscRn1MQgjjzNUPaRTQSS/n0aq2Ss4BUiCQ3HxBAunxs6g54uVB8vbJPRapkAFiy/nk84theWEFhEJJJOtdUhLZh1xyZNFPJH3tfr/iEEl595AyTNPKVWhrJto6YW+tiGJB8YcXjwQ39z385d09tEznSUjMGtSCYlVWlRGTmYGTD/n5wsqHvOvM5sOmZ5tSCZfIFogIl61g1BAhOpdw7HAdSsszz45JwJeGjqMrHbXFAvZrKupLBeRifIkMsuVFkvPjzH+MM38aOZJxxhKsnEeXUBLx21oMkgMJUZ4iv90Gv5UHECsPEp5vIMF2HswxoNhzOvfN1jEUd3MQj0By+ZkA2X6623oAINuO4iYrOjRTnA9pm2Wud7DNJathW2n029LD184dsnSB9YPpJMqRlORxBCAC7jUT7+wNcnfXilis5Ed683zZ7OH/vbu3k5klJLIBRQFeH1RkMZKMYq9m7Q/5yd4f0tnDaxawV1OxMi8LN0lkCx2dQqqsipA5SslhIO+YQSYBZzcGzm8NLFfz2K+r2F4pIpfR/bWTFPgZZQGdOPPFLZLjHBMhmJMaIJAIIXcARyDhEcYggfTPzxJI7zgwB8hu4/eDdGcmcMcQFNOBS1K9YjpWG0MiXcJoz8EW1PGtH+BJpN0yPIm0x8YprsO2224wB7zAGJtIQoatjg5khbF+ubTyIM9uRredx9mNIYmjRPagAN/sllFfks+osgy1YOdDvpjDzozkQxYLCp5syK05JMaHuCGMjVYP7ZCQ1cx9w1PgRVoG+VYCru56+J+Pbfz731t4f9qNvN8ZdfGcSec/itoGCXFNNJ6sgjnBcElHWWM6OmQGxBEPh1KRO84b238rj/BCOoOHsRLnmz0N4Hlpt7FMzPbF55u3TPtYdA0Y//jrwpkWtqUR0spcNt4nCnQLnPObkuRxxDBN4PLWwC/HHRyeazBSJnjHVzr+64MkjhLZw0FNxUFd3qBPCxYqObw+qOC7Z1WsPvB8yMfrKqol+fUnkS0QIYHqOB0YaC0hgwjAXdfEP7508Psfmvj5awcdzRR2nxSBTCP/MSsVWLmcRzgFc/zkCZEE0iVzvgcNxP8TOr+vhSFGLGFkKKOIoDH+kY+JBYvpCOZwfeFJZLCgDjMvy9QEBNf1UUTQRGQxrF1EFn3tQiIJ37kIIkkUPC+/PccAk4C7jok3x128Oeqi1Rl+Ow8C8PlCx/98asOczXQliQyjvlTAr/bKk3ZDYgDUFwv4/nkV3+4/zHDjhUoOjzdkrqPE+NGPAHQNE41W9PZaAloxlE9DgwIv0jEYYY5ghVC+O+niDz+28LfDNm7b6RfXGRTDKo1x7Y66Ait7TGRv1eGdCCWQHHmyX/u3tAD30k8g/SSNm4gxTdw8odt5MP55U7JGk6qQfa6Du1TGP3Kugv86xCCRccglee0ishggkgwZ9PFCQYOviSR5HBuIrGTjwwsNvxx1cdEcPIyVCPh0puHvXyRxlMge5so5WVn1AWCvZu0P+XSzhHxGc4wGwZPNknBDcgmJSaPR7OG++/C+1JPf6vQf4fQgIhyea/g/P93hv97f4+LWcG+sJxm+Og6lMe7YNI6NHgVz4kMIJCAikD5yF0kgeVsuuWOtc6Z5ggbfPDyBZGgnBf0TqpA+EknEWUVAhWTYWoBEOvMkIZFh7SISyU8vMBTghQMRyYcdm5RBmCZwfqOjo5lo10zsrKqJ9hgjAt6fdvH2uDvRvSQlJERwCuSoBXl3/hCgFhS82C5ha6WI96ddHDX0Sbs0FOqLBWyvzEZep0Q2EV6V06rUHudrneAvRBNsGSvc6VP2o4859jQR4eTKwOm1gdV5q7jO5nIRwGSqrya1lWYBHVHbsMd6j6AbJtwiNV5HkMK0kP1bcWvlEJhqN954QrASaWQlVr9PDjljC9/YhW7cAjZsNVbAK1bj2fUX03EIo7giq28eULCgDhCoysoVFbI6hBbVcTy3Tdvt7oq9dkFxHQDJCuwwdvznAHCFdhj3AEjyOBGYBNy2e3hzZKKjEXbXiqioub7VWImAX467+HDaHTrsVUIiddjEcXlOVrB8aFio5PDPjyouibwSbCUwDXi2JcNVJbIJ3TDRmNK/qzhITisHIaIEIgWXzR4arTYWKl3s11Ts1lTkFKXvPdagSGP7jrD2NLf6GIZA6gZZYasEkNKHQDKEsT+BZFoEBBICn+Cbi6+UCoirscLd0sOrxgrHO4uogvdRWJEV/LYeDolUWEZHZBMvZi7At7UH3PkiSSQQrM5q/+MnkcxUwfc6PyXX7v6IIJL+yqwybHVCIAI0g/DxzKrG2mj1IgkhEfDTl44kjhKZxfPNErblhusPGutLBfzuxRx+vVeeuoIz+3VVPtiQyCwuWz3cdeKTx+BtwIRvDCjwIrzLQHbjnnZu9IHbexN/+9zBv/3YwtuTDjQ9vN7EMOGrg4wbRVjrKHMidTZs1VHd+I6+FuKJCSeDMeOJb/FCVr3OwcqvUXmQzFy2n7GL6YB4GQ+CXEiEFdTxXRPyrgnxnZg2AmPM85V30H/onyIypDV2biRjP5Afyc5t/z9d3/4PED2TcHKt481xB0dXujAU1STgx8M2Di80SRwlMont1aJUdWYI+3UVv3sxhycb05EPqcqtOSQyBNEN+sOqsprWSvwEI/lsREBHN/HLURe//7GFn7600eqIH9aPO/8xSa7jpAmk0fPl4kYQyACJc9t4ViIikO6/xJ1AoFCNQ+y4ufw5iyFzEYHzPlEupLcOfy6k1RasysoTa4+dxSaRrr/J8yIZFwQnkhFJto8MW80ATBO4vuuhrXXR1kzsralQi5bcbRLw149tnFzr6X0eS0ikiJX5vCyQM4MoFRW83Clha7WA96cajjOcD/l4o4SKKp+VSmQTeo9SClklZCP3caguQ48IG9MzCR/ONHw617G1UsSBHY3Ab84+vvzHQeaI07dfOGqcPuwxkbfHI3dtCcIQVi/Hz+3Eh7AyIatkv/BCM5le3j+eaVAgDzJWGCt8vtq2+dBQz3a8XEhEhrLGyoeE4uYWhoaz+kJvrdFMXiR7+T3XAqGrobmRrDve9D6j9kv7hCSPGYHzdOz9iYZ218ReTcVCJY//tKuHSUhkEaWiglcHlZHlkkhkH4uVPP7Xowq2V4p4d9LF9V228rYWKnk8Wpeqo0S2wN6cN1o9NBOErLo2MFGq2Acpe9fHXPA0T3LYkyYRvjY0HF/pqC0WsF9Tsb5USOV7bNz5j3H7DksgdYPVnuIQSIvgcESJLRwDwMuDdCmkS+qs1nh5kBYxY3NaLcLqpVl6hJUUPyHz+erLhQTZ9JIhlUhIIgP5kLa9pCQySLJ9JJKZxlmK25QykZTkMUsgoEeEoysdXYNQUXN993ySkJgkXh1UMDdluW8So8H6UgH1pQIOzzV8OLMegmUBTzdVuTWHRKbRaKb5PS/Vx7gmTCKc3eg4vzWwVM1bxXXW+ldoHVRhHDeBHMSe6JhVHskV5/oRSPAFaixjLoEEHJKkMGbEhXTgKo5w57T89I5dZVBQjTWgQirMXD5fAZEKiT4FdbzrIbo+jmI7FImE46Pz0muzrbtuRKqRvnOef/b5PkTS+SHJYwah5hW82CqhkFdQyCn4fKnBcEMGJCSygV/tlVFflB8hEh4UAAd2ifwPZ118Otcmuhft+lIBW3JrDomMwsolw1Ahq5lUH5mb/zDvBvJ7GPUxyiwRru8M3Nz38O6ki/26iv26ikIuvELroOGr4ySQqW3rAWufcld3jCSQ4NrCCKQ3uj+BdKjfoGGsARWSCWO1vI2pQkIcygpX9YxQITEkibQcds0FKrQy8mOkGum5ORCRdH5IySBjmCvn8P2LOSxW86iWcni+XcLzrRIWKvnQDzEJiXHj0bqKg7oMBZQQo1RU8E87ZfzvF3PYnCB5k0WcJLKORsvAbTvtUO+H+KSZuB99eolb+o0l4L5r4h9fOvjDD038fNTBfXewCq1pFdAJa49brTWtQjvWNh0EjyC5PZlBHkFi2/iCMfZg7tdpH7ttBN4Mef/67JNoPSQqpsNOy7+XAlVSIa7Iys3nsx9aldUz4ls+3+b4zM3EFNsh1qvAtWLWw8znjiP4XWDWEmzn/PQv1YYkjxnCUjWP75/PcSXwcwqwX1PxYquE9aUCcvI3JjFhrC8V8M1uedJuSEwBFqt5/MvjCn7zpDr2bTIO6iqWqnJrDols47I5PHHMJFUUkYuwLsmNDo5IE97Nu24Q3p108W9/a+LHwzZu7qK3UxNaGyBcbBxbeMRtc46JCLrhIzYIIZBuu4DQ8Q1BAskNC9+2QsR6gtVYESRjDon0HYNEJIwnYH4W5bWxKyKfWxEk0iWz/UgkM7frLrEGmKslrtIaJMPcZXK7JiGSMuYsI1idz+O3z6ooCJJzFAWoLRZQLuVQUTUcXmjWlh6Z/MaQeMiYr+TwSlZWlUiIjeUC1pcK+GTnQ3a00caylooKnmxI1VEi2zBMjLCuASE7Aa0p+9LHXPC0ryVyPLuRvHWzfHiu4fOFho3lIvbrKmoLXnGdQauzJs2bHDasdZgQVsBRHsFcN+uAD2EFuBBNQSEdUtjAVsdmWCEd5rfhzu3LTewTxmqRVkExHdsJcfVXJpSVLd7jTcJ4KwhltdfA50NCHM7q8L9AyK8Xzhq4XpF5kYI1uBcL7hkQvN9MVFir77xzCSR5zADqSwX85kk1sqiDogAL5Ryeb5VQVnP4fKFFhlNISKSNXA54tV+BWsjKDYnENEFRrHDnzZUiPpx2rYdgI+KQjzdKKKvyfSqRbVylGLKaJaroIoZTyf3mb/bj200yk3j0ybWO02sdK/MFHNRVbK0UoSjJiaBrM4X8x7D2NNv0Htk5j2Tl2AkIJBCVB8mTOX4rD74NGDIP0rbHr0lQTAeAlwvJkFbLAX5OAOKCOq631pzeRXDn9PIhvXkjSSSCOZGWa9EkEo53grxIy2fmeoQV2WGmZa4STybt85I8ThIKsLVcxOtHldjVAAt5BY/qKio2gWw0DUuFlJAYMV4fVMYeeijx8FAuKvhmt4zt1SLenWg4vU53f8jFah6PZD6uxBQgjZDVaGSAUvpu+CO7JDc6eK+k5JPhrI2WgatWD29PutivWcV1cphcAZ2w9rTadIOgG9aTvjACaY1JQiAZNc9ps6RAjxoGiJB4qwo/mXP9BzgVkuw5olVIIE5BHc8FT+lMRiJZ0i1QbUNJpOsRGMbJkG+HRDJjOSLJXEOGNfYjkt76rNcyg25CUBRgd7WIf05AHNmxG0sFvNguYWdNtfIgM/fIUeIh4cV2SVatlEgVS9U8fvPEyodMMzfx2WZJFheTyDx6IwhZnbnnyIkXTJGH/pOB08SfbbZ7+Ptnq7jOm+MuOlq6xXVGVVgnaZthK49uO0ta7BZvTLDN6i649oPmQQbaWGLD+ilal6CYjj0vP5L9wa/FGeO5QOzCXRLpv0aiojr8cK/Na+fb3OvWNy+SuTLENILJjWSnFORHhhXaAaTyOBEoCrBfV/HNTnngmxxFsW6+Kts5VFQFny90dHQZxiqRPnbXini6KfPHJEaDjWV+f8hh8iHXlwvYWJZfaxLZx1XLwM1dbwwPfhkVaFJwXQj3JbmX9og+A4Onk8zk22ZCMJxA6OjAm6Mu3p50cWArkfPlYIX8aVUg9Z71P9duq3b+kExHUYu1lYc1AUiwtQanQAJIHsbqzRNfhQSE+0ICAhUSfCirvRYulBV2PiR43y11T2F8966b5abff7uf4mmO7rVj1hWuRoaH5sI9z6wLxPgrUCQhyePYoShWPs6LrXSejqsFqzBEWc3hy4WGqwEqgklIhGF1Po9vZYEciREjpwCP1lVsLBfx0d4fMunnmKIAz+VDDokpweUQeztGIQNUsQ/S9DCerchefU0IOgSaLBJBJvDhTMOncw1bq0Xs11Sszhe4e71xEMi4tuO2he8zTiCOQFptkQQSDjkKEkjAR4BEeZB2p6gwVpfoJM6FdOb27QvJEKv4oayu10hGIiHOiXQvi5hEWr65nnHtgCg3krEbm0h6YyR5HCNyirXv2JONdMOqFAXYXim6eZAnV7rMg5QYGmXVqqya7RsRiYeEiurlQ7496eLsOn5Y30FdxaLcmkNiCmAS0Gja7+2xsL0MUMoYLgzsZeKBAfkwoXoZ3csk4OuljuOGjtpiAft1FRtLxaHu+4ZVGpP0ZdsIgG7YUW0eI2R7JyOQthlRJVaHhPHkx69C8oqjTSH7qJC84jiwCsnMw2mOSUkkO3eARDprEJFIbz63oqpt3xvWR40ciki6C5PkcVxQFODlThkH6+pIPsIVxVKJKmrJIpGXmrUvjySREgPi1UGZ23NUQmJcWKrm8dsnVZxcGXh32sXtfbRKU1ZzeCy35pCYEly1eri+G12xnAxQRTF8N/iRXZIaTUwAkxDI/uGrokaTgPMbA+e3BpareezVVeytqQBGX1wnNQJJ9jYdDlEbikACnIoWIJC2rWHCWAGBCumROG8asQoJwdyeaMjM7f5g1uCSVabVJZG+uQEhiQyQWLAkMngdo0Ja3d6BNcG1kYRIskqvJI9jQE4BfrVXwV5t9AVHKqq1nYdDIG/vZRirRHL8eq+M2oL8eJCYLDZXvHzIj2dddHTxh9njdRXlYiZvlyUkArhs+hT1WVEfOaTpT1JtcBAf4hJI8cTXdz1c37fxjqnQWswricNRx00gLeXR+9x1CSSnlFlniBSWozm9mVw+r805HT8P0jLgUSeCKH9vWBXSySMM39aDb7N++OaGNRfTCt9F4EmkT3Xst8WHZUZAxl0SybQza+LVSHeQOz/7WxYRSZZKSllhxMjlgNePxkMcHSiKVeTkxVYJG8vDhUpIzB4eb1hfbBISWUA+Z70nf/dyDgd1NfB5tlTN40C+XyWmBETpV1kVzjPyGQZEDMcG9n3YRfcdL+gQaKLI0/ddE//42sUffmjhH187uOuIH/CnVZ116L628siecjUtwdrJ68D1tuwH20CMesY7AwqY8ub0dDXymeM6uH3cKXzVS60m8bUg/zrsNn40+0NQxZRvhagyKzkXwTef64NvLbwZ4tpdU8TNys1NgWtLnkGf+8KKrSSVx5EilwN+87iK+tL4L7OiALXFAiqlHMpFqxprL/DmlJDgsbFcwD/tlCfthoREABU1h1/tOftDdnF2Y92AP0up+JiExDhwddfDlahYDi+KpIKgyRFMMhTC/UnuqT2iz8C+1yTxeFGjT+ECPCXHfqH3CO9ONLw/1bC7Zj2wXa7mfSJY/II4UWOGVSCNnkNE/Guy7yn94Z+AYC9IIBjGyqqAQKw8SEdx5H7VXhvjga/oKpOlSM4/8CyIVEhEFNSxh0ZVMe1bmZWZzyHD/sI6HvFlVV2WkIeHtFq/HgpVI90REfmR7NLgrkCSx5Ehn1Pw3bMqVucnW8BhrpTDyx0rd+3zhYZWR27nISHGQiWPV7KyqkTGsTyXx2+fVnF8pePi1sD6BB7OSUgMikDI6ixiZBw2nuHhCKQgfDXGLEECabcT8PlCw5dLDRtLRezXVdQXvQqtg1RaTYNAAhZpIsDbpsOX7+jxIoL/CV5wKw9v8enkQSIyjJWhkL6Lb1MgspuEFVkZn3zXg1s5KcyUcUikR4Y9N5OSSNterJBW1xHXbmIiyfwAvPXKsNURQC0q+P7F5Imjg5wC7NdUPN8uo7ZYkE/pJQIo5BW8OiijmJdvDonpwOZyEa2OiZ+Puuga1H+AhMSEQQAumxGFckbwNg6azMjfCgVehHdJajjGwOGuSyAgMGQ4iY8EaycCTq51/PntHf74yx2+Xuour0gSehp1LqkdskMZjR5zTX1hn+4qhDZERRsdssMOIe60IGAVw4SxEnPK31tw0qss6/c8JJSVn5LxwfWNO3CvIe8Sd0Hg9vC1u2sS+RJ6bX3XlyAOa2UGB0NbucFSeUwb1VIOv31axXw5W7xcUYD1pQIqag4VVcPnC435w5GYdXy7X8aS3OZAYorw8VyzilDc9XBypVu5ujWZ+yiRXVy3eri+y4Ly6Kkt2UC4PwN7OuwS+44frAIrJ4KFhG9eNg00WgbenuSxX7c+1/K58SuQgKU66oYvaJWAQPEZiBVIi0CKFUhnvWH7QcYPY8XoVEhAGMoqqmDqbe3h2Y+szApvPZ6rxPjtrSnSF0SHtFrD2Jt9X1ir3RTQ00MVSak8poqFSh7fv5jLHHF0oABYrOTwYruEF9tlVNWcVCEl8HKnjK2V8RV0kpAYFh2d8OG06x7fd0387bCDP/5yh4vbLNycS0gEcdky+qeNjOCBbmafEY/MMU6OSjC9X+2KOU+iMQEBTOwJAc12D3//3MYffmjil6Mu2po47WiUCqTeIzdsNSB0JVUggwbADwle/2DRF2tA0Bz5fu2MAuh50V+FDC2o4/eDBNfLUe38Flh3fIofMydfWCfCF1FxnUg1krx6OMS38647iqPwTeaumSDJY2pYnsvj+xfVqSgXX8wreLyh4sV2CavzMox1lrFbU/FkQ6o1EtOF96dddAXbdly1evjz23v89WMbrY45Ac8kJMIRGbI6dmSEUkYQqP5nYhlO2CsZgRSeDjRGGOmzfiKgo5t4c9zF739o4sfDtnALtkEIZJx2o2eHrfKUjHE5hEAKroG3lyHbm9x1+tucw7Aw1iC15AkksW2MfVFFVG6WIMPsE8oqIpHsZWBsRZJIzz/eNQGJdCcIzh2s0uq7IkLfkhFJGbaaAmqLBXz3tDpVJEwBsLVStPaDvFDwtaGL/i4kHjBWFwp4tS8rq0pMF27uezg81yL7HDV0nN0YOKireLSuQi1M0YezxIPE9V0PV3G36CCkHlU6ApMjQLiXA/sfY2Cwi68l0kZIAZ3AGL5BbDJi/fYN2qdzDYcXGrZWitivqVhb6F9cJ+pcv3bdsJVHAleh1PXUbfevzRmTrJAO3CGMTYfoJCmmY8ePur4ACFZkFYWyKi5pix/K6vx+gnszCiuzugV0wOwRybc715qrEAvuAjF8OCSk1e0kDmt1fQN7zR2EhbZaLyR5HAYKsLFUxL88rkwVcWSxPJdHRS2jUsrh87mGjiF6YiTx0FBRc3h9IImjxPTh7XE31oMuo0d4d9LFybWOxxsl7K3J0GyJyeGyGSNkdezICKUcmRu24YHsJxmUZgXWKAJp5a4RKThq6Dhu6KgtFrBfV7Fp7+mdNoE0egQyGdXMR7I8zkEcefE4ECGVPEj7MFCN1R5Avpw8uzPPx5w2pqP7m/ORNnd9PJP01tYvBzExifT6ivyJyosM+OSxPM8vexJmiOcb4MuP5M8FSDyk8jgwFAXYXi3i1f70EkcHpaKCp5slVNQcDs813AhCIiQeFl4dVFBRZdS6xHTh5Npw93eMi7uOiR8/tXF0qeHpVgm1Bfm1JzF+JA5ZnTX1UcykxF0GMdxncF/bMTqkU0AnejKHQDoU5PzWwEXTwGI1j/2aUzQsPQKp93yBi2EE0nUOwfVFEUiuO0PcyE9ieCXMv52GW9wlVRXSp/z594a05w344pBIvy/2vFEk0nopIJE2geVJpNfO+QRiXI2jRjL+IR6RlN+iA0BRgL2ail/tlqeeODpQAOysWmGshxcaTq5kGOtDxbf7FawtyMqqEtMFkyzVcVA0Wj003txjZ62IJxulzBY2k3h4cKoCZxNZpJQjIpCJewWVr6wRSOf45q6HH+/beHfStUhk3QrXHyRUlYXRE9wIRhJIILQSa4giplCw3SGQgFiFJHuetFVIQPFxRIZyujxN4IuIsNvFZeKTSCB0n0h3KDHrYIgtuIvFcE7y5h6SSLK+SvKYEIoCPFpX8XKnnLmP2zSwOp9HuWipkJ/PNegmse8jiSnHk40S9moyfE9i+vDpTEOzPfwN+NdLJh+yrqIo8yElRoxGq4eeOcAX6djUx4wQyJhuDOxtjIFpEMhAhzEQSKftvmviH187eHvSxUHdIpFzpXxA6IhDIIls5ZGYrS5CHI5FIB0lMEEepLdWpw2eXYIdxsq0uQPgI/J9VEjXhG9bDzhrgbdOgeLnXjsE1xefRPLtjk9iEun5FSuk1T7n9hSQ+H5Eks2RlOQxARQFeLZZwtOtUhY+ZkeGasnazqOiKvh8oeO23ZME8gFgY7mIlzulSbshIZEYbc3Eh7PBVUc/dIPw9riL4ysdTzZK2JX5kBIjxGUzW9vHZIQqiiFmUekZHgOBFGZAjolAOnByvj+cathZK2K/rmJljq+uH4dA6gajQvnXJSCQ4JqC6wMwZBgrNzHDCcOL6XAmw1RIAAOFsvpIpNU0AhIJhBfXcdVIry+vRvr8AxPWOiCRlOQxJhTF2g/v8fpsbGugANivqXY1Vg1nN1lM9peIi8VqHq9kgRyJKcX7U024NcewuOuY+OFTG18bOp5tlmQ4t0TquLnv4WqYkNWxMb0sUsoI4hR6Joa9gQYnGxSDKwob0ySQAGAS4fOFji+XOjaWC9ivqVhfKvat0Oqojf6cx34qGKdCuuRKQMXDCCQwUBjrsCqk63nsUFYfiQzLh/Qc5nxKTCIZRwPFdbwJGb9ZNZKx4w9rHZBISvIYA4oC/HqvMpPhfvXFAipqDhXVKg9tyq3Tpg7FvIJXBxUU81m7MZCQ6I+b+x4OL6K35hgWjaaBPzUN7Nr5kHMyH1IiJVw2e+iJ8sYmjCxSRRdxiVPomdjGB+8Vo0O8LTwiTMdcYD8C6ah6J9cGTq8NrMzncVBXsbOq9q3QajjbdIA3H0eF9H6FvDrn9hLmQdqUZdAwViChCgmOUMUPZfWNcJeYFom0CaDuYBW6AAAKvklEQVTrRpBEWi+jybxPq0RkWGsCIinJYx8oCvD6UQXbK7NHHB3Ml3N4sV1G2VYh77om+26TyDi+PahgsSJvhiWmE2+Ou2P7vPnC5EMerKvygYvE0GikEbI6i+rjqF1JQuLCWlIjkBEzxWSScQgkSAEpwFWrh6tWG2+Pu9ivqziol5DPiQq+OAVzxIptMgIJJMmDdAgvzzkZjXBQFRIIkkiGxPL6KRAZygpnTcyI1EiksxDbdoBEAqKQ1oB/jC/xw1rt3hFEUt5RRiCnAP/yuDrTxNFBPgc8XlfxcrtslbrPyPeLRDRe7pSxuSyfEUlMJ46vdJwn3JpjWGgG4c1xF3/8+Q5fG/pY55Z4WLhtm8OFrI4Y4mcyWXwyHO7TYN4S9yPZzNSvQ6B/PB8jZgq+EFugfn3I5SMEoNUx8ffPHfz+h1v8/LWD+65pb3ZvwegRdFc1Z64Zy19CrwcFuwv8c88L86LI+i9wiqE4nHHOMRCFXH0igefuAJ81Eq6ZAh25EcJ294hIvF6yixOJ1mv7xrjI2+ZeEr865xy5L4K/F9enoHVyJ/Yml3eVIcjlgO+eVrEm9wTjsLFcQFlVULmwVEiJ7GKvpuLJxmzk6Eo8PPRM4O1JekVykqLVMfE/H9s4svMhV+ZlPqREMjSahnirg0HgE1fSwojMpoOgdNW/W1LjMQYHuwSVrsQKpHBMxEzBF+KZKJ4CyS69q1sPzN6eaO42H0vVPPQeQTdMfiwbHskoclEKZKAJFFDfCOFhrMAoVEjb7sChrA4FUwS/H4AvqsO9YKYPUSJdwiwK3bX8IMYPYUgrEFQjGRPhYa1MpxBFEiTJoxDFgoLvnlaxPCdvFkRYquZR2c651VjbmkyEzBrWFgr4dl8WyJGYXnw819BqT/6z5cLehHt3zXoYM1eSATsS8XCRsSqr8ZEhShnTFUkgmf4DEEhrHOHTeReHFxq2VorYXC7A6PlnCyeQYNcnIE38swDiyIlnjidvrM8ExR/5yjmROBeS8SP4u/GILL8CQJQPCcQoquO7Hm6vviQSvpBiRm0MC2nlHeeUyPCwVs+vKCIJQIat+lEp5fD98zlJHPtALSh4ulnCi+0SVuUT+UyhWsrJyqoSU437romPp5NTHQMg4MuFhj/+fId3J10mlEtCQoxm28R12iGrI3rbZf7dTIEXozA+/Ni+pgRBlMIxwcbgJYieLF4IK0sa2LGEo4aGT+caXj8qu6lbnPokdIOCK/T5S4FzFOjuECqRz+FhrLZ9YocGffEFbDLDRWdsYwxXI/ZV2No5QwRu1uALxgXOed4TJ6Q1eMb1URzSStxLz1Pf79DnFyE6tFUqjwzmKzl897SKiio5dVxsrxZRUXM4vNBwJPODJg5FAV4dVOR7WGKq8f5Ug2aIv0QnCc0g/HLUxdGVjqcbJWyvynx4CTEuWwa3R970ISDxZAThfg3lcYzB6VwRgRWh4YjZ3FPRHvVXIOEqbIHdMQAU8grqiwXUF4u4bfdweG5V3feIaVCBtA4T7gcJSiGMlXdkYBUSiBXKCmclwlBWn7o3gBIJd7qgj+4MwpBWew7OLWYO7qX3+RQIa2V8c+ZjmyV5tLE8l8dvn1ahFrL4YZltrMznUSmVUS3lcHiezZu+WcG3+xWpBEtMNa7uepnPp261Tfz1o70/5FYJKzJSRcKHy9sRhayOiNOJzWaIQHKupE0g7VEDEcgAc4phQ0RcROP4RvElSIFA2iTITyALbrVpwlI1j28PKni2VbJJpI6u7qQV+IlSPwJpdeTXQwOEsQLiLT1s+/bL0FxIkM1Nk4eycv7ZfvjXbx0ORiLd6UBiEomwkFZ3cZ53orBWplJrEiLp+C7JI6z8sN8+rSIvxZqBUS4qeL5VcrfzuMlwhbmHiqebJeyuSSVEYrrx9jhD4ap9cHFr4LJpYG9NxeMNFVWZDykBq9hS6iGrLMZKIDOEmA5OB4GMKzZOjkAWmWdizl6QFTWHlztlPN0s4fBCx+cLDc0Os30bJ0iK9lvkfQ6uJ7heYEQqpLvsAQrq2L7wVBgDk0i43DmCRAICEg2vQq5oqw/3h8K67Z1jfbbPxyGSM08e15cL+M2TarY/MKcIe2tFVFUFh+c6Tq5lGOu4sLlSxIvt0qTdkJAYCkcNHRejUmxGBCLg8ELD6Y2Og/USDmpF5om9xCzismk8oAicjFHKmIRpKONjIZBx94AMNo6LQBbyPLlzCCTsc082rIdmXy91HF5oaLTs6jo+Agn41D2fz0FONQ4VkrHv8sEBQllTIpHuyCgSafsTRiLDQ1qZeQKVWlkfGL/tk2FEcnbJowJsrxTx+lElSx+LDwJrCwWU1RwqJasaa2qlyiWEWKzm8UpWVpWYchg9wrsJbs0xLLo64ZevHRw3NDzdLGFL7g88s7hsjiHyZqzqY8YIpItwvwb3OP7IbBJIhE5KtrInmJGfx2aPRcFDMJZAOjPtrhWxs1bE+Y2Bw3MNpzeGG+HpWU0axopoFVJEnhKpkHy7t3QB2XUGYgIkMoRIR+ZFgi0qFJ4byaqR3g/GKU5t5InkbJJHBdhbU+VWBiPEXCmHF9tlt5hOFkruP0SoBQWvDypS6ZCYenw819DqTP/nRLNt4r8/2PmQmyVZuXvG0OqYuLqbLvV86iBmTtHdhpojSbfxEkiA4R4xronFdUiQJxecp5ATmyKXuPAkcn2pgPWlAq7urOI6Xy51jn+kEcbqNXNSom8WDKVCWsMFoazW4m0iNSYSCUeEJGYyZlb7XKgayRLJmGGt/OxOV16RnD3yqACP6iq+2ZXEcdTIKcBBXXUJ5PmN/EJNG98eVLBQkXlWEtON+66JT2fZLpKTFOc3Bi5vDezWrP0hZQXk2UCj1YOmjynaZpbVx4HJXQLjAy95fASSa4lLIBFUEEU+WQ+lI8h5iI2VuTxW5pziOlZIq7O9UZphrMDwKiSAiII6ECu1jE/Bs/ZAUWVWIAUSyb3wuRSlRlrn3dmE7yvnR//Q1pkij4oCPNkoydywMWN9qYCKmkNF1fDZLfMsMSz+abeMjaWZ+hOWeKB4d9J9QDliHkyCFcZ1rePRegn79SIKuQzdgEukjsvmw3hImjGqKIaYNYV3G8R4jMGxyPYUEkgnoimqX9S5uVIO3+xaxXU+X1jbfNx3TRBCVEgBaRq1CmmtIUSFtJvCq7LacwRCWeFnprFJJKCwhU3hr3LqGFO4F75rkkSNHJBIzsydp6IAL7bLeLKhTtqVmcRCJYeX2yVUbRXyvjv94WmTxH5NxeN1+V6WmH40Wj18uXzYxbW6OuHnrx0c2aGsmysz89U7U7jrmrhqjZk8jpXlZZlSjsK3WSGQCPTJ5xQuHWZQAgkQSkUFT7dKdoVWi0Te3PXEBNJ1ZVwqpNUYGcpqNyXPh/TOxSWRAW02lhpJzPiEaiSiwlqZOX1Ecia+wRQF+Ga3jIO6vNmeJAp5BY83VJRVBYcXOhoP5AntuFFbLODXMl9X4oFgmrbmGBbNdg//9eEe640Cnm2VsFSV+ZAPCY1WD91xhayyGBGni0WIJo2YRGlwr4clkEk7TYJAIlCJtZhXuK06rH7RBBKA8Lw7TrFSmfbrKk6udByeazi/NWzvwlRIhW9yD4ZQIeEfyswTRSJdvheRD4m0SSSGDmn1pidm7YLfIzElcfoQyf8P8cpanaKJ1MIAAAAASUVORK5CYII=;movable=0;resizable=0;rotatable=0;deletable=0;editable=0;locked=1;connectable=0;" vertex="1" parent="1">
          <mxGeometry x="-40" y="140" width="911" height="486" as="geometry" />
        </mxCell>
        <mxCell id="6fWjDC9GkfzUn7_lkwaG-2" value="" style="endArrow=classic;html=1;rounded=0;strokeColor=#000000;strokeWidth=4;exitX=0.921;exitY=1.011;exitDx=0;exitDy=0;exitPerimeter=0;" parent="1" edge="1" source="6fWjDC9GkfzUn7_lkwaG-3">
          <mxGeometry width="50" height="50" relative="1" as="geometry">
            <mxPoint x="330" y="370" as="sourcePoint" />
            <mxPoint x="380" y="350" as="targetPoint" />
          </mxGeometry>
        </mxCell>
        <mxCell id="6fWjDC9GkfzUn7_lkwaG-3" value="&lt;font style=&quot;font-size: 30px;&quot;&gt;Robot&lt;/font&gt;" style="text;html=1;align=center;verticalAlign=middle;resizable=0;points=[];autosize=1;fontColor=#000000;" parent="1" vertex="1">
          <mxGeometry x="240" y="280" width="100" height="50" as="geometry" />
        </mxCell>
        <mxCell id="6fWjDC9GkfzUn7_lkwaG-5" value="&lt;font style=&quot;font-size: 30px;&quot;&gt;Movable&lt;/font&gt;" style="text;html=1;align=center;verticalAlign=middle;resizable=0;points=[];autosize=1;fontColor=#000000;" parent="1" vertex="1">
          <mxGeometry x="450" y="340" width="140" height="50" as="geometry" />
        </mxCell>
        <mxCell id="6fWjDC9GkfzUn7_lkwaG-6" value="&lt;font style=&quot;font-size: 30px;&quot;&gt;Robot&#39;s Goal&lt;/font&gt;" style="text;html=1;align=center;verticalAlign=middle;resizable=0;points=[];autosize=1;fontColor=#000000;" parent="1" vertex="1">
          <mxGeometry x="650" y="320" width="200" height="50" as="geometry" />
        </mxCell>
        <mxCell id="6fWjDC9GkfzUn7_lkwaG-7" value="" style="endArrow=classic;html=1;rounded=0;strokeColor=#000000;strokeWidth=4;" parent="1" edge="1">
          <mxGeometry width="50" height="50" relative="1" as="geometry">
            <mxPoint x="750" y="390" as="sourcePoint" />
            <mxPoint x="750" y="450" as="targetPoint" />
          </mxGeometry>
        </mxCell>
        <mxCell id="fAr4ffDVvJXLrBOaozmI-2" value="&lt;font style=&quot;font-size: 30px;&quot;&gt;Unmovable&lt;/font&gt;" style="text;html=1;align=center;verticalAlign=middle;resizable=0;points=[];autosize=1;fontColor=#000000;" vertex="1" parent="1">
          <mxGeometry x="360" y="150" width="180" height="50" as="geometry" />
        </mxCell>
        <mxCell id="fAr4ffDVvJXLrBOaozmI-3" value="" style="endArrow=classic;html=1;rounded=0;strokeColor=#000000;strokeWidth=4;exitX=0.412;exitY=1.051;exitDx=0;exitDy=0;exitPerimeter=0;" edge="1" parent="1" source="fAr4ffDVvJXLrBOaozmI-2">
          <mxGeometry width="50" height="50" relative="1" as="geometry">
            <mxPoint x="390" y="230" as="sourcePoint" />
            <mxPoint x="380" y="250" as="targetPoint" />
          </mxGeometry>
        </mxCell>
      </root>
    </mxGraphModel>
  </diagram>
</mxfile>
